<?xml version="1.0" encoding="utf-8"?>
<!-- Generator: Adobe Illustrator 23.0.6, SVG Export Plug-In . SVG Version: 6.00 Build 0)  -->
<svg version="1.2" baseProfile="tiny" id="Calque_1"
	 xmlns="http://www.w3.org/2000/svg" xmlns:xlink="http://www.w3.org/1999/xlink" x="0px" y="0px" viewBox="0 0 1058.297 438.237"
	 xml:space="preserve">
<g>
	<path fill="#FFFFFF" d="M421.851,6.214h0.857c38.574,1.714,43.931,46.932,43.931,78.22c0,3.215-0.214,6.429-0.214,9.215
		c-1.071,40.717-12.643,73.505-49.074,73.505c-3,0-6.001-0.214-9.215-0.857c0,0,0.214-24.002,0.428-33.86
		c0.643-27.43,1.715-53.361,2.786-81.22c0.214-3.643,0.643-34.931,0.857-39.002l0.214-1.286
		C412.636,7.286,418.636,6.214,421.851,6.214z M419.494,157.725c1.714,0.214,2.143,0.214,2.357,0.214
		c27.216,0,31.717-45.86,32.574-63.433c1.072-20.144,0.214-73.719-30.002-76.291L419.494,157.725z"/>
	<path fill="#FFFFFF" d="M488.064,20.787c0-3.858,3.643-7.501,7.501-7.501h33.859c1.286,0,5.572,3.215,5.786,4.286
		c0.214,0.428,0.214,0.643,0.214,1.072c0,4.286-5.786,6.214-9.215,6.214h-25.717l1.072,71.148l23.145-3.429h1.071
		c10.072,0,6.215,9.857-2.357,11.143l-21.43,3.215l-0.643,55.933c1.929,0.214,9.215,0.214,11.144,0.214
		c14.358,0,24.859-4.929,25.501,4.929c0.429,7.286-47.574,6.429-47.574,2.357L488.064,20.787z"/>
	<path fill="#FFFFFF" d="M555.356,2.571c1.285-1.714,8.143-4.286,9.858-2.571c0.857,0.428,3.857,3.214,4.072,4.071L587.5,136.08
		c7.072-39.217,14.572-88.72,21.43-127.937c0-7.286,3-8.358,6.858-8.358c3.215,0,5.358,0.429,6.858,4.286
		c-9.214,35.36-14.572,72.219-20.573,108.221l-8.357,55.075c-1.501,3.857-3.643,4.072-6.643,4.072c-2.358,0-4.715,0-5.572-2.786
		C570.142,115.079,565.642,57.218,555.356,2.571z"/>
	<path fill="#FFFFFF" d="M622.856,158.796c5.786,0,9.644,4.501,9.644,10.501c0,4.715-4.5,5.357-8.571,5.357
		c-5.358,0-8.358-3.429-8.358-9.429C615.57,162.439,620.285,158.796,622.856,158.796z"/>
	<path fill="#FFFFFF" d="M810.789,115.722c-3.215-34.074-10.072-68.576-16.716-102.007v-1.929c0-3.215,0.214-6.643,4.715-6.643
		c2.785,0,7.929,0.428,7.929,4.5c1.071,7.501,6.858,43.932,8.143,51.646c4.071,23.787,6.215,47.575,9.858,71.148
		c2.786-9.215,11.572-48.432,12.858-55.933c0.857-5.143,13.287-12.215,15.001-4.071l9.001,40.502c2.142,8.573,3,18.216,4.928,25.073
		c3.643-19.715,15.43-91.934,18.002-107.579c1.285-7.286,0.214-22.501,10.501-22.501c3.429,0,4.928,2.572,4.928,5.572
		c0,0.857,0,2.786-0.214,3.215c-9.215,51.004-19.073,101.364-24.859,153.439c-1.072,2.786-3.215,5.572-6.215,5.572
		c-1.929,0-4.071-1.286-4.93-2.571l-18.429-81.649l-15.001,71.576c-1.072,6,0.214,12.858-7.716,12.858
		c-3.213,0-4.5-0.857-6.214-4.286L810.789,115.722z"/>
	<path fill="#FFFFFF" d="M921.361,20.787c0-3.858,3.643-7.501,7.5-7.501h33.86c1.286,0,5.572,3.215,5.786,4.286
		c0.214,0.428,0.214,0.643,0.214,1.072c0,4.286-5.786,6.214-9.215,6.214H933.79l1.071,71.148l23.145-3.429h1.071
		c10.072,0,6.215,9.857-2.358,11.143l-21.43,3.215l-0.643,55.933c1.929,0.214,9.215,0.214,11.143,0.214
		c14.358,0,24.859-4.929,25.502,4.929c0.428,7.286-47.575,6.429-47.575,2.357L921.361,20.787z"/>
	<path fill="#FFFFFF" d="M1035.795,25.502c0,11.143-4.286,21.215-11.572,29.359c24.43,15.215,34.074,33.431,34.074,62.147
		c0,30.645-16.93,56.789-50.575,56.789c-1.5,0-5.786-0.214-7.5-3.215c-2.358-33.002-2.358-65.79-5.572-104.578l-4.286-51.004v-4.5
		C1004.293-5.357,1035.795-0.857,1035.795,25.502z M1006.008,50.575c10.929,0,18.215-12.429,18.215-24.216
		c0-12.215-10.072-16.501-21.43-11.143L1006.008,50.575z M1015.437,160.939c22.716,0,30.216-23.358,30.216-43.931
		c0-23.787-10.929-52.718-39.002-52.718c0,32.359,2.358,64.29,4.928,96.435C1012.866,160.939,1014.151,160.939,1015.437,160.939z"/>
	<path fill="#FFFFFF" d="M408.136,340.088c0-16.93,3.857-49.718,22.501-58.719c10.715-5.143,38.574-2.999,38.574,14.144
		c0,2.572-1.072,5.358-4.715,5.358c-7.715,0-10.501-11.572-21.43-11.572h-0.857c-19.93,1.071-23.359,31.073-23.359,47.145v4.287
		c1.072,21.43,1.072,37.288,5.572,57.432c2.143,10.072,7.929,20.787,20.359,20.787h1.071c19.502-1.071,20.144-26.572,19.502-38.788
		l-1.714-31.716c-6.215,0-12.43,1.714-19.287,1.071c-1.929-1.285-2.571-6.643-2.571-6.858c0-6.429,14.786-5.143,28.716-5.357
		c6.429,1.714,5.572,12.429,6.214,25.715v2.143c1.286,23.359,3.215,63.004-27.859,64.505c-1.5,0-2.786,0.214-4.286,0
		C415.637,431.38,408.136,396.02,408.136,340.088z"/>
	<path fill="#FFFFFF" d="M498.78,415.307c0-48.217,1.714-96.863,3-145.081c0.428-9.858,4.072-9.858,12.643-9.858h2.143
		c19.715,0,32.359,12.859,32.359,31.718v2.357c0,15.644-4.072,33.86-18.216,43.503c1.072,1.071,6,6.858,6.858,8.357
		c9.643,12.644,7.286,43.289,8.358,58.075c0,1.286,1.285,11.144,1.285,12.43v1.714c0,3.643-3.429,4.073-6.214,4.073h-0.214
		c-2.358,0-5.143,0-6.001-3c-0.214-7.072-2.143-39.86-2.571-47.146c-0.857-10.501-3-24.859-16.073-24.859h-3.429
		c-0.428,1.928-1.285,10.501-1.285,12.429c-0.214,1.929-1.286,49.504-1.5,67.719c0,4.072,0.643,8.573-4.715,8.573
		c-2.357,0-4.929-0.858-6.429-3V415.307z M515.495,332.373c15.215,0,21.001-28.073,21.001-37.931
		c0-10.072-4.714-22.929-16.93-22.929c-3.215,0-5.357,1.928-5.357,5.571c0.214,18.645-1.5,34.288-1.5,53.361
		C512.709,332.159,514.209,332.373,515.495,332.373z"/>
	<path fill="#FFFFFF" d="M586.427,387.662l-1.286,1.286l-3.643,24.216c-0.428,3.215-0.214,12.429-6.429,12.429
		c-2.785,0-4.714-5.571-4.714-7.715c22.288-155.368,22.502-155.796,22.502-155.796c1.071-4.072,2.571-10.072,7.929-10.072
		c2.358,0,5.358,1.071,6.643,3.215l1.714,4.5c12.43,49.075,18.216,99.436,24.002,150.011l1.286,13.929
		c0,0.214-0.214,0.214-0.214,0.428c-1.501,4.072-2.358,5.786-6.429,5.786h-0.643c-1.286,0-3.429,0-3.643-1.501l-5.358-40.717
		H586.427z M589.641,374.376l26.788,0.643L602.07,274.94L589.641,374.376z"/>
	<path fill="#FFFFFF" d="M655.854,381.448c0-17.144,1.071-97.293,1.501-114.437c1.071-3,6.428-2.572,9-2.572
		c22.288,0,38.359,19.716,38.359,41.146c0,23.145-15.858,49.075-37.073,58.933c-0.214,3.429-1.072,20.143-1.072,23.573
		c-0.214,7.286-0.214,40.288,0,47.359c-1.285,2.143-4.5,2.786-6.643,2.786c-1.928,0-2.357-0.214-4.072-1.285V381.448z
		 M667.212,350.16c1.501,0,3.429-0.428,4.501-1.5c12.429-11.358,19.715-24.43,19.715-41.574c0-11.143-7.929-31.288-22.715-31.288
		L667.212,350.16z"/>
	<path fill="#FFFFFF" d="M733.427,366.661v60.433c0,9.644-11.787,6.001-12.215,3.215c0-7.715,0.428-43.289,0.428-50.789
		c0-16.716,1.501-103.078,1.715-119.58c1.714-1.714,3.643-1.714,6.001-1.714c2.999,0,4.714,1.928,6.642,4.5
		c0,20.573-1.928,49.933-1.928,71.791c0,3,0,16.716,0.214,19.502c1.714,1.928,3.215,1.5,5.143,1.5c8.144,0,16.287,0,24.217,0.428
		c1.714-24.216,2.571-66.004,1.928-93.221v-1.071c0-3.215,2.572-4.715,5.572-4.715c2.571,0,5.571,2.143,7.072,4.286
		c0,4.715-0.643,18.431-0.857,22.931c-3,98.364,2.357,148.081-4.715,148.295c-7.5,0.214-7.5-9-7.5-23.358
		c0-3.858-1.071-38.575-1.071-42.432H733.427z"/>
	<path fill="#FFFFFF" d="M805.43,271.297c1.5-4.286,2.572-4.5,7.072-4.5c6.215,0,6.215,2.787,6.215,9.002
		c0,0.643-0.214,3.429-0.214,3.857l-6.429,146.582c-0.428,9.428-12.43,10.286-12.43,4.071L805.43,271.297z"/>
	<path fill="#FFFFFF" d="M839.716,393.234c8.571,2.572,0.428,21.43,11.143,27.645h1.286c12,0,15.429-16.501,15.429-25.287
		c0-11.787-0.857-24.43-5.786-35.574c-10.072-23.144-31.716-42.431-31.716-69.004c0-12,7.286-31.931,22.073-31.931
		c9.428,0,25.073,7.5,25.073,18.644c0,4.072-1.286,6.429-5.572,6.429c-8.357,0-5.785-12.858-17.572-12.858
		c-10.929,0-11.786,15.216-11.786,22.716c0,21.644,18.215,36.86,27.859,54.861c8.786,16.501,13.287,40.503,8.143,56.79
		c-3.429,11.143-13.073,26.358-26.144,26.358c-15.859,0-20.787-19.715-20.787-32.573
		C831.359,395.806,836.287,392.163,839.716,393.234z"/>
	<path fill="#FFFFFF" d="M971.936,297.656l-23.144,57.004c-0.428,4.286-10.501,4.714-12.216,2.786
		c-0.214-0.215-1.285-1.929-1.5-2.572c-5.572-18.001-10.501-35.789-17.572-53.361c-3.643,40.289,0.857,81.434-4.287,121.509
		c-2.357,1.5-4.072,1.5-6.643,1.5c-4.5,0-4.286-1.071-4.286-5.143c0-6.858,1.929-11.359,1.501-146.582
		c0-6.43,9.858-11.358,12.429-4.286l26.145,71.576c6.215-7.073,24.859-67.291,29.573-75.22c2.143-4.287,6.858-3.644,12.216,0
		c0.214,0,1.285,70.719,1.5,100.935c0.215,19.073,1.286,39.002,1.286,58.29c0,3.857-2.572,7.286-6.643,7.286
		c-3.429,0-4.286-0.857-5.572-4.286C975.366,383.805,974.08,340.731,971.936,297.656z"/>
	<path fill="#FFFFFF" d="M1008.362,277.94c0-3.857,3.643-7.5,7.5-7.5h33.859c1.286,0,5.572,3.215,5.786,4.286
		c0.214,0.43,0.214,0.644,0.214,1.072c0,4.286-5.786,6.215-9.215,6.215h-25.716l1.071,71.147l23.145-3.429h1.071
		c10.072,0,6.215,9.858-2.358,11.144l-21.43,3.213l-0.643,55.933c1.929,0.214,9.215,0.214,11.143,0.214
		c14.358,0,24.859-4.93,25.502,4.928c0.428,7.286-47.575,6.429-47.575,2.358L1008.362,277.94z"/>
</g>
<path fill="#FFFFFF" d="M262.568,23.115c2.68-17.446-7.503-21.192-21.969-23.058c-4.284-0.622-8.029-0.622-11.786-0.622
	c-44.465,0-64.831,33.66-72.322,82.9c-0.431,3.135-0.766,6.186-0.993,9.154C143.22,41.638,119.743-0.565,75.014-0.565
	C6.964-0.565,0,155.877,0,200.355c0,58.932,5.899,237.883,93.765,237.883c16.8,0,33.612-10.65,43.975-23.214
	c11.2,11.894,27.366,20.354,38.566,22.592c4.284,0.622,8.58,0.622,12.863,0.622c43.401,0,61.613-29.915,69.115-81.033
	c9.644-67.308-15.005-118.427-43.401-175.768c-18.212-36.149-32.152-52.363-26.253-92.245
	C200.956,1.924,257.746,53.664,262.568,23.115z M128.586,350.898c-9.106-10.171-17.147-22.496-31.075-22.496
	c-9.645,0-17.147,3.745-17.147,13.39s2.154,10.183,11.26,19.828c3.207,3.745,18.751,18.751,21.969,21.969
	c0.527,0.538,0.527,2.68,0.527,3.207c0,15.005-14.993,18.763-27.318,18.763c-47.684,0-54.122-152.697-54.122-181.631
	c0-11.786,0.538-43.4,0.538-45.542c0-32.691,6.438-139.307,47.146-146.272c49.838-8.568,58.944,147.875,58.944,177.885
	C139.307,256.606,137.165,304.829,128.586,350.898z M226.671,350.347c-4.822,33.66-12.863,62.331-47.684,55.474
	c-14.969-2.609-17.65-18.272-24.662-28.778v-0.012c9.8-49.958,14.443-99.951,14.443-150.962c0-19.169-0.527-47.277-3.662-77.228
	c2.728,6.426,5.959,12.851,9.597,19.504C206.843,226.943,236.315,279.916,226.671,350.347z"/>
<path d="M-27.102-262.839"/>
<path fill="none" d="M-310.566,20.625"/>
</svg>
