<?xml version="1.0" encoding="utf-8"?>
<!-- Generator: Adobe Illustrator 23.0.6, SVG Export Plug-In . SVG Version: 6.00 Build 0)  -->
<svg version="1.2" baseProfile="tiny" id="Calque_1"
	 xmlns="http://www.w3.org/2000/svg" xmlns:xlink="http://www.w3.org/1999/xlink" x="0px" y="0px" viewBox="0 0 442.884 738.937"
	 xml:space="preserve">
<path fill="#FFFFFF" d="M442.161,39.878c4.514-29.379-12.634-35.686-36.996-38.83C397.951,0,391.644,0,385.317,0
	c-74.879,0-109.175,56.683-121.789,139.602c-0.725,5.279-1.29,10.418-1.673,15.415C241.181,71.071,201.645,0,126.323,0
	C11.728,0,0,263.447,0,338.346c0,99.241,9.934,400.591,157.899,400.591c28.291,0,56.602-17.934,74.053-39.092
	c18.861,20.029,46.084,34.276,64.945,38.044c7.214,1.048,14.448,1.048,21.662,1.048c73.086,0,103.755-50.376,116.389-136.459
	c16.241-113.346-25.269-199.429-73.086-295.99c-30.669-60.874-54.144-88.178-44.21-155.34
	C338.406,4.191,434.04,91.322,442.161,39.878z M216.536,591.859c-15.334-17.128-28.875-37.883-52.331-37.883
	c-16.241,0-28.876,6.307-28.876,22.548c0,16.241,3.627,17.148,18.962,33.389c5.4,6.307,31.576,31.576,36.996,36.996
	c0.887,0.907,0.887,4.514,0.887,5.4c0,25.269-25.249,31.596-46.003,31.596c-80.299,0-91.14-257.14-91.14-305.863
	c0-19.848,0.907-73.086,0.907-76.693c0-55.051,10.841-234.591,79.393-246.319c83.927-14.428,99.261,249.019,99.261,299.556
	C234.591,433.073,230.984,514.279,216.536,591.859z M381.71,590.932c-8.121,56.683-21.662,104.964-80.3,93.417
	c-25.208-4.393-29.722-30.77-41.53-48.462v-0.02c16.503-84.128,24.322-168.317,24.322-254.218c0-32.281-0.887-79.614-6.166-130.051
	c4.594,10.821,10.035,21.642,16.161,32.845C348.32,383.12,397.951,472.326,381.71,590.932z"/>
</svg>
