<svg id="Calque_1" data-name="Calque 1" xmlns="http://www.w3.org/2000/svg" xmlns:xlink="http://www.w3.org/1999/xlink" viewBox="0 0 1365.35 332.07"><defs><style>.cls-1{fill:url(#Dégradé_sans_nom_45);}.cls-2{fill:url(#Dégradé_sans_nom_45-2);}.cls-3{fill:url(#Dégradé_sans_nom_45-3);}.cls-4{fill:url(#Dégradé_sans_nom_45-4);}.cls-5{fill:url(#Dégradé_sans_nom_45-5);}</style><linearGradient id="Dégradé_sans_nom_45" x1="303.77" y1="284.68" x2="536.38" y2="284.68" gradientUnits="userSpaceOnUse"><stop offset="0.03" stop-color="#c3c"/><stop offset="0.17" stop-color="#009ee6"/><stop offset="0.36" stop-color="#87288a"/><stop offset="0.58" stop-color="#91bf00"/><stop offset="0.74" stop-color="#f07600"/><stop offset="1" stop-color="red"/></linearGradient><linearGradient id="Dégradé_sans_nom_45-2" x1="303.77" y1="293.68" x2="536.38" y2="293.68" xlink:href="#Dégradé_sans_nom_45"/><linearGradient id="Dégradé_sans_nom_45-3" x1="303.77" y1="302.68" x2="536.38" y2="302.68" xlink:href="#Dégradé_sans_nom_45"/><linearGradient id="Dégradé_sans_nom_45-4" x1="303.77" y1="311.68" x2="536.38" y2="311.68" xlink:href="#Dégradé_sans_nom_45"/><linearGradient id="Dégradé_sans_nom_45-5" x1="303.77" y1="319.68" x2="536.38" y2="319.68" xlink:href="#Dégradé_sans_nom_45"/></defs><title>allegro-amabile-logo-full</title><path d="M684.89,321.77l-.06-34.47L667.72,316h-3.1L647.51,287.5v34.27H641V274.46h5.55l19.74,33.25,19.46-33.25h5.55l.06,47.31Z"/><path d="M701,303.86c0-10.68,7.91-18.25,18.66-18.25s18.58,7.57,18.58,18.25-7.84,18.32-18.58,18.32S701,314.54,701,303.86Zm30.69,0c0-7.64-5.14-12.57-12-12.57s-12.1,4.93-12.1,12.57,5.2,12.64,12.1,12.64S731.67,311.5,731.67,303.86Z"/><path d="M806.36,301.16v20.61h-6.49V301.9c0-7-3.38-10.48-9.26-10.48-6.49,0-10.75,4.13-10.75,11.9v18.45h-6.49V301.9c0-7-3.38-10.48-9.26-10.48-6.49,0-10.75,4.13-10.75,11.9v18.45h-6.49V286h6.22v5.34c2.57-3.65,7-5.68,12.37-5.68s10.08,2.16,12.44,6.62c2.71-4.05,7.71-6.62,13.79-6.62C800.41,285.61,806.36,290.61,806.36,301.16Z"/><path d="M850.43,306H821.36c.81,6.29,5.88,10.48,13,10.48a13.36,13.36,0,0,0,10.34-4.33l3.59,4.2c-3.25,3.78-8.18,5.81-14.13,5.81-11.56,0-19.27-7.64-19.27-18.32s7.64-18.25,18-18.25,17.71,7.43,17.71,18.45A19.52,19.52,0,0,1,850.43,306Zm-29.07-4.66h23a11.57,11.57,0,0,0-23,0Z"/><path d="M893.22,301.16v20.61h-6.49V301.9c0-7-3.52-10.48-9.67-10.48-6.89,0-11.36,4.13-11.36,11.9v18.45h-6.49V286h6.22v5.41c2.64-3.66,7.24-5.75,12.91-5.75C887.06,285.61,893.22,290.61,893.22,301.16Z"/><path d="M925.05,319.68a12.23,12.23,0,0,1-7.84,2.5c-7.23,0-11.35-4-11.35-11.22V291.29h-6.09V286h6.09v-7.84h6.48V286h10.28v5.34H912.34v19.4c0,3.85,2,6,5.61,6A8.16,8.16,0,0,0,923,315Z"/><path d="M928,318l2.71-5.14a23,23,0,0,0,12.57,3.72c6,0,8.52-1.83,8.52-4.87,0-8-22.65-1.08-22.65-15.34,0-6.42,5.75-10.75,14.94-10.75,4.67,0,9.94,1.22,13,3.24L954.39,294a18.77,18.77,0,0,0-10.34-2.84c-5.68,0-8.45,2.1-8.45,4.94,0,8.45,22.71,1.55,22.71,15.48,0,6.49-5.95,10.61-15.48,10.61C936.88,322.18,931,320.35,928,318Z"/><path d="M1028.74,321.77l-.07-34.47L1011.57,316h-3.11l-17.1-28.53v34.27h-6.49V274.46h5.54l19.74,33.25,19.47-33.25h5.54l.07,47.31Z"/><path d="M1081.53,286v35.82h-6.15v-5.4a14.6,14.6,0,0,1-12.17,5.81c-9.26,0-15.41-5.07-15.41-15.62V286h6.49v19.87c0,7,3.51,10.55,9.67,10.55,6.76,0,11.08-4.2,11.08-11.9V286Z"/><path d="M1089,318l2.7-5.14a23.08,23.08,0,0,0,12.58,3.72c6,0,8.52-1.83,8.52-4.87,0-8-22.65-1.08-22.65-15.34,0-6.42,5.75-10.75,14.94-10.75,4.66,0,9.94,1.22,13.05,3.24l-2.78,5.14a18.73,18.73,0,0,0-10.34-2.84c-5.68,0-8.45,2.1-8.45,4.94,0,8.45,22.71,1.55,22.71,15.48,0,6.49-5.94,10.61-15.48,10.61C1097.89,322.18,1092,320.35,1089,318Z"/><path d="M1125.94,274.86a4.27,4.27,0,0,1,4.39-4.26,4.23,4.23,0,1,1-4.39,4.26Zm1.15,11.09h6.48v35.82h-6.48Z"/><path d="M1142.29,303.86c0-10.68,7.91-18.25,18.93-18.25,6.42,0,11.76,2.64,14.6,7.64l-4.93,3.17a11.19,11.19,0,0,0-9.74-5.13c-7,0-12.3,4.93-12.3,12.57s5.27,12.64,12.3,12.64a11.17,11.17,0,0,0,9.74-5.14l4.93,3.11c-2.84,5-8.18,7.71-14.6,7.71C1150.2,322.18,1142.29,314.54,1142.29,303.86Z"/><path d="M1212.25,300.14v21.63h-6.15V317c-2.16,3.25-6.15,5.14-11.76,5.14-8.11,0-13.25-4.33-13.25-10.55,0-5.74,3.72-10.47,14.4-10.47h10.28v-1.29c0-5.47-3.18-8.65-9.6-8.65a18.16,18.16,0,0,0-11.36,3.85l-2.7-4.86c3.71-3,9.05-4.6,14.8-4.6C1206.71,285.61,1212.25,290.34,1212.25,300.14Zm-6.48,10.68v-5h-10c-6.42,0-8.25,2.5-8.25,5.54,0,3.59,3,5.82,7.91,5.82S1204.14,315,1205.77,310.82Z"/><path d="M1257.34,286v35.82h-6.15v-5.4a14.6,14.6,0,0,1-12.17,5.81c-9.26,0-15.41-5.07-15.41-15.62V286h6.49v19.87c0,7,3.51,10.55,9.67,10.55,6.75,0,11.08-4.2,11.08-11.9V286Z"/><path d="M1292.22,321.77l-10.35-13.72-10.47,13.72h-7.24l14.13-18.32L1264.84,286h7.23l9.87,12.91,9.8-12.91h7.1l-13.52,17.5,14.26,18.32Z"/><rect class="cls-1" x="303.77" y="282.32" width="232.62" height="4.71"/><rect class="cls-2" x="303.77" y="291.32" width="232.62" height="4.71"/><rect class="cls-3" x="303.77" y="300.32" width="232.62" height="4.71"/><rect class="cls-4" x="303.77" y="309.32" width="232.62" height="4.71"/><rect class="cls-5" x="303.77" y="317.32" width="232.62" height="4.71"/><path d="M423.48,242.92a3.14,3.14,0,0,0-1.62-.9,3.56,3.56,0,0,0-2.79.45,3,3,0,0,0-1.53,2.25,3.21,3.21,0,0,0-.27.81,3.79,3.79,0,0,0-.09.63q-.72-5.94-1.26-11.7a269.64,269.64,0,0,1-.39-31.81l-5.21,7.13q-.36,12.74.38,25a239.33,239.33,0,0,0,4.86,36.54,2.85,2.85,0,0,0,3.06,2.52,3.72,3.72,0,0,0,2.16-1.08,3,3,0,0,0,.9-2.16v-.18a49,49,0,0,1,0-5.94,52.34,52.34,0,0,1,.36-6.12q.36-3.24.9-5.94.54-2.34,1.44-5.76l.18-.18v-.18a3.67,3.67,0,0,0-.09-1.8A3.83,3.83,0,0,0,423.48,242.92Z"/><path d="M523.08,25.24a2.4,2.4,0,0,0-.27-1.08,5.56,5.56,0,0,0-.63-1,2.66,2.66,0,0,0-.9-.72,3.81,3.81,0,0,0-1.08-.36,6.56,6.56,0,0,0-1.08-.09,79.46,79.46,0,0,0-12.6,2.88,86.17,86.17,0,0,0-11.88,4.68q-1.44.72-3.24,1.8a3.17,3.17,0,0,0-2.34.9,5.26,5.26,0,0,0-.45.54q-.27.36-.45.36-2.34,1.44-4.32,2.88a92.34,92.34,0,0,0-10.08,7.38A173.53,173.53,0,0,0,455.4,60.16Q447.3,68.44,439,78.52q-7.38,9-14.76,18.72t-15.12,20.88Q401.4,129.28,396,137.29t-13.86,20.79q-.9,1.26-5.22,7.83t-6.66,10q-4.86-2.16-9.9-4.5-7-3.42-14.76-7.56l-28.8-16.38q-16.92-9.72-29.16-16a446.93,446.93,0,0,0-61.38-27q-14.94-5.22-32-9.72a209.3,209.3,0,0,0-33.12-6.3,203.71,203.71,0,0,0-67,3.06,160.92,160.92,0,0,0-32.22,10.44A160.91,160.91,0,0,0,47,109.84a104.82,104.82,0,0,0-13.68,9.9,92.58,92.58,0,0,0-21.78,26.1A72.62,72.62,0,0,0,4.14,164.2V164a3,3,0,0,1,.09-.72q.09-.36.18-.9a1.38,1.38,0,0,1,.27-.72l.54-2.34q.54-1.8-1.17-2.25a1.65,1.65,0,0,0-2.25,1.17l-.72,2.52a3,3,0,0,1-.09.72q-.09.36-.18.63t-.18.63a2.46,2.46,0,0,0-.09.54A26.6,26.6,0,0,0,0,168.52a38.23,38.23,0,0,0,.36,5.4,13.19,13.19,0,0,0,.54,2.52,11.83,11.83,0,0,0,.9,2.7,2.22,2.22,0,0,0,1.62,1.08,1.6,1.6,0,0,0,2-1.62v-.18a77.24,77.24,0,0,1,9.9-30.6,83.34,83.34,0,0,1,21.06-24.3,109.64,109.64,0,0,1,13.32-9.36,116.06,116.06,0,0,1,14.4-7.38,154.75,154.75,0,0,1,31.14-9.72,196.45,196.45,0,0,1,65.16-2.16,210.55,210.55,0,0,1,32,6.48q15.3,4.32,31.5,10.08,6.66,2.34,15.3,5.76,7.92,3.06,15.3,6.3,15.3,6.66,29.88,14,12.24,6.12,29.34,15.48,24.12,13.32,29.16,16,7.92,4.14,14.94,7.38,4.68,2.16,9.36,4.14-7,10.44-12.24,18-7.92,11.34-14.22,19.8-7.92,10.44-15.3,18.72-9.72,10.44-17.64,15.84a70.76,70.76,0,0,1-21.06,9.9,27.72,27.72,0,0,0-2.88.54l-2.7.54-2.88.18-1.44.18H275.4l-2.88-.18q-.54,0-1.53-.09a2.44,2.44,0,0,1-1.17-.27h-1.44l-1.44-.36a2.87,2.87,0,0,0-1.17-.36,11.77,11.77,0,0,1-1.53-.36,29.18,29.18,0,0,1-9.54-5,21.54,21.54,0,0,1-6.48-8.1v-.18a4.05,4.05,0,0,0-2.07-1.8,3.27,3.27,0,0,0-2.7.09,3.58,3.58,0,0,0-1.89,2.07,3.51,3.51,0,0,0,0,2.7A26.78,26.78,0,0,0,250.38,263,36.5,36.5,0,0,0,262.44,269a7.11,7.11,0,0,0,1.08.27,10.67,10.67,0,0,1,1.17.27,3.86,3.86,0,0,0,1,.18l1.62.36,1.62.18,3.24.36H277l1.62-.18,3.24-.36,3.24-.72a22.91,22.91,0,0,0,3.06-.72,72.57,72.57,0,0,0,22.86-11q8.46-5.76,18.36-16.92,6.84-7.92,15.48-19.26,6.3-8.46,14.22-20,5.58-7.92,12.78-19.08a2.17,2.17,0,0,1,.72.27,2.12,2.12,0,0,0,.9.27,129.71,129.71,0,0,0,16.2,4.86l4.14.9q.9.18,4.14.72,3.78.54,8.46.9,3.06.18,6.84.18c-1.16,6.44-2.13,12.87-3,19.31,1.56-.12,3.32.58,2.8,1.91a1.49,1.49,0,0,0-.11.58c0,.26,0,.53,0,.8a1.35,1.35,0,0,1-1,1.21,13.63,13.63,0,0,1,0,1.69c0,.73-.37,1.44.19,2a1,1,0,0,1-.09,1.57l1.67,1.19q1.15-11.4,3.38-23.78l1.08-6.48a132.63,132.63,0,0,0,21.78-2.16A110.72,110.72,0,0,0,456.48,184a84.46,84.46,0,0,0,7.92-3.6,23,23,0,0,0,6.84-5.94,1.8,1.8,0,1,0-2.88-2.16,16.55,16.55,0,0,1-5.94,4.68,40.38,40.38,0,0,1-7.2,3.24,108.82,108.82,0,0,1-15.84,4,124.64,124.64,0,0,1-20.16,1.62q2.7-12.24,5.94-23.94a334,334,0,0,1,26.46-67,250.33,250.33,0,0,1,18.9-30.6,171.88,171.88,0,0,1,23.4-26.64h.18v-.18q.18,0,.36-.36,1.8-.9,3.06-1.62a93.39,93.39,0,0,1,11-4.14,54.88,54.88,0,0,1,11.34-2,3.41,3.41,0,0,0,2.52-1.44A3.72,3.72,0,0,0,523.08,25.24Zm-76.68,67a356.84,356.84,0,0,0-14.94,33.48q-6.66,18-11.34,34.74-3.42,12.42-5.94,25.38l-7.38-.36a63.36,63.36,0,0,1-7.92-1.08,14.09,14.09,0,0,1-1.8-.27l-2.34-.45-4-.9a133.41,133.41,0,0,1-15.48-4.86.52.52,0,0,1-.36-.18l3.6-5.22q2-2.88,4.14-6.3l3.42-5.4q16.56-24.84,27.54-40.32,16.74-23.76,29.52-38.52,8.28-9.72,16.38-17.82,5-5,9.9-9.36A271.3,271.3,0,0,0,446.4,92.2Z"/><path d="M554.61,173.57c.76.49.93,1.07.52,1.76v.21a94.05,94.05,0,0,1-11.8,14.07,34.23,34.23,0,0,1-7.45,5.8,13.82,13.82,0,0,1-4.35,1.86,18.15,18.15,0,0,1-4.76,1,16.34,16.34,0,0,1-5.18-.83,12.87,12.87,0,0,1-4.55-2.69,18.64,18.64,0,0,1-5.59-8.49q-1-2.9-1.86-6.21-5.8,7.88-10.15,13.25a94.67,94.67,0,0,1-7.66,8.28q-2.07,1.86-4.34,3.73a26.44,26.44,0,0,1-5.38,2.89,9.87,9.87,0,0,1-6.84.42,14,14,0,0,1-3.31-1.86,15.07,15.07,0,0,1-2.07-2.7,19.32,19.32,0,0,1-2.69-5.58q-.82-2.7-1.45-5.59a92.29,92.29,0,0,1-1-23q1.24-18.84,7.86-44.09,2.7-10.35,6.42-21.32,2.28-6.21,3.93-10.56,2.07-5,4.77-10.35A177.22,177.22,0,0,1,498.82,64a67.25,67.25,0,0,1,7.66-8.91,14.26,14.26,0,0,1,2.69-1.86,11.77,11.77,0,0,1,3.31-1.45,6,6,0,0,1,4.35.42,8.64,8.64,0,0,1,3.31,2.69,16.57,16.57,0,0,1,2.07,6.41,35.23,35.23,0,0,1,.42,5.8,100.48,100.48,0,0,1-1.24,11.59A138.74,138.74,0,0,1,515,100.19a179.38,179.38,0,0,1-9.52,20.29q-4.77,9.1-11,19.45a417.67,417.67,0,0,1-24.22,36.85,72.58,72.58,0,0,0,1,15.11,33.43,33.43,0,0,0,1.24,5,17.64,17.64,0,0,0,1.87,4.55,6.55,6.55,0,0,0,2.48,2.9,5.94,5.94,0,0,0,4.14.21q3.93-.83,8.9-5a98.41,98.41,0,0,0,7.66-7.66,115.59,115.59,0,0,0,11.18-15.32c-.42-2.89-.76-5.79-1-8.69q-.83-16.56,5.8-36.64a166.4,166.4,0,0,1,6.62-17.18Q524.28,105,528,97.71a152.62,152.62,0,0,1,9.11-16.15,41.77,41.77,0,0,1,6-7.45,14.69,14.69,0,0,1,2.28-1.86,7.27,7.27,0,0,1,3.52-1,3.87,3.87,0,0,1,2.48.83,4.85,4.85,0,0,1,1.66,1.65,14.83,14.83,0,0,1,1,2.9,38.76,38.76,0,0,1,0,9.94c-.41,2.76-1,5.79-1.65,9.11q-2.09,8.28-5.39,17.59-2.47,7-7,17-3.94,8.68-8.08,16.35a245.7,245.7,0,0,1-17.59,27.94,66.11,66.11,0,0,0,2.27,9.94,21,21,0,0,0,3.52,7,8.88,8.88,0,0,0,6.63,3.52,13.68,13.68,0,0,0,7.86-1.87,30,30,0,0,0,7-5.17q2.9-2.9,6-6.63a83,83,0,0,0,5-7.24v-.21A1.34,1.34,0,0,1,554.61,173.57Zm-76.07-46.06q-6.42,23.82-7.87,42.85a1.79,1.79,0,0,1-.21.83v.21q9.74-14.49,20.7-33.33,5.8-10.56,10.35-19.46a177.48,177.48,0,0,0,9.11-20.08,121.93,121.93,0,0,0,5.59-20.9,60.48,60.48,0,0,0,1-10.56c0-1.93-.08-3.59-.21-5A12.9,12.9,0,0,0,515.59,58a2.41,2.41,0,0,0-.83-.83,1.4,1.4,0,0,0-1,0,9.93,9.93,0,0,0-3.52,2.28,41.28,41.28,0,0,0-6.63,7.87,141.14,141.14,0,0,0-10.55,19q-2.49,5.18-4.56,9.94c-1.1,2.76-2.35,6.14-3.72,10.14Q481.65,115.72,478.54,127.51Zm40.78,5.59q-6.21,18.63-5.59,34.57V170a269,269,0,0,0,14.69-25.25q3.93-7.66,7.46-16.36,4.33-10.14,6.62-16.76a147.85,147.85,0,0,0,4.76-17,82.26,82.26,0,0,0,1.45-8.69,33.55,33.55,0,0,0,.21-8.08,8.36,8.36,0,0,0-.42-1l-.2.21c-.42.27-.9.62-1.45,1a44.28,44.28,0,0,0-5.18,6.63,136.26,136.26,0,0,0-8.49,15.52q-3.72,7.45-7.65,16.35A176.65,176.65,0,0,0,519.32,133.1Z"/><path d="M614.09,174.09a1.29,1.29,0,0,1,0,2.07c-3.32,2.9-5.52,4.76-6.63,5.59a80.05,80.05,0,0,1-6.83,5.17,67.64,67.64,0,0,1-14.9,8.49q-9.53,3.93-17.39,3.73a24.93,24.93,0,0,1-4.55-.42l-2.28-.62a10.33,10.33,0,0,1-2.49-1.24,16,16,0,0,1-6.62-7.25,15,15,0,0,1-1.66-4.76c-.13-1.51-.2-3.1-.2-4.76a22.84,22.84,0,0,1,2.48-9.31,26.83,26.83,0,0,1,5.8-7.25,24.33,24.33,0,0,1,8.07-5c1-.27,1.79-.48,2.48-.62a9.78,9.78,0,0,1,3.52.21,6.18,6.18,0,0,1,3.52,5.8,6.81,6.81,0,0,1-.62,2.69c-.41,1-.76,1.72-1,2.27a11.79,11.79,0,0,1-3.11,3.73,18.4,18.4,0,0,1-8.28,4.35,23.51,23.51,0,0,1-7,.62,18.76,18.76,0,0,0-.2,2.69,11.45,11.45,0,0,0,.2,3.73,8.31,8.31,0,0,0,1,3.1,12.31,12.31,0,0,0,4.55,5.18q2.07,1.65,6.83,2.27a37.93,37.93,0,0,0,15.94-1.86Q599,187.55,612,174.09A1.29,1.29,0,0,1,614.09,174.09Zm-45.34-10.76A20.06,20.06,0,0,0,558,173.26a2.54,2.54,0,0,0-.62,1.24,26.44,26.44,0,0,0,5-.82,14.38,14.38,0,0,0,6.41-3.94,10.91,10.91,0,0,0,2.07-2.9c.14-.41.35-1,.62-1.65a6,6,0,0,0,.21-1.45,1.24,1.24,0,0,0-.62-1,4,4,0,0,0-.83.21A3.31,3.31,0,0,0,568.75,163.33Z"/><path d="M658.51,151.56a9.62,9.62,0,0,0-1.82-6.52,8.14,8.14,0,0,0-5.47-2.86c-1.57-.17-3.91.26-7,1.3a38.87,38.87,0,0,0-7,3.65,59.53,59.53,0,0,0-12,9.63,40.37,40.37,0,0,0-8.6,12.77,6.49,6.49,0,0,0-.78,2.86c-.17.7-.17,1.13,0,1.31h.26q.26.26,1.05,0a9.81,9.81,0,0,0,3.12-.79q2.09-1,6.77-3.9,2.09-1.31,7-4.69a81.57,81.57,0,0,1,7.55-4.43,28.49,28.49,0,0,1,3.91-2.08,17.47,17.47,0,0,1,5.47-1.05,5.72,5.72,0,0,1,3.64,2.09,8.88,8.88,0,0,1,1.31,2.86,21.06,21.06,0,0,1,.52,4.95,60.19,60.19,0,0,1-.78,8.6,271.06,271.06,0,0,1-6.78,33.34q-3.64,14.07-9.9,32.3-13.28,38.28-26.82,62.25a137.46,137.46,0,0,1-9.64,14.33,57.84,57.84,0,0,1-6,6.51,28.24,28.24,0,0,1-7.82,5.73,18.94,18.94,0,0,1-5,1.3,12.7,12.7,0,0,1-6-.78,9.1,9.1,0,0,1-4.42-4.43,14,14,0,0,1-1.83-4.95,37.55,37.55,0,0,1-.52-9.11,58.92,58.92,0,0,1,1.3-8.86A128.25,128.25,0,0,1,584,270.59a177.2,177.2,0,0,1,18.49-28.39A238,238,0,0,1,651,195.31q10.93-8.07,28.13-18.75,18-10.94,27.87-18.23a1.73,1.73,0,0,1,2.6.26c.69.87.52,1.65-.52,2.34v.26q-4.95,3.66-28.39,18-17.71,10.94-27.87,18.49a206.73,206.73,0,0,0-46.36,47.41,219.35,219.35,0,0,0-17.2,28.13q-7.8,16.67-10.41,31-1.83,9.38-.53,15.37a6.34,6.34,0,0,0,1.05,2.87,2.48,2.48,0,0,0,1.3,1.56,5.29,5.29,0,0,0,2.34,0,6.5,6.5,0,0,0,2.87-.78q4.95-2.35,10.94-10.16a92.05,92.05,0,0,0,8.85-13.55,324.57,324.57,0,0,0,14.59-29.95q6.25-14.33,12-31,4.95-14.06,9.9-31.77,5.73-20.58,7.81-32.3a48.26,48.26,0,0,0,.79-7.82,20,20,0,0,0-.26-3.64v-.79a7.94,7.94,0,0,0-2.87.79,29.81,29.81,0,0,0-3.65,1.56q-2.59,1.56-6.77,4.17a80.17,80.17,0,0,0-7,4.95q-5.48,3.65-7.29,4.68a21.85,21.85,0,0,1-5,1.83,9.67,9.67,0,0,1-3.13,0,6.16,6.16,0,0,1-3.52-1.57,6.61,6.61,0,0,1-2-3.38,8.58,8.58,0,0,1-.52-3.13,15.56,15.56,0,0,1,1-5.21,47.48,47.48,0,0,1,9.9-15.1A57.16,57.16,0,0,1,634,141.4a42.83,42.83,0,0,1,8.33-3.65c1.56-.35,3-.61,4.43-.78a13,13,0,0,1,5.21,0,12.66,12.66,0,0,1,9.9,15.37c-.35,1-1.14,1.39-2.35,1C658.68,153.21,658.34,152.6,658.51,151.56Z"/><path d="M761.2,163.26l1.14.73a1.17,1.17,0,0,1,.52,1.76v.2a99.55,99.55,0,0,1-8.9,11.39,98,98,0,0,1-10.15,9.93,97.49,97.49,0,0,1-11.59,8.7A62.6,62.6,0,0,1,719,202a23.17,23.17,0,0,1-7.65,1,8.37,8.37,0,0,1-4.14-1,6,6,0,0,1-2.07-1.45c-.28-.27-.56-.55-.83-.83A5,5,0,0,1,704,199a1.29,1.29,0,0,0-.31-.52,9,9,0,0,1-.42-4.76,12.83,12.83,0,0,1,1-3.93,42.73,42.73,0,0,1,3.31-6.83q1.24-2.07,3.73-6.11t3.72-5.9a28.57,28.57,0,0,1,1.45-2.9c.41-1.1.69-1.93.83-2.48h-1.66a6,6,0,0,0-1.45.21,13.28,13.28,0,0,1-1.86.2l-3.73.42a34.54,34.54,0,0,1-7.86-.83,13.46,13.46,0,0,1-4.14-1.45,9.34,9.34,0,0,1-3.73-3.11,7.78,7.78,0,0,1-1.65-5.38,18.74,18.74,0,0,1,.82-4.14,40.23,40.23,0,0,1,7.87-13.25,67.2,67.2,0,0,1,11.18-9.72c1.24-.83,2.34-1.52,3.31-2.07l2.07-.83a18.88,18.88,0,0,1,2.28-.62,10.53,10.53,0,0,1,4.76.62,8.11,8.11,0,0,1,3.93,3.52,8.39,8.39,0,0,1,.83,4.55,15.34,15.34,0,0,1-1,4.14,40.5,40.5,0,0,1-4.14,6.42q-1.86,2.28-14.07,15.94a17.59,17.59,0,0,1,2.48-.21,8,8,0,0,1,1.66-.31c.69-.07,1.38-.17,2.07-.31h2.28a6.88,6.88,0,0,1,2.69.83,5,5,0,0,1,2.89,2.89,8.5,8.5,0,0,1,.21,3.32,31.41,31.41,0,0,1-1.45,4.14,20.86,20.86,0,0,1-1.86,3.31q-1.25,2.28-3.83,6.21c-1.73,2.62-3,4.55-3.83,5.79a62.87,62.87,0,0,0-3.1,5.8c-1,2.35-1.39,4.07-1.25,5.18.28,1.38,1.52,2.2,3.73,2.48a14.6,14.6,0,0,0,6.42-.21A47.59,47.59,0,0,0,731,193.69a76.45,76.45,0,0,0,11.28-8.07,104.55,104.55,0,0,0,10-9.94,92.54,92.54,0,0,0,8.08-11.38Zm-63.34-6q1,1.45,4.35,2.28a13.19,13.19,0,0,0,3.52.41q3.51-3.52,6.21-6.62a117.63,117.63,0,0,0,9.1-10.77,15.88,15.88,0,0,0,2.9-6c.55-2.21.35-3.86-.62-5s-2.14-1.31-3.93-1a3.66,3.66,0,0,0-1,.2,4.64,4.64,0,0,1-1.24.62c-.83.56-1.73,1.18-2.69,1.87a54.66,54.66,0,0,0-9.94,8.9q-5,6-6.41,11.18a10.94,10.94,0,0,0-.62,2.69A2.29,2.29,0,0,0,697.86,157.26Z"/><path d="M821.23,162.85l1,.83a1.17,1.17,0,0,1,.2,1.86,39.44,39.44,0,0,1-5.59,5.38,24.58,24.58,0,0,1-7,3.73,18.59,18.59,0,0,1-15.32-.83q-3.93-1.65-12.21-9.11l-.21-.21-.21-.2.42,2.89a46.24,46.24,0,0,1,0,6A26.41,26.41,0,0,1,779,184.38a16.91,16.91,0,0,1-3.93,4.76,13.23,13.23,0,0,1-6,3.1,10.14,10.14,0,0,1-3.52-.21,8.19,8.19,0,0,1-3.52-1.24,13.41,13.41,0,0,1-4.35-5.17,21.27,21.27,0,0,1-1.86-12.42,34.69,34.69,0,0,1,3.31-11.39,33.66,33.66,0,0,1,3.31-5.17,12.28,12.28,0,0,1,2.49-2.28,9.57,9.57,0,0,1,3.72-1.86l.42.2a2.4,2.4,0,0,1,2.69,0l1.24.63a2.43,2.43,0,0,0,.73.41,2.49,2.49,0,0,1,.72.41,19.8,19.8,0,0,1,2.69,1.87,20.09,20.09,0,0,1,2.07,2.48,38.15,38.15,0,0,1,4.76,4.35q7.24,7,11.39,9.11a16.84,16.84,0,0,0,13.87.62,18.19,18.19,0,0,0,6-3.52,30.5,30.5,0,0,0,5.17-5.18Zm-42.43,9.93q.62-6-1.45-9.73a10.41,10.41,0,0,0-3.11-3.31,5.17,5.17,0,0,0-1.86-1,5.67,5.67,0,0,1-1.24-.42h-.62a6.69,6.69,0,0,0-.42,1.66,16,16,0,0,1-2.48,3.93,18.79,18.79,0,0,1-3.31,3.31,3.36,3.36,0,0,0-1.25.83,26.17,26.17,0,0,0-1.65,6,17.31,17.31,0,0,0,1,9.1q2.07,4.56,6,4.35a8.62,8.62,0,0,0,3.93-1.66,11.56,11.56,0,0,0,3.31-3.51A20.09,20.09,0,0,0,778.8,172.78ZM767,160.36a21.88,21.88,0,0,0-2.49,3.73,7.12,7.12,0,0,0,1.45-1.45,16.44,16.44,0,0,0,1.45-2.69h-.21Zm0-4.14a2.88,2.88,0,0,0-.62-.41Z"/><path d="M1043.55,3.24a2.4,2.4,0,0,0-.27-1.08,5.56,5.56,0,0,0-.63-1,2.66,2.66,0,0,0-.9-.72,3.81,3.81,0,0,0-1.08-.36,6.56,6.56,0,0,0-1.08-.09A79.46,79.46,0,0,0,1027,2.88a86.17,86.17,0,0,0-11.88,4.68q-1.44.72-3.24,1.8a3.17,3.17,0,0,0-2.34.9,5.26,5.26,0,0,0-.45.54q-.27.36-.45.36-2.34,1.44-4.32,2.88a92.34,92.34,0,0,0-10.08,7.38,173.53,173.53,0,0,0-18.36,16.74q-8.1,8.28-16.38,18.36-7.38,9-14.76,18.72T929.61,96.12q-7.74,11.16-13.14,19.17t-13.86,20.79q-.9,1.26-5.22,7.83t-6.66,10q-4.86-2.16-9.9-4.5-7-3.42-14.76-7.56-4.71-2.68-25.75-14.64c-1.24.22-2.5.39-3.76.54a3.07,3.07,0,0,0-.57,1.93,10.57,10.57,0,0,0,.14,2.43q22.39,12.36,27.24,15,7.92,4.14,14.94,7.38,4.68,2.16,9.36,4.14-7,10.44-12.24,18-7.92,11.34-14.22,19.8-7.92,10.44-15.3,18.72-9.72,10.44-17.64,15.84a70.76,70.76,0,0,1-21.06,9.9,27.72,27.72,0,0,0-2.88.54l-2.7.54-2.88.18-1.44.18h-1.44L793,242.1q-.54,0-1.53-.09a2.44,2.44,0,0,1-1.17-.27h-1.44l-1.44-.36a2.87,2.87,0,0,0-1.17-.36,11.77,11.77,0,0,1-1.53-.36,29.18,29.18,0,0,1-9.54-5,21.54,21.54,0,0,1-6.48-8.1v-.18a4.05,4.05,0,0,0-2.07-1.8,3.27,3.27,0,0,0-2.7.09A3.58,3.58,0,0,0,762,227.7a3.51,3.51,0,0,0,0,2.7A26.78,26.78,0,0,0,770.85,241,36.5,36.5,0,0,0,782.91,247a7.11,7.11,0,0,0,1.08.27,10.67,10.67,0,0,1,1.17.27,3.86,3.86,0,0,0,1,.18l1.62.36,1.62.18,3.24.36h4.86l1.62-.18,3.24-.36,3.24-.72a22.91,22.91,0,0,0,3.06-.72,72.57,72.57,0,0,0,22.86-11q8.46-5.76,18.36-16.92,6.84-7.92,15.48-19.26,6.3-8.46,14.22-20,5.58-7.92,12.78-19.08a2.17,2.17,0,0,1,.72.27,2.12,2.12,0,0,0,.9.27,129.71,129.71,0,0,0,16.2,4.86l4.14.9q.9.18,4.14.72,3.78.54,8.46.9,3.06.18,6.84.18-2.89,16.16-4.38,32.3h.09a.5.5,0,0,1,.26.92s0,0,0,.07v.69a.54.54,0,0,1,0,.66.65.65,0,0,1,0,.14,6.67,6.67,0,0,0-.11,1.34l.36-.08a4.11,4.11,0,0,1,3.62-1.25l.33,0q1.14-13.45,3.8-28.34l1.08-6.48a132.63,132.63,0,0,0,21.78-2.16A110.72,110.72,0,0,0,977,162a84.46,84.46,0,0,0,7.92-3.6,23,23,0,0,0,6.84-5.94,1.8,1.8,0,0,0-2.88-2.16,16.55,16.55,0,0,1-5.94,4.68,40.38,40.38,0,0,1-7.2,3.24,108.82,108.82,0,0,1-15.84,4,124.64,124.64,0,0,1-20.16,1.62q2.7-12.24,5.94-23.94a334,334,0,0,1,26.46-67A250.33,250.33,0,0,1,991,42.3a171.88,171.88,0,0,1,23.4-26.64h.18v-.18q.18,0,.36-.36,1.8-.9,3.06-1.62a93.39,93.39,0,0,1,11-4.14,54.88,54.88,0,0,1,11.34-2,3.41,3.41,0,0,0,2.52-1.44A3.72,3.72,0,0,0,1043.55,3.24Zm-76.68,67a356.84,356.84,0,0,0-14.94,33.48q-6.66,18-11.34,34.74-3.42,12.42-5.94,25.38l-7.38-.36a63.36,63.36,0,0,1-7.92-1.08,14.09,14.09,0,0,1-1.8-.27l-2.34-.45-4-.9a133.41,133.41,0,0,1-15.48-4.86.52.52,0,0,1-.36-.18l3.6-5.22q2-2.88,4.14-6.3l3.42-5.4q16.56-24.84,27.54-40.32,16.74-23.76,29.52-38.52,8.28-9.72,16.38-17.82,5-5,9.9-9.36A271.3,271.3,0,0,0,966.87,70.2Z"/><path d="M1084.81,156.85l1.24.62a1.22,1.22,0,0,1,.62,1.86h-.2q-7,11.8-15.74,17a23.55,23.55,0,0,1-11.38,3.72,26.77,26.77,0,0,1-6.42-1,30.15,30.15,0,0,1-2.9-1.45,29.35,29.35,0,0,1-2.69-2.07q-2.47-2.28-6.41-9.73-1.46-2.28-2.49-2.28a5,5,0,0,0-2.07.62,9,9,0,0,0-2.28,1.45Q1032,167,1026,173.41a10.27,10.27,0,0,1-2.28,2.07,3.58,3.58,0,0,1-1.65,1c-.55.14-1,.28-1.45.42a4,4,0,0,1-2.07-.62,5.77,5.77,0,0,1-1.66-2.28,7.67,7.67,0,0,1-.62-1.86c-.14-.83-.28-1.87-.41-3.11a33.62,33.62,0,0,0-.21-5.17,4.57,4.57,0,0,0-.62-1.66,2.05,2.05,0,0,0-1-.83l-.21-.21h-1c-.69.14-1.52.35-2.48.63a32,32,0,0,0-4.76,2.48,69.67,69.67,0,0,0-9.11,6.62q-2.07,1.88-8.69,7.46c-1.94,1.65-3.45,2.89-4.56,3.72a5.18,5.18,0,0,1-1.45.83,1.15,1.15,0,0,1-.82.41,3.65,3.65,0,0,1-1.66.42,3.23,3.23,0,0,1-1.66-.83c-.13-.14-.27-.28-.41-.41l-.21-.21a1.52,1.52,0,0,0-.2-.62,4.57,4.57,0,0,1-.21-1.45,9.45,9.45,0,0,1,.21-1.86,53,53,0,0,1,1.86-5.8q1.25-3.11,2.28-5.38,1.65-3.73,3.93-8.08a2.53,2.53,0,0,1-.42-3.51,10.68,10.68,0,0,0,1.66-2.28l1.66-2.49q1.86-2.26,3.52-4.55t3.93-.41A2.34,2.34,0,0,1,996,149a98.89,98.89,0,0,1-4.76,10.56l-5.18,10.14a4.52,4.52,0,0,0-.62,1.14,8.51,8.51,0,0,1-.72,1.35,5.41,5.41,0,0,0-.63,1.13q-.3.73-.51,1.35c-.69,1.38-1.17,2.42-1.45,3.1.83-.55,1.93-1.31,3.31-2.27q2.89-1.86,9.11-6.83l9.11-6.83a48.33,48.33,0,0,1,5-3.52,14.41,14.41,0,0,1,2.9-1.45,5,5,0,0,1,1.86-.42h1.25a2.46,2.46,0,0,0,1,.42,5.87,5.87,0,0,1,3.52,2.27,9.56,9.56,0,0,1,1.86,3.52,36,36,0,0,1,.42,6.21V172a20.58,20.58,0,0,0,2.17-1.35,34,34,0,0,0,2.8-2.17q1.44-1.24,3.2-2.8c1.17-1,2.11-1.82,2.8-2.38a20.06,20.06,0,0,1,2.48-1.86A7,7,0,0,1,1038,160a3.61,3.61,0,0,1,2.07-.2,6.39,6.39,0,0,1,2.07.82,10.71,10.71,0,0,1,2.69,2.28,50.91,50.91,0,0,1,3.52,5,20.34,20.34,0,0,0,2.9,4.14,9.34,9.34,0,0,0,3.51,3.1,10.4,10.4,0,0,0,4.77,1.66c2.89.41,6.21-.41,9.93-2.48q8.9-5,14.7-16.15C1084.6,157.26,1084.81,156.85,1084.81,156.85Zm-64,15.32h0Z"/><path d="M1153.94,157.88a1.32,1.32,0,0,1,.42,1.87,49.53,49.53,0,0,1-12,12q-8.28,5.59-16.35,5.8a12.08,12.08,0,0,1-4.56-.42,13.83,13.83,0,0,1-4.34-2.07,13,13,0,0,1-5.8-7.45,24.17,24.17,0,0,1-1-8.69q-9.52,10.56-11.18,12.21a60.87,60.87,0,0,1-4.76,4.35,22.11,22.11,0,0,1-6.42,3.31,7.1,7.1,0,0,1-4.14,0,7.47,7.47,0,0,1-3.93-2.69,11.11,11.11,0,0,1-1.45-3.93,13.8,13.8,0,0,1-.21-2.28,8.76,8.76,0,0,0,.21-1.66,29.2,29.2,0,0,1,5.59-12.62,46.92,46.92,0,0,1,9.52-9.32,44.18,44.18,0,0,1,11.59-6.42,21.45,21.45,0,0,1,6.63-1.65,6.78,6.78,0,0,1,3.93.62,4,4,0,0,1,1.86,1.86,4.87,4.87,0,0,1,.21,2.49c-.14.82-.69,1.17-1.66,1-.69,0-1.1-.41-1.24-1.24v-.21a.85.85,0,0,0-.21-.62c0-.14-.13-.27-.41-.41a5,5,0,0,0-2.07,0,18.79,18.79,0,0,0-5.38,2.07,46.09,46.09,0,0,0-18.22,15.11,25.17,25.17,0,0,0-4.76,10.14,10.12,10.12,0,0,1-.21,1.24v1a4,4,0,0,0,.42,1.86,5.18,5.18,0,0,0,1.24,1.24,7.55,7.55,0,0,0,1.86.21,16.84,16.84,0,0,0,5.18-2.07,35,35,0,0,0,4.76-3.73,60.75,60.75,0,0,0,14.9-19.87,2.5,2.5,0,0,1,3.94-.62,2.59,2.59,0,0,1,1,2.9,36.74,36.74,0,0,0-1.45,7.66,20,20,0,0,0,.42,7.24,8.35,8.35,0,0,0,3.72,5.18,10.79,10.79,0,0,0,6.42,2.07q6.82,0,14.49-4.56a52.64,52.64,0,0,0,11.59-10.76A1.17,1.17,0,0,1,1153.94,157.88Z"/><path d="M1152.08,160.16q7.86-8.49,14.69-17.18a223.36,223.36,0,0,0,12.84-18.42,181.33,181.33,0,0,0,10.76-19.67A163.21,163.21,0,0,0,1198.65,84q1-3.93,1.45-5.38,1-4.14,1.24-5.38c.69-3,1.11-4.83,1.25-5.38.13-1.93.2-3.66.2-5.18a5.9,5.9,0,0,0-1.24-3.72,2,2,0,0,0-1-.83h-1a2.29,2.29,0,0,0-1.45.83l-1.86,1.86a38.13,38.13,0,0,0-3.52,4.14,139.34,139.34,0,0,0-11.18,19q-4.76,9.52-9.11,20.5a320.48,320.48,0,0,0-13.24,43.05q-1.24,5.59-2.28,11a45.58,45.58,0,0,0-.83,5.39q-.21,2.9-.21,5.58c0,1.94.07,3.66.21,5.18.14,1,.28,1.73.41,2.28l.21.2h-.21l1-.2a10.79,10.79,0,0,0,1.86-1.25,20.31,20.31,0,0,0,3.52-3.51A51.77,51.77,0,0,0,1169,163a46.58,46.58,0,0,0,4-10,20.9,20.9,0,0,0,.83-5.17v-.41a1.89,1.89,0,0,0,.42.31,1.39,1.39,0,0,0,.62.1v-.21a7.1,7.1,0,0,0-1.24,1.87,9.74,9.74,0,0,0,.62,9.72q2.26,3.94,8.28,6a28.11,28.11,0,0,0,10.76,1.24,46.51,46.51,0,0,0,10.56-2.69,36.3,36.3,0,0,0,9.11-6,1.38,1.38,0,0,1,2.07.2,1.18,1.18,0,0,1-.21,1.87,49.19,49.19,0,0,1-9.94,6.21,33.38,33.38,0,0,1-11.38,2.69,34.79,34.79,0,0,1-11.8-1.25,23.54,23.54,0,0,1-5.38-2.48,12.9,12.9,0,0,1-4.35-4.35,10.93,10.93,0,0,1-2-6,16.71,16.71,0,0,1,.93-6.21,9.16,9.16,0,0,1,1.87-3.1,5.18,5.18,0,0,1,1.24-.63,2,2,0,0,1,1.24,0,2.25,2.25,0,0,1,1,.73,3.55,3.55,0,0,1,.62,1.34,1.91,1.91,0,0,0,.2.83,32,32,0,0,1-.82,6.21,48.92,48.92,0,0,1-3.73,11.18,47.3,47.3,0,0,1-5.8,10.14,28.85,28.85,0,0,1-4.14,4.76,11.51,11.51,0,0,1-2.89,1.87,6.12,6.12,0,0,1-4.56.62c-.55-.14-1-.28-1.45-.42a3.61,3.61,0,0,1-1-1,4.91,4.91,0,0,1-1.45-2.07c-.28-1-.55-2.07-.83-3.31-.13-1.66-.21-3.73-.21-6.21,0-1.79.08-3.73.21-5.8a56.72,56.72,0,0,1,.83-6q1-5.59,2.28-11.18a318.27,318.27,0,0,1,13.24-43.88,212.46,212.46,0,0,1,9.53-21.12,125.87,125.87,0,0,1,12-19.87q2.07-2.69,3.73-4.55a16.19,16.19,0,0,1,2.48-2.07,19.18,19.18,0,0,1,3.11-2.07,6,6,0,0,1,1.45-.21h1.24a5.65,5.65,0,0,1,2.07.41,9.16,9.16,0,0,1,3.52,2.49,12.93,12.93,0,0,1,2.07,6.83,38,38,0,0,1-1.45,12l-1.45,5.8q-.42,1.45-1.66,5.38a179.36,179.36,0,0,1-20.28,41.4,207.82,207.82,0,0,1-13.66,18.43q-7.26,8.49-15.53,16.76a1.13,1.13,0,0,1-1.86.11A1.2,1.2,0,0,1,1152.08,160.16Z"/><path d="M1263.65,157.16a1.28,1.28,0,0,1,.21,2,126.49,126.49,0,0,1-17.39,14.29,102.39,102.39,0,0,1-9.73,6,55.38,55.38,0,0,1-10.56,4.35,19.8,19.8,0,0,1-6.21.62,14.48,14.48,0,0,1-6.41-1.86,7.08,7.08,0,0,1-2.7-3.32,10.59,10.59,0,0,1-.62-3.72,29.72,29.72,0,0,1,.83-6.21q1.25-3.93,3.11-8.49a2.05,2.05,0,0,1-1.87-.41,2.15,2.15,0,0,1-.2-2.9c2.9-3.59,5.51-6.9,7.86-9.94,1.25-1.51,2.62-1.72,4.14-.62a2.7,2.7,0,0,1,1.24,2.69v.21c-.13.55-.34,1.24-.62,2.07-.13.28-.34.76-.62,1.45s-.62,1.59-1,2.69l-1.24,2.48a13.67,13.67,0,0,0-1,2.49q-3.1,6.82-4.14,9.93a20.93,20.93,0,0,0-1,4.56,6.21,6.21,0,0,0,.2,1.86,2.77,2.77,0,0,0,.62,1q3.1,2.48,8.9,1.65a32.18,32.18,0,0,0,10.15-3.31,57.14,57.14,0,0,0,9.52-5.38,75.15,75.15,0,0,0,8.9-6.42,59.86,59.86,0,0,0,7.87-7.66A1.13,1.13,0,0,1,1263.65,157.16Zm-37.47-12.53a1.88,1.88,0,0,1-2.9-.82,2,2,0,0,1,.21-2.28l.21-.41a6.93,6.93,0,0,0,1-2.28,11.07,11.07,0,0,0,.62-2.9,3.23,3.23,0,0,1,1.45-2.28,3.8,3.8,0,0,1,2.69-.62,3.16,3.16,0,0,1,2.28,1.45,3.75,3.75,0,0,1,.62,2.69c-.14.42-.28.83-.41,1.24l-.21.21a38.05,38.05,0,0,1-2.28,3.11A15,15,0,0,1,1226.18,144.63Z"/><path d="M1262.62,162.23l-1.14-.83a1.15,1.15,0,0,1-.31-1.86A371,371,0,0,0,1281.45,126a262.61,262.61,0,0,0,16.15-35.6,122.2,122.2,0,0,0,5.59-18.63,91.09,91.09,0,0,0,1.86-9.31q.21-2.49.21-4.56a14.19,14.19,0,0,0-.21-4.35c-.14-.68-.28-1-.41-1l.2.21h.21a4.36,4.36,0,0,0-1,.82,10.12,10.12,0,0,0-1.45,1.25,57.21,57.21,0,0,0-5.59,7.45q-4.14,6.82-9.11,17.18t-8.07,17.8q-3.32,8.28-6.42,18.42-6.63,20.91-7.87,37.68a67,67,0,0,0,1.25,18.84,7,7,0,0,0,.62,2.07,23,23,0,0,1,.62,2.27,16.52,16.52,0,0,0,1.86,3.52,8.92,8.92,0,0,0,2.69,2.49,7.18,7.18,0,0,0,3.93.62q3.74-.21,8.28-3.32a38.18,38.18,0,0,0,7.25-6.41,80.43,80.43,0,0,0,11.8-15.32v-.21a1.33,1.33,0,0,1,2-.31,1.36,1.36,0,0,1,.52,2h-.2a136.11,136.11,0,0,1-12.22,15.52,47.16,47.16,0,0,1-7.45,6.83,27.76,27.76,0,0,1-9.52,4.77,10.61,10.61,0,0,1-11-3.32,17.22,17.22,0,0,1-2.9-4.76c-.14-.27-.49-1.17-1-2.69-.14-.41-.34-1.24-.62-2.48a66.52,66.52,0,0,1-1.65-20.29q.83-17,7.86-39.33,2.7-8.9,6.83-18.84,3.1-7.65,8.08-18a197.24,197.24,0,0,1,9.73-17.6,62.51,62.51,0,0,1,6.21-8.28A13.94,13.94,0,0,1,1300.5,49a9.28,9.28,0,0,1,3.31-1.66,5.25,5.25,0,0,1,2.48.21,3.91,3.91,0,0,1,2.49,1.45,7.38,7.38,0,0,1,1.45,3.31,17.78,17.78,0,0,1,.41,5.59,34.9,34.9,0,0,1-.41,5.18c-.42,3-1,6.35-1.87,9.93a168.89,168.89,0,0,1-6.21,19A252.45,252.45,0,0,1,1285,127.87a311.55,311.55,0,0,1-21.53,33.32Z"/><path d="M1363.84,158.09a1.29,1.29,0,0,1,0,2.07c-3.32,2.9-5.52,4.76-6.63,5.59a80.05,80.05,0,0,1-6.83,5.17,67.64,67.64,0,0,1-14.9,8.49q-9.52,3.93-17.39,3.73a24.93,24.93,0,0,1-4.55-.42l-2.28-.62a10.33,10.33,0,0,1-2.49-1.24,16,16,0,0,1-6.62-7.25,15,15,0,0,1-1.66-4.76c-.13-1.51-.2-3.1-.2-4.76a23,23,0,0,1,2.48-9.31,26.83,26.83,0,0,1,5.8-7.25,24.33,24.33,0,0,1,8.07-5c1-.27,1.79-.48,2.49-.62a9.74,9.74,0,0,1,3.51.21,6.69,6.69,0,0,1,2.7,2.48,6.59,6.59,0,0,1,.82,3.32,6.81,6.81,0,0,1-.62,2.69c-.41,1-.76,1.72-1,2.27a11.79,11.79,0,0,1-3.11,3.73,18.4,18.4,0,0,1-8.28,4.35,23.51,23.51,0,0,1-7,.62,18.76,18.76,0,0,0-.2,2.69,11.45,11.45,0,0,0,.2,3.73,8.31,8.31,0,0,0,1,3.1,12.31,12.31,0,0,0,4.55,5.18q2.07,1.65,6.83,2.27a37.93,37.93,0,0,0,15.94-1.86q14.3-5.17,27.33-18.63A1.29,1.29,0,0,1,1363.84,158.09Zm-45.34-10.76a20.06,20.06,0,0,0-10.76,9.93,2.54,2.54,0,0,0-.62,1.24,26.44,26.44,0,0,0,5-.82,14.38,14.38,0,0,0,6.41-3.94,10.91,10.91,0,0,0,2.07-2.9c.14-.41.35-1,.62-1.65a6,6,0,0,0,.21-1.45,1.24,1.24,0,0,0-.62-1,4,4,0,0,0-.83.21A3.31,3.31,0,0,0,1318.5,147.33Z"/><path d="M943.65,228.86a3.83,3.83,0,0,0-1-1.62,3.14,3.14,0,0,0-1.62-.9,3.56,3.56,0,0,0-2.79.45,3,3,0,0,0-1.53,2.25,3.21,3.21,0,0,0-.27.81,3.79,3.79,0,0,0-.09.63q-.72-5.94-1.26-11.7a269.64,269.64,0,0,1-.39-31.81l-4,5.54a.43.43,0,0,1,.16.5,60.52,60.52,0,0,0-1.38,7.32.52.52,0,0,1-.06.15q-.07,9.45.49,18.66a239.33,239.33,0,0,0,4.86,36.54,2.85,2.85,0,0,0,3.06,2.52,3.72,3.72,0,0,0,2.16-1.08,3,3,0,0,0,.9-2.16v-.18a49,49,0,0,1,0-5.94,52.34,52.34,0,0,1,.36-6.12q.36-3.24.9-5.94.54-2.34,1.44-5.76l.18-.18v-.18A3.67,3.67,0,0,0,943.65,228.86Z"/><path d="M424.48,243.92a3.14,3.14,0,0,0-1.62-.9,3.56,3.56,0,0,0-2.79.45,3,3,0,0,0-1.53,2.25,3.21,3.21,0,0,0-.27.81,3.79,3.79,0,0,0-.09.63q-.72-5.94-1.26-11.7a269.64,269.64,0,0,1-.39-31.81l-5.21,7.13q-.36,12.74.38,25a239.33,239.33,0,0,0,4.86,36.54,2.85,2.85,0,0,0,3.06,2.52,3.72,3.72,0,0,0,2.16-1.08,3,3,0,0,0,.9-2.16v-.18a49,49,0,0,1,0-5.94,52.34,52.34,0,0,1,.36-6.12q.36-3.24.9-5.94.54-2.34,1.44-5.76l.18-.18v-.18a3.67,3.67,0,0,0-.09-1.8A3.83,3.83,0,0,0,424.48,243.92Z"/><path d="M524.08,26.24a2.4,2.4,0,0,0-.27-1.08,5.56,5.56,0,0,0-.63-1,2.66,2.66,0,0,0-.9-.72,3.81,3.81,0,0,0-1.08-.36,6.56,6.56,0,0,0-1.08-.09,79.46,79.46,0,0,0-12.6,2.88,86.17,86.17,0,0,0-11.88,4.68q-1.44.72-3.24,1.8a3.17,3.17,0,0,0-2.34.9,5.26,5.26,0,0,0-.45.54q-.27.36-.45.36-2.34,1.44-4.32,2.88a92.34,92.34,0,0,0-10.08,7.38A173.53,173.53,0,0,0,456.4,61.16Q448.3,69.44,440,79.52q-7.38,9-14.76,18.72t-15.12,20.88Q402.4,130.28,397,138.29t-13.86,20.79q-.9,1.26-5.22,7.83t-6.66,10q-4.86-2.16-9.9-4.5-7-3.42-14.76-7.56l-28.8-16.38q-16.92-9.72-29.16-16a446.93,446.93,0,0,0-61.38-27q-14.94-5.22-32-9.72a209.3,209.3,0,0,0-33.12-6.3,203.71,203.71,0,0,0-67,3.06,160.92,160.92,0,0,0-32.22,10.44A160.91,160.91,0,0,0,48,110.84a104.82,104.82,0,0,0-13.68,9.9,92.58,92.58,0,0,0-21.78,26.1A72.62,72.62,0,0,0,5.14,165.2V165a3,3,0,0,1,.09-.72q.09-.36.18-.9a1.38,1.38,0,0,1,.27-.72l.54-2.34q.54-1.8-1.17-2.25a1.65,1.65,0,0,0-2.25,1.17l-.72,2.52a3,3,0,0,1-.09.72q-.09.36-.18.63t-.18.63a2.46,2.46,0,0,0-.09.54A26.6,26.6,0,0,0,1,169.52a38.23,38.23,0,0,0,.36,5.4,13.19,13.19,0,0,0,.54,2.52,11.83,11.83,0,0,0,.9,2.7,2.22,2.22,0,0,0,1.62,1.08,1.6,1.6,0,0,0,2-1.62v-.18a77.24,77.24,0,0,1,9.9-30.6,83.34,83.34,0,0,1,21.06-24.3,109.64,109.64,0,0,1,13.32-9.36,116.06,116.06,0,0,1,14.4-7.38,154.75,154.75,0,0,1,31.14-9.72,196.45,196.45,0,0,1,65.16-2.16,210.55,210.55,0,0,1,32,6.48q15.3,4.32,31.5,10.08,6.66,2.34,15.3,5.76,7.92,3.06,15.3,6.3,15.3,6.66,29.88,14,12.24,6.12,29.34,15.48,24.12,13.32,29.16,16,7.92,4.14,14.94,7.38,4.68,2.16,9.36,4.14-7,10.44-12.24,18-7.92,11.34-14.22,19.8-7.92,10.44-15.3,18.72-9.72,10.44-17.64,15.84a70.76,70.76,0,0,1-21.06,9.9,27.72,27.72,0,0,0-2.88.54l-2.7.54-2.88.18-1.44.18H276.4l-2.88-.18q-.54,0-1.53-.09a2.44,2.44,0,0,1-1.17-.27h-1.44l-1.44-.36a2.87,2.87,0,0,0-1.17-.36,11.77,11.77,0,0,1-1.53-.36,29.18,29.18,0,0,1-9.54-5,21.54,21.54,0,0,1-6.48-8.1v-.18a4.05,4.05,0,0,0-2.07-1.8,3.27,3.27,0,0,0-2.7.09,3.58,3.58,0,0,0-1.89,2.07,3.51,3.51,0,0,0,0,2.7A26.78,26.78,0,0,0,251.38,264,36.5,36.5,0,0,0,263.44,270a7.11,7.11,0,0,0,1.08.27,10.67,10.67,0,0,1,1.17.27,3.86,3.86,0,0,0,1,.18l1.62.36,1.62.18,3.24.36H278l1.62-.18,3.24-.36,3.24-.72a22.91,22.91,0,0,0,3.06-.72,72.57,72.57,0,0,0,22.86-11q8.46-5.76,18.36-16.92,6.84-7.92,15.48-19.26,6.3-8.46,14.22-20,5.58-7.92,12.78-19.08a2.17,2.17,0,0,1,.72.27,2.12,2.12,0,0,0,.9.27,129.71,129.71,0,0,0,16.2,4.86l4.14.9q.9.18,4.14.72,3.78.54,8.46.9,3.06.18,6.84.18c-1.16,6.44-2.13,12.87-3,19.31,1.56-.12,3.32.58,2.8,1.91a1.49,1.49,0,0,0-.11.58c0,.26,0,.53,0,.8a1.35,1.35,0,0,1-1,1.21,13.63,13.63,0,0,1,0,1.69c0,.73-.37,1.44.19,2a1,1,0,0,1-.09,1.57l1.67,1.19q1.15-11.4,3.38-23.78l1.08-6.48a132.63,132.63,0,0,0,21.78-2.16A110.72,110.72,0,0,0,457.48,185a84.46,84.46,0,0,0,7.92-3.6,23,23,0,0,0,6.84-5.94,1.8,1.8,0,1,0-2.88-2.16,16.55,16.55,0,0,1-5.94,4.68,40.38,40.38,0,0,1-7.2,3.24,108.82,108.82,0,0,1-15.84,4,124.64,124.64,0,0,1-20.16,1.62q2.7-12.24,5.94-23.94a334,334,0,0,1,26.46-67,250.33,250.33,0,0,1,18.9-30.6,171.88,171.88,0,0,1,23.4-26.64h.18v-.18q.18,0,.36-.36,1.8-.9,3.06-1.62a93.39,93.39,0,0,1,11-4.14,54.88,54.88,0,0,1,11.34-2,3.41,3.41,0,0,0,2.52-1.44A3.72,3.72,0,0,0,524.08,26.24Zm-76.68,67a356.84,356.84,0,0,0-14.94,33.48q-6.66,18-11.34,34.74-3.42,12.42-5.94,25.38l-7.38-.36a63.36,63.36,0,0,1-7.92-1.08,14.09,14.09,0,0,1-1.8-.27l-2.34-.45-4-.9a133.41,133.41,0,0,1-15.48-4.86.52.52,0,0,1-.36-.18l3.6-5.22q2-2.88,4.14-6.3l3.42-5.4q16.56-24.84,27.54-40.32,16.74-23.76,29.52-38.52,8.28-9.72,16.38-17.82,5-5,9.9-9.36A271.3,271.3,0,0,0,447.4,93.2Z"/><path d="M555.61,174.57c.76.49.93,1.07.52,1.76v.21a94.05,94.05,0,0,1-11.8,14.07,34.23,34.23,0,0,1-7.45,5.8,13.82,13.82,0,0,1-4.35,1.86,18.15,18.15,0,0,1-4.76,1,16.34,16.34,0,0,1-5.18-.83,12.87,12.87,0,0,1-4.55-2.69,18.64,18.64,0,0,1-5.59-8.49q-1-2.9-1.86-6.21-5.8,7.88-10.15,13.25a94.67,94.67,0,0,1-7.66,8.28q-2.07,1.86-4.34,3.73a26.44,26.44,0,0,1-5.38,2.89,9.87,9.87,0,0,1-6.84.42,14,14,0,0,1-3.31-1.86,15.07,15.07,0,0,1-2.07-2.7,19.32,19.32,0,0,1-2.69-5.58q-.82-2.7-1.45-5.59a92.29,92.29,0,0,1-1-23q1.24-18.84,7.86-44.09,2.7-10.35,6.42-21.32,2.28-6.21,3.93-10.56,2.07-5,4.77-10.35A177.22,177.22,0,0,1,499.82,65a67.25,67.25,0,0,1,7.66-8.91,14.26,14.26,0,0,1,2.69-1.86,11.77,11.77,0,0,1,3.31-1.45,6,6,0,0,1,4.35.42,8.64,8.64,0,0,1,3.31,2.69,16.57,16.57,0,0,1,2.07,6.41,35.23,35.23,0,0,1,.42,5.8,100.48,100.48,0,0,1-1.24,11.59A138.74,138.74,0,0,1,516,101.19a179.38,179.38,0,0,1-9.52,20.29q-4.77,9.1-11,19.45a417.67,417.67,0,0,1-24.22,36.85,72.58,72.58,0,0,0,1,15.11,33.43,33.43,0,0,0,1.24,5,17.64,17.64,0,0,0,1.87,4.55,6.55,6.55,0,0,0,2.48,2.9,5.94,5.94,0,0,0,4.14.21q3.93-.83,8.9-5a98.41,98.41,0,0,0,7.66-7.66,115.59,115.59,0,0,0,11.18-15.32c-.42-2.89-.76-5.79-1-8.69q-.83-16.56,5.8-36.64a166.4,166.4,0,0,1,6.62-17.18Q525.28,106,529,98.71a152.62,152.62,0,0,1,9.11-16.15,41.77,41.77,0,0,1,6-7.45,14.69,14.69,0,0,1,2.28-1.86,7.27,7.27,0,0,1,3.52-1,3.87,3.87,0,0,1,2.48.83,4.85,4.85,0,0,1,1.66,1.65,14.83,14.83,0,0,1,1,2.9,38.76,38.76,0,0,1,0,9.94c-.41,2.76-1,5.79-1.65,9.11q-2.09,8.28-5.39,17.59-2.47,7-7,17-3.94,8.68-8.08,16.35a245.7,245.7,0,0,1-17.59,27.94,66.11,66.11,0,0,0,2.27,9.94,21,21,0,0,0,3.52,7,8.88,8.88,0,0,0,6.63,3.52,13.68,13.68,0,0,0,7.86-1.87,30,30,0,0,0,7-5.17q2.9-2.9,6-6.63a83,83,0,0,0,5-7.24v-.21A1.34,1.34,0,0,1,555.61,174.57Zm-76.07-46.06q-6.42,23.82-7.87,42.85a1.79,1.79,0,0,1-.21.83v.21q9.74-14.49,20.7-33.33,5.8-10.56,10.35-19.46a177.48,177.48,0,0,0,9.11-20.08,121.93,121.93,0,0,0,5.59-20.9,60.48,60.48,0,0,0,1-10.56c0-1.93-.08-3.59-.21-5A12.9,12.9,0,0,0,516.59,59a2.41,2.41,0,0,0-.83-.83,1.4,1.4,0,0,0-1,0,9.93,9.93,0,0,0-3.52,2.28,41.28,41.28,0,0,0-6.63,7.87,141.14,141.14,0,0,0-10.55,19q-2.49,5.18-4.56,9.94c-1.1,2.76-2.35,6.14-3.72,10.14Q482.65,116.72,479.54,128.51Zm40.78,5.59q-6.21,18.63-5.59,34.57V171a269,269,0,0,0,14.69-25.25q3.93-7.66,7.46-16.36,4.33-10.14,6.62-16.76a147.85,147.85,0,0,0,4.76-17,82.26,82.26,0,0,0,1.45-8.69,33.55,33.55,0,0,0,.21-8.08,8.36,8.36,0,0,0-.42-1l-.2.21c-.42.27-.9.62-1.45,1a44.28,44.28,0,0,0-5.18,6.63,136.26,136.26,0,0,0-8.49,15.52q-3.72,7.45-7.65,16.35A176.65,176.65,0,0,0,520.32,134.1Z"/><path d="M615.09,175.09a1.29,1.29,0,0,1,0,2.07c-3.32,2.9-5.52,4.76-6.63,5.59a80.05,80.05,0,0,1-6.83,5.17,67.64,67.64,0,0,1-14.9,8.49q-9.53,3.93-17.39,3.73a24.93,24.93,0,0,1-4.55-.42l-2.28-.62a10.33,10.33,0,0,1-2.49-1.24,16,16,0,0,1-6.62-7.25,15,15,0,0,1-1.66-4.76c-.13-1.51-.2-3.1-.2-4.76a22.84,22.84,0,0,1,2.48-9.31,26.83,26.83,0,0,1,5.8-7.25,24.33,24.33,0,0,1,8.07-5c1-.27,1.79-.48,2.48-.62a9.78,9.78,0,0,1,3.52.21,6.18,6.18,0,0,1,3.52,5.8,6.81,6.81,0,0,1-.62,2.69c-.41,1-.76,1.72-1,2.27a11.79,11.79,0,0,1-3.11,3.73,18.4,18.4,0,0,1-8.28,4.35,23.51,23.51,0,0,1-7,.62,18.76,18.76,0,0,0-.2,2.69,11.45,11.45,0,0,0,.2,3.73,8.31,8.31,0,0,0,1,3.1,12.31,12.31,0,0,0,4.55,5.18q2.07,1.65,6.83,2.27a37.93,37.93,0,0,0,15.94-1.86Q600,188.55,613,175.09A1.29,1.29,0,0,1,615.09,175.09Zm-45.34-10.76A20.06,20.06,0,0,0,559,174.26a2.54,2.54,0,0,0-.62,1.24,26.44,26.44,0,0,0,5-.82,14.38,14.38,0,0,0,6.41-3.94,10.91,10.91,0,0,0,2.07-2.9c.14-.41.35-1,.62-1.65a6,6,0,0,0,.21-1.45,1.24,1.24,0,0,0-.62-1,4,4,0,0,0-.83.21A3.31,3.31,0,0,0,569.75,164.33Z"/><path d="M659.51,152.56a9.62,9.62,0,0,0-1.82-6.52,8.14,8.14,0,0,0-5.47-2.86c-1.57-.17-3.91.26-7,1.3a38.87,38.87,0,0,0-7,3.65,59.53,59.53,0,0,0-12,9.63,40.37,40.37,0,0,0-8.6,12.77,6.49,6.49,0,0,0-.78,2.86c-.17.7-.17,1.13,0,1.31h.26q.26.26,1.05,0a9.81,9.81,0,0,0,3.12-.79q2.09-1,6.77-3.9,2.09-1.31,7-4.69a81.57,81.57,0,0,1,7.55-4.43,28.49,28.49,0,0,1,3.91-2.08,17.47,17.47,0,0,1,5.47-1.05,5.72,5.72,0,0,1,3.64,2.09,8.88,8.88,0,0,1,1.31,2.86,21.06,21.06,0,0,1,.52,4.95,60.19,60.19,0,0,1-.78,8.6,271.06,271.06,0,0,1-6.78,33.34q-3.64,14.07-9.9,32.3-13.28,38.28-26.82,62.25a137.46,137.46,0,0,1-9.64,14.33,57.84,57.84,0,0,1-6,6.51,28.24,28.24,0,0,1-7.82,5.73,18.94,18.94,0,0,1-5,1.3,12.7,12.7,0,0,1-6-.78,9.1,9.1,0,0,1-4.42-4.43,14,14,0,0,1-1.83-4.95,37.55,37.55,0,0,1-.52-9.11,58.92,58.92,0,0,1,1.3-8.86A128.25,128.25,0,0,1,585,271.59a177.2,177.2,0,0,1,18.49-28.39A238,238,0,0,1,652,196.31q10.93-8.07,28.13-18.75,18-10.94,27.87-18.23a1.73,1.73,0,0,1,2.6.26c.69.87.52,1.65-.52,2.34v.26q-4.95,3.66-28.39,18-17.71,10.94-27.87,18.49a206.73,206.73,0,0,0-46.36,47.41,219.35,219.35,0,0,0-17.2,28.13q-7.8,16.67-10.41,31-1.83,9.38-.53,15.37a6.34,6.34,0,0,0,1.05,2.87,2.48,2.48,0,0,0,1.3,1.56,5.29,5.29,0,0,0,2.34,0,6.5,6.5,0,0,0,2.87-.78q4.95-2.35,10.94-10.16a92.05,92.05,0,0,0,8.85-13.55,324.57,324.57,0,0,0,14.59-29.95q6.25-14.32,12-31,4.95-14.06,9.9-31.77,5.73-20.58,7.81-32.3a48.26,48.26,0,0,0,.79-7.82,20,20,0,0,0-.26-3.64v-.79a7.94,7.94,0,0,0-2.87.79,29.81,29.81,0,0,0-3.65,1.56q-2.59,1.56-6.77,4.17a80.17,80.17,0,0,0-7,4.95q-5.48,3.65-7.29,4.68a21.85,21.85,0,0,1-5,1.83,9.67,9.67,0,0,1-3.13,0,6.16,6.16,0,0,1-3.52-1.57,6.61,6.61,0,0,1-2-3.38,8.58,8.58,0,0,1-.52-3.13,15.56,15.56,0,0,1,1-5.21,47.48,47.48,0,0,1,9.9-15.1A57.16,57.16,0,0,1,635,142.4a42.83,42.83,0,0,1,8.33-3.65c1.56-.35,3-.61,4.43-.78a13,13,0,0,1,5.21,0,12.66,12.66,0,0,1,9.9,15.37c-.35,1-1.14,1.39-2.35,1C659.68,154.21,659.34,153.6,659.51,152.56Z"/><path d="M762.2,164.26l1.14.73a1.17,1.17,0,0,1,.52,1.76v.2a99.55,99.55,0,0,1-8.9,11.39,98,98,0,0,1-10.15,9.93,97.49,97.49,0,0,1-11.59,8.7A62.6,62.6,0,0,1,720,203a23.17,23.17,0,0,1-7.65,1,8.37,8.37,0,0,1-4.14-1,6,6,0,0,1-2.07-1.45c-.28-.27-.56-.55-.83-.83A5,5,0,0,1,705,200a1.29,1.29,0,0,0-.31-.52,9,9,0,0,1-.42-4.76,12.83,12.83,0,0,1,1-3.93,42.73,42.73,0,0,1,3.31-6.83q1.24-2.07,3.73-6.11t3.72-5.9a28.57,28.57,0,0,1,1.45-2.9c.41-1.1.69-1.93.83-2.48h-1.66a6,6,0,0,0-1.45.21,13.28,13.28,0,0,1-1.86.2l-3.73.42a34.54,34.54,0,0,1-7.86-.83,13.46,13.46,0,0,1-4.14-1.45,9.34,9.34,0,0,1-3.73-3.11,7.78,7.78,0,0,1-1.65-5.38,18.74,18.74,0,0,1,.82-4.14,40.23,40.23,0,0,1,7.87-13.25,67.2,67.2,0,0,1,11.18-9.72c1.24-.83,2.34-1.52,3.31-2.07l2.07-.83a18.88,18.88,0,0,1,2.28-.62,10.53,10.53,0,0,1,4.76.62,8.11,8.11,0,0,1,3.93,3.52,8.39,8.39,0,0,1,.83,4.55,15.34,15.34,0,0,1-1,4.14,40.5,40.5,0,0,1-4.14,6.42q-1.86,2.28-14.07,15.94a17.59,17.59,0,0,1,2.48-.21,8,8,0,0,1,1.66-.31c.69-.07,1.38-.17,2.07-.31h2.28a6.88,6.88,0,0,1,2.69.83,5,5,0,0,1,2.89,2.89,8.5,8.5,0,0,1,.21,3.32,31.41,31.41,0,0,1-1.45,4.14,20.86,20.86,0,0,1-1.86,3.31q-1.25,2.28-3.83,6.21c-1.73,2.62-3,4.55-3.83,5.79a62.87,62.87,0,0,0-3.1,5.8c-1,2.35-1.39,4.07-1.25,5.18.28,1.38,1.52,2.2,3.73,2.48a14.6,14.6,0,0,0,6.42-.21A47.59,47.59,0,0,0,732,194.69a76.45,76.45,0,0,0,11.28-8.07,104.55,104.55,0,0,0,10-9.94,92.54,92.54,0,0,0,8.08-11.38Zm-63.34-6q1,1.45,4.35,2.28a13.19,13.19,0,0,0,3.52.41q3.51-3.52,6.21-6.62a117.63,117.63,0,0,0,9.1-10.77,15.88,15.88,0,0,0,2.9-6c.55-2.21.35-3.86-.62-5s-2.14-1.31-3.93-1a3.66,3.66,0,0,0-1,.2,4.64,4.64,0,0,1-1.24.62c-.83.56-1.73,1.18-2.69,1.87a54.66,54.66,0,0,0-9.94,8.9q-5,6-6.41,11.18a10.94,10.94,0,0,0-.62,2.69A2.29,2.29,0,0,0,698.86,158.26Z"/><path d="M822.23,163.85l1,.83a1.17,1.17,0,0,1,.2,1.86,39.44,39.44,0,0,1-5.59,5.38,24.58,24.58,0,0,1-7,3.73,18.59,18.59,0,0,1-15.32-.83q-3.93-1.65-12.21-9.11l-.21-.21-.21-.2.42,2.89a46.24,46.24,0,0,1,0,6A26.41,26.41,0,0,1,780,185.38a16.91,16.91,0,0,1-3.93,4.76,13.23,13.23,0,0,1-6,3.1,10.14,10.14,0,0,1-3.52-.21,8.19,8.19,0,0,1-3.52-1.24,13.41,13.41,0,0,1-4.35-5.17,21.27,21.27,0,0,1-1.86-12.42,34.69,34.69,0,0,1,3.31-11.39,33.66,33.66,0,0,1,3.31-5.17,12.28,12.28,0,0,1,2.49-2.28,9.57,9.57,0,0,1,3.72-1.86l.42.2a2.4,2.4,0,0,1,2.69,0l1.24.63a2.43,2.43,0,0,0,.73.41,2.49,2.49,0,0,1,.72.41,19.8,19.8,0,0,1,2.69,1.87,20.09,20.09,0,0,1,2.07,2.48,38.15,38.15,0,0,1,4.76,4.35q7.24,7,11.39,9.11a16.84,16.84,0,0,0,13.87.62,18.19,18.19,0,0,0,6-3.52,30.5,30.5,0,0,0,5.17-5.18Zm-42.43,9.93q.62-6-1.45-9.73a10.41,10.41,0,0,0-3.11-3.31,5.17,5.17,0,0,0-1.86-1,5.67,5.67,0,0,1-1.24-.42h-.62a6.69,6.69,0,0,0-.42,1.66,16,16,0,0,1-2.48,3.93,18.79,18.79,0,0,1-3.31,3.31,3.36,3.36,0,0,0-1.25.83,26.17,26.17,0,0,0-1.65,6,17.31,17.31,0,0,0,1,9.1q2.07,4.56,6,4.35a8.62,8.62,0,0,0,3.93-1.66,11.56,11.56,0,0,0,3.31-3.51A20.09,20.09,0,0,0,779.8,173.78ZM768,161.36a21.88,21.88,0,0,0-2.49,3.73,7.12,7.12,0,0,0,1.45-1.45,16.44,16.44,0,0,0,1.45-2.69h-.21Zm0-4.14a2.88,2.88,0,0,0-.62-.41Z"/><path d="M1044.55,4.24a2.4,2.4,0,0,0-.27-1.08,5.56,5.56,0,0,0-.63-1,2.66,2.66,0,0,0-.9-.72,3.81,3.81,0,0,0-1.08-.36,6.56,6.56,0,0,0-1.08-.09A79.46,79.46,0,0,0,1028,3.88a86.17,86.17,0,0,0-11.88,4.68q-1.44.72-3.24,1.8a3.17,3.17,0,0,0-2.34.9,5.26,5.26,0,0,0-.45.54q-.27.36-.45.36-2.34,1.44-4.32,2.88a92.34,92.34,0,0,0-10.08,7.38,173.53,173.53,0,0,0-18.36,16.74q-8.1,8.28-16.38,18.36-7.38,9-14.76,18.72T930.61,97.12q-7.74,11.16-13.14,19.17t-13.86,20.79q-.9,1.26-5.22,7.83t-6.66,10q-4.86-2.16-9.9-4.5-7-3.42-14.76-7.56-4.71-2.68-25.75-14.64c-1.24.22-2.5.39-3.76.54a3.07,3.07,0,0,0-.57,1.93,10.57,10.57,0,0,0,.14,2.43q22.39,12.36,27.24,15,7.92,4.14,14.94,7.38,4.68,2.16,9.36,4.14-7,10.44-12.24,18-7.92,11.34-14.22,19.8-7.92,10.44-15.3,18.72-9.72,10.44-17.64,15.84a70.76,70.76,0,0,1-21.06,9.9,27.72,27.72,0,0,0-2.88.54l-2.7.54-2.88.18-1.44.18h-1.44L794,243.1q-.54,0-1.53-.09a2.44,2.44,0,0,1-1.17-.27h-1.44l-1.44-.36a2.87,2.87,0,0,0-1.17-.36,11.77,11.77,0,0,1-1.53-.36,29.18,29.18,0,0,1-9.54-5,21.54,21.54,0,0,1-6.48-8.1v-.18a4.05,4.05,0,0,0-2.07-1.8,3.27,3.27,0,0,0-2.7.09A3.58,3.58,0,0,0,763,228.7a3.51,3.51,0,0,0,0,2.7A26.78,26.78,0,0,0,771.85,242,36.5,36.5,0,0,0,783.91,248a7.11,7.11,0,0,0,1.08.27,10.67,10.67,0,0,1,1.17.27,3.86,3.86,0,0,0,1,.18l1.62.36,1.62.18,3.24.36h4.86l1.62-.18,3.24-.36,3.24-.72a22.91,22.91,0,0,0,3.06-.72,72.57,72.57,0,0,0,22.86-11q8.46-5.76,18.36-16.92,6.84-7.92,15.48-19.26,6.3-8.46,14.22-20,5.58-7.92,12.78-19.08a2.17,2.17,0,0,1,.72.27,2.12,2.12,0,0,0,.9.27,129.71,129.71,0,0,0,16.2,4.86l4.14.9q.9.18,4.14.72,3.78.54,8.46.9,3.06.18,6.84.18-2.89,16.16-4.38,32.3h.09a.5.5,0,0,1,.26.92s0,0,0,.07v.69a.54.54,0,0,1,0,.66.65.65,0,0,1,0,.14,6.67,6.67,0,0,0-.11,1.34l.36-.08a4.11,4.11,0,0,1,3.62-1.25l.33,0q1.14-13.45,3.8-28.34l1.08-6.48a132.63,132.63,0,0,0,21.78-2.16A110.72,110.72,0,0,0,978,163a84.46,84.46,0,0,0,7.92-3.6,23,23,0,0,0,6.84-5.94,1.8,1.8,0,0,0-2.88-2.16,16.55,16.55,0,0,1-5.94,4.68,40.38,40.38,0,0,1-7.2,3.24,108.82,108.82,0,0,1-15.84,4,124.64,124.64,0,0,1-20.16,1.62q2.7-12.24,5.94-23.94a334,334,0,0,1,26.46-67A250.33,250.33,0,0,1,992,43.3a171.88,171.88,0,0,1,23.4-26.64h.18v-.18q.18,0,.36-.36,1.8-.9,3.06-1.62a93.39,93.39,0,0,1,11-4.14,54.88,54.88,0,0,1,11.34-2,3.41,3.41,0,0,0,2.52-1.44A3.72,3.72,0,0,0,1044.55,4.24Zm-76.68,67a356.84,356.84,0,0,0-14.94,33.48q-6.66,18-11.34,34.74-3.42,12.42-5.94,25.38l-7.38-.36a63.36,63.36,0,0,1-7.92-1.08,14.09,14.09,0,0,1-1.8-.27l-2.34-.45-4-.9a133.41,133.41,0,0,1-15.48-4.86.52.52,0,0,1-.36-.18l3.6-5.22q2-2.88,4.14-6.3l3.42-5.4q16.56-24.84,27.54-40.32,16.74-23.76,29.52-38.52,8.28-9.72,16.38-17.82,5-5,9.9-9.36A271.3,271.3,0,0,0,967.87,71.2Z"/><path d="M1085.81,157.85l1.24.62a1.22,1.22,0,0,1,.62,1.86h-.2q-7,11.8-15.74,17a23.55,23.55,0,0,1-11.38,3.72,26.77,26.77,0,0,1-6.42-1,30.15,30.15,0,0,1-2.9-1.45,29.35,29.35,0,0,1-2.69-2.07q-2.47-2.28-6.41-9.73-1.46-2.28-2.49-2.28a5,5,0,0,0-2.07.62,9,9,0,0,0-2.28,1.45Q1033,168,1027,174.41a10.27,10.27,0,0,1-2.28,2.07,3.58,3.58,0,0,1-1.65,1c-.55.14-1,.28-1.45.42a4,4,0,0,1-2.07-.62,5.77,5.77,0,0,1-1.66-2.28,7.67,7.67,0,0,1-.62-1.86c-.14-.83-.28-1.87-.41-3.11a33.62,33.62,0,0,0-.21-5.17,4.57,4.57,0,0,0-.62-1.66,2.05,2.05,0,0,0-1-.83l-.21-.21h-1c-.69.14-1.52.35-2.48.63a32,32,0,0,0-4.76,2.48,69.67,69.67,0,0,0-9.11,6.62q-2.07,1.88-8.69,7.46c-1.94,1.65-3.45,2.89-4.56,3.72a5.18,5.18,0,0,1-1.45.83,1.15,1.15,0,0,1-.82.41,3.65,3.65,0,0,1-1.66.42,3.23,3.23,0,0,1-1.66-.83c-.13-.14-.27-.28-.41-.41l-.21-.21a1.52,1.52,0,0,0-.2-.62,4.57,4.57,0,0,1-.21-1.45,9.45,9.45,0,0,1,.21-1.86,53,53,0,0,1,1.86-5.8q1.25-3.11,2.28-5.38,1.65-3.73,3.93-8.08a2.53,2.53,0,0,1-.42-3.51,10.68,10.68,0,0,0,1.66-2.28l1.66-2.49q1.86-2.26,3.52-4.55t3.93-.41A2.34,2.34,0,0,1,997,150a98.89,98.89,0,0,1-4.76,10.56l-5.18,10.14a4.52,4.52,0,0,0-.62,1.14,8.51,8.51,0,0,1-.72,1.35,5.41,5.41,0,0,0-.63,1.13q-.3.73-.51,1.35c-.69,1.38-1.17,2.42-1.45,3.1.83-.55,1.93-1.31,3.31-2.27q2.89-1.86,9.11-6.83l9.11-6.83a48.33,48.33,0,0,1,5-3.52,14.41,14.41,0,0,1,2.9-1.45,5,5,0,0,1,1.86-.42h1.25a2.46,2.46,0,0,0,1,.42,5.87,5.87,0,0,1,3.52,2.27,9.56,9.56,0,0,1,1.86,3.52,36,36,0,0,1,.42,6.21V173a20.58,20.58,0,0,0,2.17-1.35,34,34,0,0,0,2.8-2.17q1.44-1.24,3.2-2.8c1.17-1,2.11-1.82,2.8-2.38a20.06,20.06,0,0,1,2.48-1.86A7,7,0,0,1,1039,161a3.61,3.61,0,0,1,2.07-.2,6.39,6.39,0,0,1,2.07.82,10.71,10.71,0,0,1,2.69,2.28,50.91,50.91,0,0,1,3.52,5,20.34,20.34,0,0,0,2.9,4.14,9.34,9.34,0,0,0,3.51,3.1,10.4,10.4,0,0,0,4.77,1.66c2.89.41,6.21-.41,9.93-2.48q8.9-5,14.7-16.15C1085.6,158.26,1085.81,157.85,1085.81,157.85Zm-64,15.32h0Z"/><path d="M1154.94,158.88a1.32,1.32,0,0,1,.42,1.87,49.53,49.53,0,0,1-12,12q-8.28,5.59-16.35,5.8a12.08,12.08,0,0,1-4.56-.42,13.83,13.83,0,0,1-4.34-2.07,13,13,0,0,1-5.8-7.45,24.17,24.17,0,0,1-1-8.69q-9.52,10.56-11.18,12.21a60.87,60.87,0,0,1-4.76,4.35,22.11,22.11,0,0,1-6.42,3.31,7.1,7.1,0,0,1-4.14,0,7.47,7.47,0,0,1-3.93-2.69,11.11,11.11,0,0,1-1.45-3.93,13.8,13.8,0,0,1-.21-2.28,8.76,8.76,0,0,0,.21-1.66,29.2,29.2,0,0,1,5.59-12.62,46.92,46.92,0,0,1,9.52-9.32,44.18,44.18,0,0,1,11.59-6.42,21.45,21.45,0,0,1,6.63-1.65,6.78,6.78,0,0,1,3.93.62,4,4,0,0,1,1.86,1.86,4.87,4.87,0,0,1,.21,2.49c-.14.82-.69,1.17-1.66,1-.69,0-1.1-.41-1.24-1.24v-.21a.85.85,0,0,0-.21-.62c0-.14-.13-.27-.41-.41a5,5,0,0,0-2.07,0,18.79,18.79,0,0,0-5.38,2.07,46.09,46.09,0,0,0-18.22,15.11,25.17,25.17,0,0,0-4.76,10.14,10.12,10.12,0,0,1-.21,1.24v1a4,4,0,0,0,.42,1.86,5.18,5.18,0,0,0,1.24,1.24,7.55,7.55,0,0,0,1.86.21,16.84,16.84,0,0,0,5.18-2.07,35,35,0,0,0,4.76-3.73,60.75,60.75,0,0,0,14.9-19.87,2.5,2.5,0,0,1,3.94-.62,2.59,2.59,0,0,1,1,2.9,36.74,36.74,0,0,0-1.45,7.66,20,20,0,0,0,.42,7.24,8.35,8.35,0,0,0,3.72,5.18,10.79,10.79,0,0,0,6.42,2.07q6.82,0,14.49-4.56a52.64,52.64,0,0,0,11.59-10.76A1.17,1.17,0,0,1,1154.94,158.88Z"/><path d="M1153.08,161.16q7.86-8.49,14.69-17.18a223.36,223.36,0,0,0,12.84-18.42,181.33,181.33,0,0,0,10.76-19.67A163.21,163.21,0,0,0,1199.65,85q1-3.93,1.45-5.38,1-4.14,1.24-5.38c.69-3,1.11-4.83,1.25-5.38.13-1.93.2-3.66.2-5.18a5.9,5.9,0,0,0-1.24-3.72,2,2,0,0,0-1-.83h-1a2.29,2.29,0,0,0-1.45.83l-1.86,1.86a38.13,38.13,0,0,0-3.52,4.14,139.34,139.34,0,0,0-11.18,19q-4.76,9.52-9.11,20.5a320.48,320.48,0,0,0-13.24,43.05q-1.24,5.59-2.28,11a45.58,45.58,0,0,0-.83,5.39q-.21,2.9-.21,5.58c0,1.94.07,3.66.21,5.18.14,1,.28,1.73.41,2.28l.21.2h-.21l1-.2a10.79,10.79,0,0,0,1.86-1.25,20.31,20.31,0,0,0,3.52-3.51A51.77,51.77,0,0,0,1170,164a46.58,46.58,0,0,0,4-10,20.9,20.9,0,0,0,.83-5.17v-.41a1.89,1.89,0,0,0,.42.31,1.39,1.39,0,0,0,.62.1v-.21a7.1,7.1,0,0,0-1.24,1.87,9.74,9.74,0,0,0,.62,9.72q2.26,3.94,8.28,6a28.11,28.11,0,0,0,10.76,1.24,46.51,46.51,0,0,0,10.56-2.69,36.3,36.3,0,0,0,9.11-6,1.38,1.38,0,0,1,2.07.2,1.18,1.18,0,0,1-.21,1.87,49.19,49.19,0,0,1-9.94,6.21,33.38,33.38,0,0,1-11.38,2.69,34.79,34.79,0,0,1-11.8-1.25,23.54,23.54,0,0,1-5.38-2.48,12.9,12.9,0,0,1-4.35-4.35,10.93,10.93,0,0,1-2-6,16.71,16.71,0,0,1,.93-6.21,9.16,9.16,0,0,1,1.87-3.1,5.18,5.18,0,0,1,1.24-.63,2,2,0,0,1,1.24,0,2.25,2.25,0,0,1,1,.73,3.55,3.55,0,0,1,.62,1.34,1.91,1.91,0,0,0,.2.83,32,32,0,0,1-.82,6.21,48.92,48.92,0,0,1-3.73,11.18,47.3,47.3,0,0,1-5.8,10.14,28.85,28.85,0,0,1-4.14,4.76,11.51,11.51,0,0,1-2.89,1.87,6.12,6.12,0,0,1-4.56.62c-.55-.14-1-.28-1.45-.42a3.61,3.61,0,0,1-1-1,4.91,4.91,0,0,1-1.45-2.07c-.28-1-.55-2.07-.83-3.31-.13-1.66-.21-3.73-.21-6.21,0-1.79.08-3.73.21-5.8a56.72,56.72,0,0,1,.83-6q1-5.59,2.28-11.18a318.27,318.27,0,0,1,13.24-43.88,212.46,212.46,0,0,1,9.53-21.12,125.87,125.87,0,0,1,12-19.87q2.07-2.69,3.73-4.55a16.19,16.19,0,0,1,2.48-2.07,19.18,19.18,0,0,1,3.11-2.07,6,6,0,0,1,1.45-.21h1.24a5.65,5.65,0,0,1,2.07.41,9.16,9.16,0,0,1,3.52,2.49,12.93,12.93,0,0,1,2.07,6.83,38,38,0,0,1-1.45,12l-1.45,5.8q-.42,1.45-1.66,5.38a179.36,179.36,0,0,1-20.28,41.4,207.82,207.82,0,0,1-13.66,18.43q-7.26,8.49-15.53,16.76a1.13,1.13,0,0,1-1.86.11A1.2,1.2,0,0,1,1153.08,161.16Z"/><path d="M1264.65,158.16a1.28,1.28,0,0,1,.21,2,126.49,126.49,0,0,1-17.39,14.29,102.39,102.39,0,0,1-9.73,6,55.38,55.38,0,0,1-10.56,4.35,19.8,19.8,0,0,1-6.21.62,14.48,14.48,0,0,1-6.41-1.86,7.08,7.08,0,0,1-2.7-3.32,10.59,10.59,0,0,1-.62-3.72,29.72,29.72,0,0,1,.83-6.21q1.25-3.93,3.11-8.49a2.05,2.05,0,0,1-1.87-.41,2.15,2.15,0,0,1-.2-2.9c2.9-3.59,5.51-6.9,7.86-9.94,1.25-1.51,2.62-1.72,4.14-.62a2.7,2.7,0,0,1,1.24,2.69v.21c-.13.55-.34,1.24-.62,2.07-.13.28-.34.76-.62,1.45s-.62,1.59-1,2.69l-1.24,2.48a13.67,13.67,0,0,0-1,2.49q-3.1,6.82-4.14,9.93a20.93,20.93,0,0,0-1,4.56,6.21,6.21,0,0,0,.2,1.86,2.77,2.77,0,0,0,.62,1q3.1,2.48,8.9,1.65a32.18,32.18,0,0,0,10.15-3.31,57.14,57.14,0,0,0,9.52-5.38,75.15,75.15,0,0,0,8.9-6.42,59.86,59.86,0,0,0,7.87-7.66A1.13,1.13,0,0,1,1264.65,158.16Zm-37.47-12.53a1.88,1.88,0,0,1-2.9-.82,2,2,0,0,1,.21-2.28l.21-.41a6.93,6.93,0,0,0,1-2.28,11.07,11.07,0,0,0,.62-2.9,3.23,3.23,0,0,1,1.45-2.28,3.8,3.8,0,0,1,2.69-.62,3.16,3.16,0,0,1,2.28,1.45,3.75,3.75,0,0,1,.62,2.69c-.14.42-.28.83-.41,1.24l-.21.21a38.05,38.05,0,0,1-2.28,3.11A15,15,0,0,1,1227.18,145.63Z"/><path d="M1263.62,163.23l-1.14-.83a1.15,1.15,0,0,1-.31-1.86A371,371,0,0,0,1282.45,127a262.61,262.61,0,0,0,16.15-35.6,122.2,122.2,0,0,0,5.59-18.63,91.09,91.09,0,0,0,1.86-9.31q.21-2.49.21-4.56a14.19,14.19,0,0,0-.21-4.35c-.14-.68-.28-1-.41-1l.2.21h.21a4.36,4.36,0,0,0-1,.82,10.12,10.12,0,0,0-1.45,1.25,57.21,57.21,0,0,0-5.59,7.45q-4.14,6.82-9.11,17.18t-8.07,17.8q-3.32,8.28-6.42,18.42-6.63,20.91-7.87,37.68a67,67,0,0,0,1.25,18.84,7,7,0,0,0,.62,2.07,23,23,0,0,1,.62,2.27,16.52,16.52,0,0,0,1.86,3.52,8.92,8.92,0,0,0,2.69,2.49,7.18,7.18,0,0,0,3.93.62q3.74-.21,8.28-3.32a38.18,38.18,0,0,0,7.25-6.41,80.43,80.43,0,0,0,11.8-15.32v-.21a1.33,1.33,0,0,1,2-.31,1.36,1.36,0,0,1,.52,2h-.2a136.11,136.11,0,0,1-12.22,15.52,47.16,47.16,0,0,1-7.45,6.83,27.76,27.76,0,0,1-9.52,4.77,10.61,10.61,0,0,1-11-3.32,17.22,17.22,0,0,1-2.9-4.76c-.14-.27-.49-1.17-1-2.69-.14-.41-.34-1.24-.62-2.48a66.52,66.52,0,0,1-1.65-20.29q.83-17,7.86-39.33,2.7-8.9,6.83-18.84,3.1-7.65,8.08-18a197.24,197.24,0,0,1,9.73-17.6,62.51,62.51,0,0,1,6.21-8.28A13.94,13.94,0,0,1,1301.5,50a9.28,9.28,0,0,1,3.31-1.66,5.25,5.25,0,0,1,2.48.21,3.91,3.91,0,0,1,2.49,1.45,7.38,7.38,0,0,1,1.45,3.31,17.78,17.78,0,0,1,.41,5.59,34.9,34.9,0,0,1-.41,5.18c-.42,3-1,6.35-1.87,9.93a168.89,168.89,0,0,1-6.21,19A252.45,252.45,0,0,1,1286,128.87a311.55,311.55,0,0,1-21.53,33.32Z"/><path d="M1364.84,159.09a1.29,1.29,0,0,1,0,2.07c-3.32,2.9-5.52,4.76-6.63,5.59a80.05,80.05,0,0,1-6.83,5.17,67.64,67.64,0,0,1-14.9,8.49q-9.52,3.93-17.39,3.73a24.93,24.93,0,0,1-4.55-.42l-2.28-.62a10.33,10.33,0,0,1-2.49-1.24,16,16,0,0,1-6.62-7.25,15,15,0,0,1-1.66-4.76c-.13-1.51-.2-3.1-.2-4.76a23,23,0,0,1,2.48-9.31,26.83,26.83,0,0,1,5.8-7.25,24.33,24.33,0,0,1,8.07-5c1-.27,1.79-.48,2.49-.62a9.74,9.74,0,0,1,3.51.21,6.69,6.69,0,0,1,2.7,2.48,6.59,6.59,0,0,1,.82,3.32,6.81,6.81,0,0,1-.62,2.69c-.41,1-.76,1.72-1,2.27a11.79,11.79,0,0,1-3.11,3.73,18.4,18.4,0,0,1-8.28,4.35,23.51,23.51,0,0,1-7,.62,18.76,18.76,0,0,0-.2,2.69,11.45,11.45,0,0,0,.2,3.73,8.31,8.31,0,0,0,1,3.1,12.31,12.31,0,0,0,4.55,5.18q2.07,1.65,6.83,2.27a37.93,37.93,0,0,0,15.94-1.86q14.3-5.17,27.33-18.63A1.29,1.29,0,0,1,1364.84,159.09Zm-45.34-10.76a20.06,20.06,0,0,0-10.76,9.93,2.54,2.54,0,0,0-.62,1.24,26.44,26.44,0,0,0,5-.82,14.38,14.38,0,0,0,6.41-3.94,10.91,10.91,0,0,0,2.07-2.9c.14-.41.35-1,.62-1.65a6,6,0,0,0,.21-1.45,1.24,1.24,0,0,0-.62-1,4,4,0,0,0-.83.21A3.31,3.31,0,0,0,1319.5,148.33Z"/><path d="M944.65,229.86a3.83,3.83,0,0,0-1-1.62,3.14,3.14,0,0,0-1.62-.9,3.56,3.56,0,0,0-2.79.45,3,3,0,0,0-1.53,2.25,3.21,3.21,0,0,0-.27.81,3.79,3.79,0,0,0-.09.63q-.72-5.94-1.26-11.7a269.64,269.64,0,0,1-.39-31.81l-4,5.54a.43.43,0,0,1,.16.5,60.52,60.52,0,0,0-1.38,7.32.52.52,0,0,1-.06.15q-.07,9.45.49,18.66a239.33,239.33,0,0,0,4.86,36.54,2.85,2.85,0,0,0,3.06,2.52,3.72,3.72,0,0,0,2.16-1.08,3,3,0,0,0,.9-2.16v-.18a49,49,0,0,1,0-5.94,52.34,52.34,0,0,1,.36-6.12q.36-3.24.9-5.94.54-2.34,1.44-5.76l.18-.18v-.18A3.67,3.67,0,0,0,944.65,229.86Z"/></svg>