<?xml version="1.0" encoding="utf-8"?>
<!-- Generator: Adobe Illustrator 23.0.6, SVG Export Plug-In . SVG Version: 6.00 Build 0)  -->
<svg version="1.2" baseProfile="tiny" id="Calque_1"
	 xmlns="http://www.w3.org/2000/svg" xmlns:xlink="http://www.w3.org/1999/xlink" x="0px" y="0px" viewBox="0 0 2391 527"
	 xml:space="preserve">
<g>
	<path fill="#FFFF00" d="M393.256,155.609c0-29.388,12.968-54.444,38.908-75.16c25.936-20.715,57.233-31.073,93.883-31.073h26.558
		v79.409l-26.558,0.266c-7.262,0-13.503,2.614-18.724,7.834c-5.225,5.225-7.835,11.466-7.835,18.724v53.116h53.117V288.4h-53.117
		v132.79c0,29.389-12.972,54.444-38.907,75.159c-25.94,20.716-57.233,31.073-93.883,31.073v-79.674
		c7.258,0,13.499-2.615,18.724-7.835c5.22-5.225,7.834-11.466,7.834-18.724V288.4H340.14v-79.675h53.116V155.609z"/>
	<path fill="#FFFF00" d="M685.396,49.376v79.674H579.163V49.376H685.396z M685.396,155.609V421.19H579.163V155.609H685.396z"/>
	<path fill="#FFFF00" d="M977.535,421.19c0,29.389-12.972,54.444-38.908,75.159c-25.94,20.716-57.233,31.073-93.883,31.073H765.07
		l26.558-79.674h53.116c7.258,0,13.499-2.615,18.724-7.835c5.22-5.225,7.834-11.466,7.834-18.724v-1.859
		c-8.499,1.241-17.354,1.859-26.558,1.859c-36.65,0-67.947-10.357-93.883-31.073c-25.94-20.715-38.908-45.768-38.908-75.159V208.725
		c0-29.388,12.968-54.444,38.908-75.159c25.936-20.715,57.233-31.073,93.883-31.073c26.027,0,49.398,5.225,70.114,15.669
		l62.677-15.669V421.19z M871.302,314.958V208.725c0-7.258-2.614-13.499-7.834-18.723c-5.225-5.221-11.466-7.835-18.724-7.835
		c-7.262,0-13.503,2.614-18.723,7.835c-5.225,5.224-7.835,11.465-7.835,18.723v106.233c0,7.262,2.61,13.503,7.835,18.724
		c5.22,5.225,11.461,7.834,18.723,7.834c7.258,0,13.499-2.609,18.724-7.834C868.688,328.461,871.302,322.22,871.302,314.958z"/>
	<path fill="#FFFF00" d="M1110.326,208.725V421.19h-106.233V22.818l106.233,26.558v54.975c8.498-1.236,17.35-1.859,26.559-1.859
		c36.65,0,67.943,10.358,93.883,31.073c25.936,20.715,38.906,45.771,38.906,75.159v239.024l-106.232-26.559V208.725
		c0-7.258-2.613-13.499-7.834-18.723c-5.225-5.221-11.465-7.835-18.723-7.835c-7.264,0-13.504,2.614-18.725,7.835
		C1112.936,195.226,1110.326,201.467,1110.326,208.725z"/>
	<path fill="#FFFF00" d="M1349.349,102.493V49.376h106.232v53.116h53.116v79.674h-53.116V421.19h-106.232V182.167h-53.116v-79.674
		H1349.349z"/>
	<path fill="#FFFF00" d="M1641.488,314.958c0,7.262,2.61,13.503,7.835,18.724c5.22,5.225,11.461,7.834,18.724,7.834
		c7.258,0,13.499-2.609,18.724-7.834c5.22-5.221,7.834-11.462,7.834-18.724h106.232c0,29.392-12.972,54.444-38.907,75.159
		c-25.939,20.716-57.232,31.073-93.883,31.073s-67.947-10.357-93.884-31.073c-25.939-20.715-38.907-45.768-38.907-75.159V208.725
		c0-29.388,12.968-54.444,38.907-75.159c25.937-20.715,57.233-31.073,93.884-31.073s67.943,10.358,93.883,31.073
		c25.936,20.715,38.907,45.771,38.907,75.159V288.4h-159.349V314.958z M1641.488,208.725v26.558h53.116v-26.558
		c0-7.258-2.614-13.499-7.834-18.723c-5.225-5.221-11.466-7.835-18.724-7.835c-7.263,0-13.504,2.614-18.724,7.835
		C1644.099,195.226,1641.488,201.467,1641.488,208.725z"/>
	<path fill="#FFFF00" d="M1933.628,208.725V421.19h-106.232V102.493l62.677,15.669c20.716-10.445,44.087-15.669,70.114-15.669
		l53.382,0.266l-0.266,79.409h-53.116c-7.263,0-13.504,2.614-18.724,7.835C1936.238,195.226,1933.628,201.467,1933.628,208.725z"/>
</g>
<g>
	<path fill="#850606" d="M413.256,132.609c0-29.388,12.968-54.444,38.908-75.16c25.936-20.715,57.233-31.073,93.883-31.073h26.558
		v79.409l-26.558,0.266c-7.262,0-13.503,2.614-18.724,7.834c-5.225,5.225-7.835,11.466-7.835,18.724v53.116h53.117V265.4h-53.117
		v132.79c0,29.389-12.972,54.444-38.907,75.159c-25.94,20.716-57.233,31.073-93.883,31.073v-79.674
		c7.258,0,13.499-2.615,18.724-7.835c5.22-5.225,7.834-11.466,7.834-18.724V265.4H360.14v-79.675h53.116V132.609z"/>
	<path fill="#850606" d="M705.396,26.376v79.674H599.163V26.376H705.396z M705.396,132.609V398.19H599.163V132.609H705.396z"/>
	<path fill="#850606" d="M997.535,398.19c0,29.389-12.972,54.444-38.908,75.159c-25.94,20.716-57.233,31.073-93.883,31.073H785.07
		l26.558-79.674h53.116c7.258,0,13.499-2.615,18.724-7.835c5.22-5.225,7.834-11.466,7.834-18.724v-1.859
		c-8.499,1.241-17.354,1.859-26.558,1.859c-36.65,0-67.947-10.357-93.883-31.073c-25.94-20.715-38.908-45.768-38.908-75.159V185.725
		c0-29.388,12.968-54.444,38.908-75.159c25.936-20.715,57.233-31.073,93.883-31.073c26.027,0,49.398,5.225,70.114,15.669
		l62.677-15.669V398.19z M891.302,291.958V185.725c0-7.258-2.614-13.499-7.834-18.723c-5.225-5.221-11.466-7.835-18.724-7.835
		c-7.262,0-13.503,2.614-18.723,7.835c-5.225,5.224-7.835,11.465-7.835,18.723v106.233c0,7.262,2.61,13.503,7.835,18.724
		c5.22,5.225,11.461,7.834,18.723,7.834c7.258,0,13.499-2.609,18.724-7.834C888.688,305.461,891.302,299.22,891.302,291.958z"/>
	<path fill="#850606" d="M1130.326,185.725V398.19h-106.233V-0.182l106.233,26.558v54.975c8.498-1.236,17.35-1.859,26.559-1.859
		c36.65,0,67.943,10.358,93.883,31.073c25.936,20.715,38.906,45.771,38.906,75.159v239.024l-106.232-26.559V185.725
		c0-7.258-2.613-13.499-7.834-18.723c-5.225-5.221-11.465-7.835-18.723-7.835c-7.264,0-13.504,2.614-18.725,7.835
		C1132.936,172.226,1130.326,178.467,1130.326,185.725z"/>
	<path fill="#850606" d="M1369.349,79.493V26.376h106.232v53.116h53.116v79.674h-53.116V398.19h-106.232V159.167h-53.116V79.493
		H1369.349z"/>
	<path fill="#850606" d="M1661.488,291.958c0,7.262,2.61,13.503,7.835,18.724c5.22,5.225,11.461,7.834,18.724,7.834
		c7.258,0,13.499-2.609,18.724-7.834c5.22-5.221,7.834-11.462,7.834-18.724h106.232c0,29.392-12.972,54.444-38.907,75.159
		c-25.939,20.716-57.232,31.073-93.883,31.073s-67.947-10.357-93.884-31.073c-25.939-20.715-38.907-45.768-38.907-75.159V185.725
		c0-29.388,12.968-54.444,38.907-75.159c25.937-20.715,57.233-31.073,93.884-31.073s67.943,10.358,93.883,31.073
		c25.936,20.715,38.907,45.771,38.907,75.159V265.4h-159.349V291.958z M1661.488,185.725v26.558h53.116v-26.558
		c0-7.258-2.614-13.499-7.834-18.723c-5.225-5.221-11.466-7.835-18.724-7.835c-7.263,0-13.504,2.614-18.724,7.835
		C1664.099,172.226,1661.488,178.467,1661.488,185.725z"/>
	<path fill="#850606" d="M1953.628,185.725V398.19h-106.232V79.493l62.677,15.669c20.716-10.445,44.087-15.669,70.114-15.669
		l53.382,0.266l-0.266,79.409h-53.116c-7.263,0-13.504,2.614-18.724,7.835C1956.238,172.226,1953.628,178.467,1953.628,185.725z"/>
</g>
<g>
	<path d="M404.256,145.609c0-29.388,12.968-54.444,38.908-75.16c25.936-20.715,57.233-31.073,93.883-31.073h26.558v79.409
		l-26.558,0.266c-7.262,0-13.503,2.614-18.724,7.834c-5.225,5.225-7.835,11.466-7.835,18.724v53.116h53.117V278.4h-53.117v132.79
		c0,29.389-12.972,54.444-38.907,75.159c-25.94,20.716-57.233,31.073-93.883,31.073v-79.674c7.258,0,13.499-2.615,18.724-7.835
		c5.22-5.225,7.834-11.466,7.834-18.724V278.4H351.14v-79.675h53.116V145.609z"/>
	<path d="M696.396,39.376v79.674H590.163V39.376H696.396z M696.396,145.609V411.19H590.163V145.609H696.396z"/>
	<path d="M988.535,411.19c0,29.389-12.972,54.444-38.908,75.159c-25.94,20.716-57.233,31.073-93.883,31.073H776.07l26.558-79.674
		h53.116c7.258,0,13.499-2.615,18.724-7.835c5.22-5.225,7.834-11.466,7.834-18.724v-1.859c-8.499,1.241-17.354,1.859-26.558,1.859
		c-36.65,0-67.947-10.357-93.883-31.073c-25.94-20.715-38.908-45.768-38.908-75.159V198.725c0-29.388,12.968-54.444,38.908-75.159
		c25.936-20.715,57.233-31.073,93.883-31.073c26.027,0,49.398,5.225,70.114,15.669l62.677-15.669V411.19z M882.302,304.958V198.725
		c0-7.258-2.614-13.499-7.834-18.723c-5.225-5.221-11.466-7.835-18.724-7.835c-7.262,0-13.503,2.614-18.723,7.835
		c-5.225,5.224-7.835,11.465-7.835,18.723v106.233c0,7.262,2.61,13.503,7.835,18.724c5.22,5.225,11.461,7.834,18.723,7.834
		c7.258,0,13.499-2.609,18.724-7.834C879.688,318.461,882.302,312.22,882.302,304.958z"/>
	<path d="M1121.326,198.725V411.19h-106.233V12.818l106.233,26.558v54.975c8.498-1.236,17.35-1.859,26.559-1.859
		c36.65,0,67.943,10.358,93.883,31.073c25.936,20.715,38.906,45.771,38.906,75.159v239.024l-106.232-26.559V198.725
		c0-7.258-2.613-13.499-7.834-18.723c-5.225-5.221-11.465-7.835-18.723-7.835c-7.264,0-13.504,2.614-18.725,7.835
		C1123.936,185.226,1121.326,191.467,1121.326,198.725z"/>
	<path d="M1360.349,92.493V39.376h106.232v53.116h53.116v79.674h-53.116V411.19h-106.232V172.167h-53.116V92.493H1360.349z"/>
	<path d="M1652.488,304.958c0,7.262,2.61,13.503,7.835,18.724c5.22,5.225,11.461,7.834,18.724,7.834
		c7.258,0,13.499-2.609,18.724-7.834c5.22-5.221,7.834-11.462,7.834-18.724h106.232c0,29.392-12.972,54.444-38.907,75.159
		c-25.939,20.716-57.232,31.073-93.883,31.073s-67.947-10.357-93.884-31.073c-25.939-20.715-38.907-45.768-38.907-75.159V198.725
		c0-29.388,12.968-54.444,38.907-75.159c25.937-20.715,57.233-31.073,93.884-31.073s67.943,10.358,93.883,31.073
		c25.936,20.715,38.907,45.771,38.907,75.159V278.4h-159.349V304.958z M1652.488,198.725v26.558h53.116v-26.558
		c0-7.258-2.614-13.499-7.834-18.723c-5.225-5.221-11.466-7.835-18.724-7.835c-7.263,0-13.504,2.614-18.724,7.835
		C1655.099,185.226,1652.488,191.467,1652.488,198.725z"/>
	<path d="M1944.628,198.725V411.19h-106.232V92.493l62.677,15.669c20.716-10.445,44.087-15.669,70.114-15.669l53.382,0.266
		l-0.266,79.409h-53.116c-7.263,0-13.504,2.614-18.724,7.835C1947.238,185.226,1944.628,191.467,1944.628,198.725z"/>
</g>
<path fill="#F7DF1E" d="M-0.478,429.102l87.198-52.773c16.825,29.827,32.128,55.065,68.837,55.065
	c35.186,0,57.375-13.763,57.375-67.301V0h107.081v365.607C320.012,476.515,254.999,527,160.145,527
	C74.483,527,24.76,482.636-0.483,429.093"/>
<path fill="#F7DF1E" d="M2022.336,418.873l86.185-49.899c22.69,37.051,52.178,64.269,104.343,64.269
	c43.863,0,71.828-21.929,71.828-52.174c0-36.29-28.731-49.147-77.121-70.31l-26.457-11.352
	c-76.369-32.502-127.024-73.333-127.024-159.526C2054.09,60.49,2114.575,0,2209.089,0c67.292,0,115.681,23.443,150.458,84.685
	l-82.419,52.931c-18.149-32.511-37.799-45.363-68.044-45.363c-31.002,0-50.66,19.659-50.66,45.363
	c0,31.754,19.659,44.615,65.021,64.273l26.461,11.338c89.978,38.565,140.633,77.878,140.633,166.333
	c0,95.275-74.851,147.44-175.41,147.44c-98.289,0-161.801-46.876-192.798-108.123"/>
</svg>
