<?xml version="1.0" encoding="utf-8"?>
<!-- Generator: Adobe Illustrator 23.0.6, SVG Export Plug-In . SVG Version: 6.00 Build 0)  -->
<svg version="1.2" baseProfile="tiny" id="Calque_1"
	 xmlns="http://www.w3.org/2000/svg" xmlns:xlink="http://www.w3.org/1999/xlink" x="0px" y="0px" viewBox="0 0 1139.234 647.301"
	 xml:space="preserve">
<g>
	<g>
		<path fill="#FFFFFF" d="M73.422,85.005c0,2.394-0.137,6.349-0.414,11.868h-1.514c-0.55,0-1.883-0.092-3.994-0.275
			c-2.113-0.185-4.5-0.277-7.161-0.277L3.04,95.908c-1.561,0-2.342-0.414-2.342-1.243c0-0.642,1.241-1.056,3.725-1.241
			c3.496-0.183,5.589-0.575,6.28-1.174c0.691-0.597,1.035-2.321,1.035-5.175V9.521c0-3.403-0.344-5.381-1.035-5.933
			S7.551,2.761,3.319,2.761c-1.748,0-2.62-0.505-2.62-1.518C0.698,0.414,1.251,0,2.353,0h1.243
			c3.036,0.275,9.061,0.414,18.077,0.414c0.829,0,2.437-0.069,4.831-0.206C28.894,0.069,30.872,0,32.437,0h1.518
			c1.656,0,2.484,0.462,2.484,1.379c0,0.552-0.255,0.898-0.758,1.035c-0.507,0.139-2.094,0.255-4.762,0.346
			c-2.669,0.092-4.256,0.53-4.762,1.31c-0.505,0.782-0.758,3.197-0.758,7.245v81.417c2.484,0.094,5.933,0.139,10.351,0.139
			c10.762,0,18.352-0.552,22.769-1.656c4.415-1.104,7.404-3.173,8.969-6.21c1.563-3.036,2.484-7.127,2.761-12.28
			c0.086-1.196,0.616-1.795,1.585-1.795c1.149,0,1.679,0.691,1.587,2.07v3.45c0,0.185,0,0.601,0,1.243c0,0.644,0,1.29,0,1.932
			V85.005z"/>
		<path fill="#FFFFFF" d="M130.552,80.867c0,0.921-0.713,2.553-2.139,4.898s-2.875,4.256-4.346,5.727
			c-3.957,4.049-9.246,6.072-15.87,6.072c-8.28,0-15.204-2.989-20.768-8.971c-5.566-5.978-8.348-13.385-8.348-22.217
			c0-9.198,2.643-16.881,7.934-23.044c5.289-6.164,11.889-9.246,19.803-9.246c6.53,0,12.005,1.911,16.422,5.727
			c4.415,3.818,6.761,8.717,7.038,14.697c-2.946,0.46-6.856,0.644-11.73,0.552h-9.66c-0.646,0-6.165,0.137-16.561,0.412
			c-0.46,3.027-0.689,5.913-0.689,8.662c0,9.259,1.771,16.385,5.312,21.382c3.541,4.996,8.533,7.492,14.974,7.492
			c3.678,0,6.624-0.829,8.831-2.484c2.209-1.656,4.601-4.831,7.176-9.523c0.367-0.734,0.874-1.102,1.518-1.102
			C130.183,79.901,130.552,80.223,130.552,80.867z M118.547,52.715c-0.369-11.039-4.326-16.559-11.868-16.559
			c-7.451,0-12.099,5.52-13.937,16.559H118.547z"/>
		<path fill="#FFFFFF" d="M180.507,78.34c0,5.346-1.943,9.888-5.825,13.622c-3.884,3.734-8.518,5.602-13.909,5.602
			c-3.109,0-6.899-1.104-11.374-3.313c-1.19-0.642-2.24-0.966-3.154-0.966c-1.28,0-2.239,0.876-2.877,2.622
			c-0.367,1.104-0.87,1.656-1.509,1.656c-0.64,0-0.958-0.369-0.958-1.104c0-0.462,0-1.011,0-1.656c0-1.838,0-4.554,0-8.142
			c0-0.275,0-1.379,0-3.311s0-3.219,0-3.865v-1.518c0-1.011,0.32-1.518,0.966-1.518c0.736,0,1.149,0.511,1.241,1.529
			c0.552,4.266,1.746,7.601,3.588,10.01c3.68,4.822,8.602,7.229,14.766,7.229c3.313,0,5.98-0.968,8.003-2.903
			c2.023-1.937,3.036-4.518,3.036-7.745c0-3.597-1.151-6.454-3.45-8.576c-1.29-1.198-2.461-2.05-3.519-2.559
			c-1.059-0.507-4.163-1.729-9.315-3.667c-10.21-3.873-15.316-9.68-15.316-17.426c0-5.162,1.733-9.497,5.2-13.001
			c3.468-3.504,7.758-5.256,12.872-5.256c1.823,0,4.561,0.552,8.213,1.656c0.912,0.275,1.733,0.414,2.463,0.414
			c1.917,0,3.103-0.919,3.56-2.761c0.275-0.919,0.687-1.379,1.233-1.379c0.638,0,0.958,0.369,0.958,1.104c0,0.092,0,0.369,0,0.827
			v5.797c-0.094,2.207,0.137,5.75,0.689,10.626v0.275c0,0.737-0.369,1.104-1.104,1.104c-0.55,0-1.241-1.391-2.068-4.176
			c-1.014-3.343-2.785-6.034-5.314-8.078c-2.531-2.042-5.45-3.064-8.763-3.064c-3.128,0-5.705,0.968-7.726,2.905
			c-2.025,1.935-3.036,4.382-3.036,7.331c0,4.61,3.081,8.114,9.244,10.511c9.568,3.781,15.64,6.916,18.215,9.405
			C178.851,69.811,180.507,73.73,180.507,78.34z"/>
	</g>
	<path fill="#FFFFFF" d="M180.507,181.742c0,3.263-1.167,4.889-3.492,4.889c-2.33,0-3.961-2.948-4.887-8.839
		c-2.794-16.972-8.5-29.344-17.11-37.124c-5.586-4.946-14.2-8.013-25.835-9.192c-4.191-0.469-13.503-0.708-27.933-0.708
		c-10.709,0-23.512,0.353-38.405,1.051v102.643c29.791,0.234,48.182-1.686,55.164-5.761c6.983-4.07,11.174-15.537,12.568-34.39
		c0.464-5.354,1.861-8.031,4.191-8.031c2.323,0,3.49,1.745,3.49,5.238c0,2.095-0.118,3.841-0.348,5.238
		c-0.699,16.061-1.047,30.959-1.047,44.689c0,17.692,0.369,31.657,1.118,41.898c0.185,0.933,0.277,2.33,0.277,4.189
		c0,2.794-1.16,4.191-3.474,4.191c-1.856,0-3.017-0.698-3.481-2.095c-0.464-1.397-1.271-6.748-2.427-16.061
		c-1.856-14.195-5.505-23.043-10.951-26.533c-5.444-3.492-16.278-5.238-32.491-5.238c-8.576,0-16.106,0.234-22.591,0.698v35.611
		v68.431c0,6.755,2.645,11.06,7.937,12.919c2.531,0.933,8.166,1.283,16.918,1.049c3.677,0,5.522,0.933,5.522,2.792
		c0,2.095-2.33,3.142-6.985,3.142h-3.49c-3.263,0-7.681,0-13.267,0c-5.358,0-8.964,0-10.825,0H6.635
		c-4.425,0-6.635-0.933-6.635-2.803c0-1.866,4.016-3.028,12.045-3.497c8.031-0.469,12.743-1.577,14.14-3.327
		c1.397-1.752,2.095-7.179,2.095-16.286v-201c-0.242-4.203-1.48-6.826-3.715-7.878c-2.238-1.049-8.309-1.693-18.211-1.927
		c-3.774,0-5.657-1.155-5.657-3.474c0-2.107,2.095-3.159,6.284-3.159h5.586c-0.469,0,10.764,0,33.693,0c22.922,0,41.723,0,56.386,0
		c39.333,0,63.423-0.698,72.272-2.095c0.23,3.028,0.928,11.756,2.095,26.185c0.698,9.777,1.627,18.504,2.794,26.185
		C180.273,176.625,180.507,179.419,180.507,181.742z"/>
	<path fill="#FFFFFF" d="M264.999,363.994c0,2.095-1.979,3.142-5.934,3.142c0.227,0-2.564-0.234-8.38-0.698
		c-6.983-0.462-12.805-0.696-17.458-0.696h-36.312c-1.167,0.926-2.562,1.395-4.189,1.395c-2.564,0-3.841-0.862-3.841-2.586
		c0-2.465,2.323-3.698,6.983-3.698c8.844-0.23,13.672-0.871,14.488-1.92c0.815-1.047,1.224-5.874,1.224-14.488v-105.79
		c-0.234-5.818-0.526-9.253-0.874-10.3c-0.35-1.049-1.807-1.572-4.364-1.572H196.22c-0.933,0-2.095,0-3.492,0
		c-2.564,0-3.841-0.812-3.841-2.444c0-1.423,1.946-2.238,5.853-2.444c15.383-0.677,28.591-4.305,39.618-10.88l3.447-2.039
		c1.833,3.485,2.754,9.874,2.754,19.158c0-0.462,0,0.699,0,3.481c0,2.794,0,7.321,0,13.591v95.097
		c0,9.291,0.175,14.747,0.526,16.371c0.348,1.627,1.57,2.673,3.665,3.137c3.49,0.928,8.609,1.392,15.362,1.392
		C263.368,361.203,264.999,362.135,264.999,363.994z M238.814,146.478c0,10.475-5.238,15.713-15.71,15.713
		c-4.425,0-8.152-1.451-11.174-4.366c-3.028-2.908-4.539-6.457-4.539-10.648c0-10.937,5.238-16.409,15.713-16.409
		C233.576,130.768,238.814,136.003,238.814,146.478z"/>
	<path fill="#FFFFFF" d="M347.045,363.646c0,2.095-1.515,3.142-4.539,3.142h-4.189c-0.469,0-6.634-0.234-18.507-0.698h-10.823
		c-1.866,0-11.171,0.175-27.93,0.523c-1.397,0.116-2.794,0.175-4.191,0.175c-3.49,0.23-5.235-0.748-5.235-2.945
		c0-1.527,1.276-2.292,3.841-2.292h9.076c6.514,0,9.777-1.397,9.777-4.189c0.23-1.397,0.35-10.475,0.35-27.234V152.414
		c0-7.681-0.234-11.872-0.699-12.568c-0.698-1.861-2.564-2.794-5.588-2.794h-2.792h-9.777c-3.263,0-4.887-0.987-4.887-2.969
		c0-1.755,2.908-2.749,8.728-2.967c11.174-0.699,21.528-3.256,31.075-7.681l7.331-3.49l2.794-1.049
		c1.861,6.755,2.673,16.994,2.444,30.724v24.791V345.49c0,6.983,0.114,11.119,0.35,12.395c0.227,1.281,1.047,2.155,2.444,2.619
		c0.227,0.234,4.539,0.469,12.919,0.698C344.367,361.203,347.045,362.019,347.045,363.646z"/>
	<path fill="#FFFFFF" d="M595.631,364.181c0,1.74-1.982,2.607-5.936,2.607c-0.469,0-2.969,0-7.506,0c-4.539,0-10.65,0-18.331,0
		c-0.698,0-13.037,0-37.008,0c-3.028,0-4.539-0.758-4.539-2.28c0-1.736,1.276-2.607,3.841-2.607h2.792h8.73
		c3.49-0.23,5.526-1.049,6.109-2.451c0.58-1.397,0.874-6.301,0.874-14.702v-86.8c0-13.529-1.795-23.159-5.38-28.875
		c-3.582-5.718-9.651-8.576-18.203-8.576c-6.012,0-11.621,1.804-16.825,5.41c-5.204,3.613-8.844,8.207-10.927,13.792
		c-0.926,3.49-1.385,16.409-1.385,38.756v65.988c0,7.681,0.116,12.104,0.343,13.267c0.689,2.794,2.744,4.191,6.182,4.191h9.961
		c2.974,0,4.461,0.871,4.461,2.607c0,1.522-1.745,2.28-5.235,2.28h-2.446c-2.328,0-10.243,0-23.742,0c-4.657,0-10.882,0-18.677,0
		c-7.802,0-12.516,0-14.14,0h-3.841c-2.794,0-4.191-0.928-4.191-2.787c0-1.158,0.698-1.856,2.095-2.091
		c1.397-0.23,6.05-0.348,13.965-0.348c3.72-0.23,5.702-1.392,5.936-3.481l0.348-4.878v-97.183c0-13.463-1.679-22.752-5.029-27.859
		c-3.355-5.107-9.308-7.664-17.86-7.664c-8.56,0-15.675,2.673-21.336,8.013c-5.664,5.342-8.496,12.073-8.496,20.197v98.911
		c0,6.971,0.514,11.091,1.544,12.367c1.032,1.276,4.414,1.916,10.144,1.916h2.749c1.373-0.23,2.635-0.35,3.779-0.35
		c2.522,0,3.781,0.933,3.781,2.794c0,1.631-1.515,2.444-4.539,2.444h-3.49c-5.588-0.234-14.316-0.234-26.188,0h-34.214
		c-3.263,0-4.889-0.928-4.889-2.787c0-1.627,1.513-2.439,4.539-2.439c8.844,0,13.967-0.405,15.362-1.217
		c1.397-0.807,2.212-2.259,2.446-4.354V265.45c0-17.415-0.35-27.627-1.049-30.648c-0.699-3.017-4.075-4.527-10.125-4.527h-4.887
		c-2.095,0-4.312,0-6.634,0c-3.028,0-4.539-0.815-4.539-2.446c0-1.395,0.523-2.209,1.572-2.444c1.047-0.23,4.837-0.578,11.368-1.047
		c5.358-0.23,12.061-1.627,20.102-4.191c8.041-2.557,12.651-4.766,13.818-6.632c2.564-2.56,4.425-3.841,5.593-3.841
		c1.167,0,1.866,0.933,2.1,2.792c0.23,1.866,0.464,8.38,0.698,19.553c9.322-14.893,23.659-22.345,43.015-22.345
		c20.746,0,33.338,7.799,37.768,23.391c9.088-15.592,23.659-23.391,43.707-23.391c17.249,0,28.908,6.17,34.974,18.504
		c3.263,6.518,4.894,17.342,4.894,32.469v86.239c0,7.915,0.398,12.279,1.201,13.094c0.8,0.817,4.414,1.456,10.828,1.92h6.187
		C594.369,361.671,595.631,362.429,595.631,364.181z"/>
	<path fill="#FFFFFF" d="M712.937,321.639c0,13.529-4.916,25.018-14.735,34.468c-9.824,9.447-21.554,14.171-35.192,14.171
		c-7.861,0-17.451-2.792-28.778-8.377c-3.009-1.627-5.666-2.446-7.975-2.446c-3.242,0-5.668,2.216-7.283,6.634
		c-0.928,2.794-2.197,4.189-3.812,4.189c-1.622,0-2.429-0.933-2.429-2.792c0-1.167,0-2.56,0-4.191c0-4.653,0-11.522,0-20.6
		c0-0.696,0-3.49,0-8.377c0-4.889,0-8.145,0-9.777v-3.841c0-2.56,0.815-3.841,2.446-3.841c1.859,0,2.908,1.293,3.142,3.867
		c1.395,10.792,4.418,19.231,9.076,25.323c9.308,12.199,21.762,18.293,37.359,18.293c8.38,0,15.128-2.451,20.252-7.35
		c5.117-4.899,7.681-11.429,7.681-19.596c0-9.099-2.915-16.328-8.73-21.696c-3.26-3.033-6.23-5.188-8.903-6.476
		c-2.678-1.281-10.534-4.373-23.566-9.272c-25.837-9.798-38.756-24.495-38.756-44.09c0-13.061,4.387-24.026,13.16-32.891
		c8.77-8.865,19.626-13.3,32.562-13.3c4.615,0,11.543,1.397,20.78,4.189c2.309,0.699,4.387,1.049,6.237,1.049
		c4.849,0,7.849-2.325,9.005-6.985c0.694-2.323,1.736-3.49,3.121-3.49c1.615,0,2.422,0.933,2.422,2.794c0,0.234,0,0.933,0,2.093
		v14.664c-0.234,5.588,0.35,14.55,1.747,26.886v0.696c0,1.866-0.933,2.794-2.794,2.794c-1.397,0-3.142-3.519-5.238-10.567
		c-2.564-8.455-7.042-15.263-13.442-20.436c-6.405-5.164-13.79-7.752-22.169-7.752c-7.915,0-14.436,2.451-19.553,7.35
		c-5.122,4.899-7.681,11.086-7.681,18.549c0,11.664,7.795,20.529,23.394,26.595c24.203,9.568,39.568,17.5,46.086,23.796
		C708.749,300.064,712.937,309.976,712.937,321.639z"/>
	<g>
		<path fill="#FFFFFF" d="M1069.406,364.342c0,0.817-0.814,1.224-2.443,1.224h-0.874c-0.933,0-1.92,0-2.967,0h-1.397
			c-5.704,0-10.534,1.122-14.488,3.365c-1.631,0.897-2.619,1.347-2.969,1.347c-1.047,0-1.57-0.698-1.57-2.095l0.173-5.41
			c-5.005,5.005-10.939,7.506-17.806,7.506c-9.777,0-17.836-3.77-24.177-11.309c-6.346-7.539-9.514-17.152-9.514-28.842
			c0-12.038,3.168-21.798,9.514-29.28c6.341-7.48,14.633-11.221,24.876-11.221c7.913,0,13.849,2.853,17.806,8.555v-27.234
			c0-8.844-0.402-14.316-1.205-16.409c-0.689-1.747-1.724-2.56-3.099-2.446c-3.329,0.35-5.337,0.526-6.024,0.526
			c-1.496,0-2.24-0.526-2.24-1.572s0.635-1.572,1.906-1.572l6.246,0.175c3.466,0.118,8.787-1.511,15.956-4.887
			c0.462-0.232,0.867-0.35,1.215-0.35c1.155,0,1.736,1.397,1.736,4.191c0,0.698,0,1.92,0,3.665c0,1.863,0,3.492,0,4.887v60.229
			c0,27.582,0.232,42.362,0.698,44.341c0.23,0.815,2.967,1.222,8.204,1.222C1068.592,362.948,1069.406,363.414,1069.406,364.342z
			 M1043.569,320.527c0-11.174-1.222-18.331-3.665-21.473c-3.142-3.954-7.158-5.936-12.045-5.936c-6.284,0-11.29,3.26-15.014,9.777
			c-3.727,6.518-5.586,15.248-5.586,26.185c0,10.475,1.629,19.439,4.887,26.884c1.397,3.144,3.462,5.735,6.199,7.769
			c2.732,2.039,5.555,3.057,8.465,3.057c3.606,0,6.867-1.075,9.777-3.23c2.908-2.152,4.802-4.743,5.673-7.769
			C1043.133,352.764,1043.569,341.01,1043.569,320.527z"/>
		<path fill="#FFFFFF" d="M1139.582,348.807c0,1.165-0.902,3.23-2.706,6.196c-1.804,2.967-3.637,5.384-5.498,7.245
			c-5.005,5.121-11.697,7.681-20.076,7.681c-10.475,0-19.233-3.781-26.273-11.349c-7.042-7.563-10.56-16.932-10.56-28.105
			c0-11.635,3.343-21.355,10.037-29.152c6.691-7.797,15.04-11.697,25.051-11.697c8.261,0,15.187,2.418,20.775,7.245
			c5.586,4.83,8.552,11.027,8.903,18.592c-3.727,0.582-8.673,0.815-14.839,0.699h-12.22c-0.817,0-7.799,0.173-20.95,0.521
			c-0.583,3.829-0.871,7.48-0.871,10.958c0,11.713,2.24,20.728,6.72,27.049c4.48,6.32,10.795,9.478,18.942,9.478
			c4.653,0,8.38-1.049,11.171-3.142c2.794-2.095,5.82-6.111,9.078-12.047c0.464-0.928,1.106-1.395,1.92-1.395
			C1139.116,347.586,1139.582,347.993,1139.582,348.807z M1124.395,313.194c-0.466-13.965-5.472-20.948-15.014-20.948
			c-9.426,0-15.305,6.983-17.63,20.948H1124.395z"/>
	</g>
	<path fill="#FFFFFF" d="M166.542,462.255c0,22.579-9.661,40.153-28.979,52.721c-12.104,7.915-27.466,11.872-46.086,11.872
		c-7.915,0-16.88-0.815-26.884-2.446v99.158c0,5.356,0.23,8.728,0.698,10.125c1.163,3.263,3.72,5.238,7.681,5.936
		c6.748,0.933,13.267,1.397,19.551,1.397c2.56,0,3.841,0.817,3.841,2.444c0,2.33-1.629,3.49-4.887,3.49c-1.397,0-2.564,0-3.492,0
		c-12.803,0-36.892,0-72.272,0h-4.539c-6.983,0-10.475-1.16-10.475-3.495c0-1.631,2.446-2.451,7.333-2.451
		c10.939,0,17.223-1.047,18.855-3.142c1.859-0.933,2.908-3.263,3.142-6.994v-206.3c0-7.222-1.982-11.652-5.936-13.288
		c-2.33-0.928-6.405-1.397-12.22-1.397h-3.49c-0.698,0-1.518,0-2.446,0c-3.49,0-5.238-0.933-5.238-2.811
		c0-2.084,3.258-3.125,9.777-3.125h76.813c26.533,0,45.966,4.66,58.306,13.965C159.56,428.388,166.542,443.173,166.542,462.255z
		 M129.882,462.593c0-35.138-14.664-52.709-43.991-52.709c-9.777,0-16.181,1.641-19.203,4.92c-1.397,1.406-2.095,5.036-2.095,10.889
		v93.473c1.861,0.234,3.954,0.348,6.284,0.348c15.362,0,28.394-3.393,39.104-10.191C123.25,500.89,129.882,485.314,129.882,462.593z
		"/>
	<path fill="#FFFFFF" d="M247.542,644.159c0,2.095-1.515,3.142-4.539,3.142h-4.189c-0.469,0-6.635-0.234-18.507-0.698h-10.823
		c-1.866,0-11.171,0.175-27.93,0.523c-1.397,0.116-2.794,0.175-4.191,0.175c-3.49,0.23-5.235-0.748-5.235-2.945
		c0-1.527,1.276-2.292,3.841-2.292h9.076c6.514,0,9.777-1.397,9.777-4.189c0.23-1.397,0.35-10.475,0.35-27.234V432.927
		c0-7.681-0.234-11.872-0.698-12.568c-0.699-1.861-2.564-2.794-5.588-2.794h-2.792h-9.777c-3.263,0-4.887-0.987-4.887-2.969
		c0-1.755,2.908-2.749,8.728-2.967c11.174-0.698,21.528-3.256,31.075-7.681l7.331-3.49l2.794-1.049
		c1.861,6.755,2.673,16.993,2.444,30.724v24.791v171.079c0,6.983,0.114,11.119,0.35,12.395c0.227,1.281,1.047,2.155,2.444,2.619
		c0.227,0.234,4.539,0.469,12.919,0.698C244.864,641.716,247.542,642.532,247.542,644.159z"/>
	<path fill="#FFFFFF" d="M391.732,608.545c0,2.33-1.804,6.459-5.41,12.395c-3.613,5.936-7.279,10.769-10.998,14.488
		c-10.011,10.245-23.394,15.362-40.153,15.362c-20.948,0-38.465-7.56-52.546-22.693c-14.086-15.128-21.123-33.866-21.123-56.213
		c0-23.271,6.689-42.71,20.076-58.306c13.383-15.592,30.08-23.391,50.102-23.391c16.525,0,30.374,4.833,41.547,14.488
		c11.174,9.663,17.107,22.056,17.806,37.184c-7.451,1.167-17.342,1.631-29.675,1.397h-24.44c-1.631,0-15.599,0.348-41.898,1.042
		c-1.167,7.66-1.745,14.964-1.745,21.921c0,23.424,4.477,41.455,13.442,54.094c8.957,12.639,21.587,18.956,37.882,18.956
		c9.305,0,16.759-2.093,22.345-6.284c5.586-4.189,11.635-12.22,18.156-24.09c0.926-1.861,2.209-2.794,3.841-2.794
		C390.799,606.102,391.732,606.921,391.732,608.545z M361.358,537.32c-0.933-27.93-10.944-41.895-30.028-41.895
		c-18.852,0-30.608,13.965-35.263,41.895H361.358z"/>
	<path fill="#FFFFFF" d="M485.302,644.507c0,2.095-1.979,3.142-5.934,3.142c0.227,0-2.564-0.234-8.38-0.698
		c-6.983-0.462-12.805-0.696-17.458-0.696h-36.312c-1.167,0.926-2.562,1.395-4.189,1.395c-2.564,0-3.841-0.862-3.841-2.586
		c0-2.465,2.323-3.698,6.983-3.698c8.844-0.23,13.672-0.871,14.488-1.92c0.815-1.047,1.224-5.874,1.224-14.488v-105.79
		c-0.234-5.818-0.526-9.253-0.874-10.3c-0.35-1.049-1.807-1.572-4.364-1.572h-10.125c-0.933,0-2.095,0-3.492,0
		c-2.564,0-3.841-0.812-3.841-2.444c0-1.423,1.946-2.238,5.853-2.444c15.383-0.677,28.591-4.305,39.618-10.88l3.447-2.039
		c1.833,3.485,2.754,9.874,2.754,19.158c0-0.462,0,0.698,0,3.481c0,2.794,0,7.321,0,13.591v95.097
		c0,9.291,0.175,14.746,0.526,16.371c0.348,1.627,1.57,2.673,3.665,3.137c3.49,0.928,8.609,1.392,15.362,1.392
		C483.67,641.716,485.302,642.648,485.302,644.507z M459.116,426.991c0,10.475-5.238,15.713-15.71,15.713
		c-4.425,0-8.152-1.451-11.174-4.366c-3.028-2.908-4.539-6.457-4.539-10.648c0-10.937,5.238-16.409,15.713-16.409
		C453.879,411.281,459.116,416.516,459.116,426.991z"/>
	<path fill="#FFFFFF" d="M657.775,644.694c0,1.74-1.745,2.607-5.237,2.607h-4.189c-4.191,0-9.897,0-17.107,0
		c-22.816,0-36.312,0-40.501,0h-2.446c-3.026,0-4.539-0.812-4.539-2.439c0-1.155,0.639-1.854,1.92-2.088
		c1.279-0.23,5.763-0.464,13.444-0.698c4.418-0.23,6.983-0.869,7.681-1.916c0.696-1.042,1.047-4.816,1.047-11.32v-66.878
		c0-25.307-0.933-40.401-2.794-45.279c-3.959-10.447-11.87-15.672-23.742-15.672c-11.64,0-21.417,5.112-29.327,15.324
		c-2.33,3.021-3.492,7.2-3.492,12.542v108.669c0,2.789,2.484,4.3,7.454,4.53l10.648,0.348c2.363,0,3.547,0.812,3.547,2.439
		s-1.397,2.439-4.191,2.439h-5.586c-5.124,0-13.267,0-24.44,0c-2.564,0-8.091,0-16.584,0c-8.5,0-13.442,0-14.839,0h-2.095
		c-3.49,0-5.238-0.71-5.238-2.138c0-1.425,2.095-2.342,6.286-2.749c3.021,0,5.934,0,8.728,0c3.492,0,5.586-0.815,6.284-2.439
		l1.049-5.221v-75.911c0-26.465-0.234-41.09-0.698-43.88c-0.469-2.782-3.379-4.177-8.73-4.177c-1.631,0-4.423,0-8.38,0h-1.745
		c-4.66,0-6.983-0.862-6.983-2.597c0-2.226,2.444-3.339,7.333-3.339c6.983-0.23,14.543-1.511,22.693-3.841
		c8.145-2.325,13.847-5.003,17.107-8.031c2.095-1.859,3.722-2.792,4.889-2.792c1.624,0,2.444,2.214,2.444,6.632v16.759
		c12.099-15.592,27.696-23.391,46.785-23.391c16.759,0,28.858,6.17,36.312,18.504c4.189,6.983,6.284,20.249,6.284,39.802v79.605
		c0,7.451,0.348,11.522,1.047,12.22c1.397,1.397,4.769,2.095,10.125,2.095c0.698,0,1.975,0,3.841,0h2.446
		C656.608,642.414,657.775,643.176,657.775,644.694z"/>
	<path fill="#FFFFFF" d="M950.004,641.98c0,3.549-1.745,5.321-5.238,5.321c-2.33,0-4.423-0.216-6.284-0.626l-44.341-2.492
		l-44.341,2.492c-1.631,0.41-3.376,0.626-5.238,0.626c-4.657,0-6.983-2.174-6.983-6.531c0-4.793,3.142-7.191,9.428-7.191
		c20.479-0.41,30.724-4.074,30.724-11.002c0-0.402-0.242-2.03-0.715-4.886l-2.853-16.497l-1.79-8.706
		c-2.095-12.902-7.205-41.408-15.346-85.532h-74.635c-13.956,66.539-20.926,104.792-20.926,114.771
		c0,5.829,1.397,9.357,4.189,10.605c0.698,0.419,6.514,1.248,17.458,2.496c6.748,0.419,10.125,2.496,10.125,6.235
		c0,4.162-3.026,6.239-9.078,6.239c-10.707,0-23.162-0.838-37.356-2.496c-3.492-0.41-7.103-0.622-10.823-0.622
		c-3.727,0-7.333,0.69-10.825,2.073c-1.859,0.694-3.372,1.045-4.539,1.045c-3.256,0-4.887-1.87-4.887-5.634
		c0-3.752,3.665-5.838,10.998-6.256c7.331-0.41,12.623-2.398,15.885-5.943c3.258-3.549,5.815-10.321,7.681-20.342
		c29.94-153.539,54.314-276.838,73.112-369.883c0.542-4.903,1.627-10.419,3.253-16.561l1.494-11.383
		c0.698-4.568,1.624-6.861,2.794-6.861c0.696,0,1.276,1.248,1.745,3.744c3.021,16.218,9.89,50.114,20.593,101.67
		c8.38,40.338,29.209,141.594,62.497,303.766c1.861,9.416,4.245,15.402,7.158,17.965c2.908,2.572,8.903,4.061,17.986,4.492
		C946.975,636.472,950.004,638.443,950.004,641.98z M855.418,492.611c-3.791-18.714-10.07-49.708-18.836-92.969l-16.776-86.459
		c-9.814,46.011-21.615,105.824-35.396,179.427H855.418z"/>
	<path fill="#FFFFFF" d="M1018.781,644.507c0,2.095-1.979,3.142-5.934,3.142c0.227,0-2.564-0.234-8.38-0.698
		c-6.983-0.462-12.805-0.696-17.458-0.696h-36.312c-1.167,0.926-2.562,1.395-4.189,1.395c-2.564,0-3.841-0.862-3.841-2.586
		c0-2.465,2.323-3.698,6.983-3.698c8.844-0.23,13.672-0.871,14.488-1.92c0.815-1.047,1.224-5.874,1.224-14.488v-105.79
		c-0.234-5.818-0.526-9.253-0.874-10.3c-0.35-1.049-1.807-1.572-4.364-1.572h-10.125c-0.933,0-2.096,0-3.492,0
		c-2.564,0-3.841-0.812-3.841-2.444c0-1.423,1.946-2.238,5.853-2.444c15.383-0.677,28.591-4.305,39.618-10.88l3.447-2.039
		c1.833,3.485,2.754,9.874,2.754,19.158c0-0.462,0,0.698,0,3.481c0,2.794,0,7.321,0,13.591v95.097
		c0,9.291,0.175,14.746,0.526,16.371c0.348,1.627,1.57,2.673,3.665,3.137c3.49,0.928,8.609,1.392,15.362,1.392
		C1017.149,641.716,1018.781,642.648,1018.781,644.507z M992.595,426.991c0,10.475-5.238,15.713-15.71,15.713
		c-4.425,0-8.152-1.451-11.174-4.366c-3.028-2.908-4.539-6.457-4.539-10.648c0-10.937,5.238-16.409,15.713-16.409
		C987.358,411.281,992.595,416.516,992.595,426.991z"/>
	<path fill="#FFFFFF" d="M1139.582,514.628c0,5.356-1.631,9.774-4.889,13.267c-3.263,3.492-7.451,5.237-12.568,5.237
		c-4.191,0-7.681-1.222-10.475-3.665c-2.792-2.446-4.189-5.526-4.189-9.253c0-3.258,1.047-6.05,3.142-8.38
		c2.096-2.325,3.142-3.954,3.142-4.887c0-3.492-2.564-5.238-7.681-5.238c-6.519,0-12.106,4.054-16.759,12.159
		c-5.358,9.5-8.029,27.104-8.029,52.809v68.786c0,2.782,0.987,4.518,2.967,5.211c1.975,0.696,7.97,1.16,17.981,1.39
		c2.557,0.469,3.841,1.397,3.841,2.794c0,1.631-1.518,2.444-4.539,2.444c-5.358,0-10.359,0-15.014,0c-4.657,0-13.501,0-26.533,0
		c-6.755,0-11.642,0-14.664,0c-3.028,0-6.869,0-11.521,0c-3.727,0-5.588-0.698-5.588-2.095s1.511-2.095,4.539-2.095h4.889
		c7.908,0,12.568-0.933,13.965-2.808c0.464-0.933,0.698-5.259,0.698-12.985v-96.499c0-12.864-1.92-20.294-5.761-22.285
		c-3.84-1.987-9.952-3.099-18.331-3.334c-2.792,0-4.189-0.812-4.189-2.444c0-1.624,1.16-2.444,3.49-2.444h2.444
		c3.492,0,6.985,0.175,10.475,0.523c3.492,0.35,5.003,0.523,4.539,0.523c8.609,0,18.156-2.444,28.629-7.331l4.539-2.095l2.794-1.047
		c0.928,5.586,1.397,11.171,1.397,16.759v6.983c7.447-15.826,17.922-23.742,31.423-23.742c7.447,0,13.617,2.268,18.504,6.807
		S1139.582,507.879,1139.582,514.628z"/>
</g>
</svg>
