<?xml version="1.0" encoding="utf-8"?>
<!-- Generator: Adobe Illustrator 23.0.6, SVG Export Plug-In . SVG Version: 6.00 Build 0)  -->
<svg version="1.2" baseProfile="tiny" id="Calque_1"
	 xmlns="http://www.w3.org/2000/svg" xmlns:xlink="http://www.w3.org/1999/xlink" x="0px" y="0px" viewBox="0 0 936.856 699.025"
	 xml:space="preserve">
<path fill="none" stroke="#000000" stroke-width="20" stroke-miterlimit="10" d="M764.398,279.877l21.85-9.1
	c6.09-2.54,9-9.6,6.47-15.69l-27.84-66.85c-2.54-6.09-9.6-9-15.69-6.47l-21.86,9.1l-12.04-19.32l16.74-16.74
	c4.67-4.67,4.67-12.3,0.01-16.97l-51.2-51.22c-4.67-4.66-12.3-4.67-16.97,0l-16.74,16.74l-19.12-12.99l9.01-21.89
	c2.52-6.1-0.42-13.15-6.52-15.66l-66.97-27.58c-6.1-2.51-13.15,0.43-15.66,6.53l-9.02,21.89l-21.83-5.42v-23.67c0-6.6-5.4-12-12-12
	h-72.42c-6.6,0-12,5.4-12,12v23.67l-23.97,5.62l-9.1-21.85c-2.53-6.09-9.59-9-15.69-6.46l-66.85,27.83c-6.09,2.54-9,9.6-6.46,15.7
	l9.1,21.85l-18.46,11.65l-16.73-16.74c-4.67-4.67-12.31-4.67-16.98,0l-51.21,51.19c-4.67,4.67-4.67,12.31,0,16.97l16.73,16.75
	l-12.82,19.93l-21.89-9.01c-6.1-2.52-13.15,0.42-15.66,6.52l-27.58,66.97c-2.51,6.1,0.43,13.15,6.53,15.66l21.89,9.01
	 M171.768,423.397l-21.85,9.1c-6.1,2.54-9.01,9.6-6.47,15.69l27.84,66.85c2.54,6.09,9.6,9,15.69,6.47l21.86-9.11l12.19,16.88
	l-16.74,16.74c-4.66,4.67-4.67,12.31,0,16.97l51.2,51.22c4.66,4.67,12.3,4.67,16.97,0l16.74-16.73l19.34,12.65l-9.02,21.89
	c-2.51,6.11,0.43,13.16,6.53,15.67l66.96,27.57c6.1,2.52,13.15-0.42,15.67-6.52l9.01-21.89l22.91,5.03v23.68c0,6.6,5.4,12,12,12
	h72.42c6.6,0,12-5.4,12-12v-23.68l22.28-4.62l9.1,21.85c2.54,6.1,9.6,9.01,15.69,6.47l66.86-27.84c6.09-2.54,9-9.6,6.46-15.69
	l-9.1-21.86l18.72-13.23l16.74,16.74c4.67,4.67,12.3,4.67,16.97,0l51.22-51.19c4.66-4.67,4.67-12.31,0-16.97l-16.74-16.75
	l13.48-19.5l21.89,9.02c6.1,2.51,13.15-0.43,15.66-6.53l27.58-66.96c2.51-6.1-0.43-13.15-6.53-15.67l-21.89-9.01"/>
<g>
	<path d="M101.651,397.396H86.802l-8.91-7.965c-21.059,13.904-49.003,11.34-63.853-5.13C5.805,375.256,0,363.512,0,350.148
		s5.535-25.379,14.04-34.154c8.64-8.774,20.789-14.309,34.019-14.309c13.365,0,25.379,5.535,34.154,14.309
		c8.504,8.775,14.04,20.79,14.04,34.154c0,11.204-3.915,21.329-10.26,29.563l15.659,14.715V397.396z M72.357,325.714
		c-6.21-6.345-14.85-10.26-24.299-10.26c-9.314,0-17.954,3.915-24.299,10.26c-6.075,6.21-10.125,14.85-10.125,24.434
		c0,9.584,4.05,18.359,10.125,24.568c11.745,11.745,29.024,13.905,43.468,5.266l-26.189-23.354h18.899l16.064,14.579
		c4.185-5.67,6.48-13.499,6.48-21.059C82.482,340.563,78.432,331.924,72.357,325.714z"/>
	<path d="M105.164,369.047v-66.013h13.77v66.147c0,10.395,11.205,15.524,21.194,15.524c9.854,0,21.059-5.265,21.059-15.659v-66.013
		h13.77v66.147c0,19.169-18.629,29.158-34.829,29.158C123.523,398.34,105.164,388.351,105.164,369.047z"/>
	<path d="M240.7,369.586h-33.884c-3.645,8.64-8.37,19.979-11.339,27.81h-14.714l37.934-95.711h9.989l37.934,95.711h-14.58
		L240.7,369.586z M211.946,356.763h23.489l-11.61-33.344L211.946,356.763z"/>
	<path d="M306.31,303.035c30.914,0,46.438,23.624,46.438,47.248s-15.524,47.113-46.438,47.113h-33.884v-94.361H306.31z
		 M306.31,383.761c21.869,0,32.938-16.739,32.938-33.479s-11.069-33.613-32.938-33.613h-20.25v67.092H306.31z"/>
	<path d="M423.271,397.396v-94.361l0,0l0,0h13.634l0,0l0,0v94.361"/>
	<path d="M452.206,397.396v-94.631l10.53,0.135l46.033,66.552V302.9h13.499v94.496h-10.8l-45.628-66.012v66.012H452.206z"/>
	<path d="M623.467,302.9c21.609,0,32.483,15.794,32.483,31.589c0,15.794-10.875,31.453-32.483,31.453H601.43v31.454h-14.595V302.9
		H623.467z M623.467,352.443c12.164,0,18.174-8.91,18.174-17.819c0-9.044-6.01-17.954-18.174-17.954H601.43v35.773H623.467z"/>
	<path d="M710.19,369.586h-35.918c-3.863,8.64-8.872,19.979-12.021,27.81h-15.597l40.211-95.711h10.589l40.211,95.711h-15.454
		L710.19,369.586z M679.71,356.763h24.9l-12.306-33.344L679.71,356.763z"/>
	<path d="M761.994,349.473h16.886c12.164,0,18.174-8.235,18.174-16.47c0-8.1-6.01-16.334-18.174-16.334h-22.181v80.727h-14.31V302.9
		h36.491c21.75,0,32.626,15.119,32.626,30.104c0,13.365-8.729,26.054-25.901,28.889l31.625,35.504h-18.746l-36.491-41.443V349.473z"
		/>
	<path d="M833.027,397.396v-94.361l0,0l0,0h14.452l0,0l0,0v94.361"/>
	<path d="M919.828,327.334c-2.003-8.505-11.734-12.149-20.463-12.015c-6.726,0.135-14.167,2.295-18.174,7.155
		c-2.003,2.43-2.718,5.535-2.433,8.774c0.715,9.72,12.021,10.935,22.753,11.88c13.738,1.62,30.767,4.995,34.63,20.113
		c0.43,2.025,0.715,4.32,0.715,6.21c0,18.225-19.175,28.754-37.206,28.754c-15.454,0-34.201-8.64-36.061-25.514l-0.143-2.565
		l14.596-0.27l0.143,2.024v-0.539c1.002,8.774,12.306,13.364,21.608,13.364c10.733,0,22.467-5.67,22.467-15.39
		c0-0.945-0.143-2.025-0.429-3.24c-1.717-7.154-12.021-8.369-22.038-9.314c-15.597-1.485-33.914-4.725-35.489-24.434v0.135
		c-0.572-6.345,1.145-12.69,5.438-17.955c6.726-8.234,18.746-12.554,30.337-12.554c15.454,0,31.481,7.56,34.058,24.839
		L919.828,327.334z"/>
</g>
</svg>
