<?xml version="1.0" encoding="utf-8"?>
<!-- Generator: Adobe Illustrator 25.0.1, SVG Export Plug-In . SVG Version: 6.00 Build 0)  -->
<svg version="1.1" id="Calque_1" xmlns="http://www.w3.org/2000/svg" xmlns:xlink="http://www.w3.org/1999/xlink" x="0px" y="0px"
	 viewBox="0 0 581.7 581.7" style="enable-background:new 0 0 581.7 581.7;" xml:space="preserve">
<style type="text/css">
	.st0{fill:#FFFFFF;}
	.st1{fill:#083D77;}
	.st2{fill:none;stroke:#083D77;stroke-width:40;stroke-miterlimit:10;}
</style>
<path class="st0" d="M296.4,276.8c1.4,1.9,2.2,3.2,3.1,4.4c8.2,11.5,16.3,23.1,24.7,34.5c5.7,7.7,17.8,10.3,26.2,3.7
	c4.2-3.3,7.3-7.9,10.5-12.3c13-18.1,25.8-36.3,38.8-54.4c1-1.2,2-2.2,3.2-3.2c0.5,1.5,0.8,3,1,4.5c0,44.2,0.1,88.4,0.1,132.7
	c0,2.9,0.3,5.9,0.9,8.7c2.5,11.1,14.4,15.8,24.1,11.7c7.7-3.2,11.2-9.3,11.1-17.8c-0.1-39.4-0.1-78.9-0.1-118.3
	c0-26.2,0.1-52.5-0.1-78.8c0.1-3.3-0.6-6.7-2-9.7c-6.5-12-24.2-12.9-32.5-0.5c-10.6,15.9-22,31.2-33.2,46.8
	c-10.1,14-20.3,28-30.5,42c-2.1,2.9-2.7,2.8-4.6,0c-6-8.9-12.1-17.8-18.2-26.7c-5.9-8.6-12-17.1-17.5-26
	c-6.3-10.2-12.8-20.2-22-28.1c-11.7-9.9-25.1-16.3-40.5-16.5c-27.2-0.5-54.5-0.2-81.7-0.1c-5.6,0-9.6,2.9-12.8,7.3
	c-2.9,4-3,8.5-3,13.1c0,61.9,0,123.7,0,185.6c0,3.6-0.1,7.2,0,10.8c0.2,7.1,3.3,12.7,9.7,15.9c7,3.5,13.7,2.5,19.8-2.3
	c5.2-4.1,6.5-9.7,6.5-16c0-58,0-116.1,0-174.1c0-3.9,0.2-4.2,4.2-4.2c16.8,0,33.5,0.2,50.3-0.1c10.2-0.2,18.6,3,25.6,10.4
	c6.6,6.6,10.4,15.5,10.8,24.8c0.4,7.7-1.6,15.2-5.6,21.8c-4.6,7.5-10.9,12.8-20.3,13.5c-4.3,0.3-8.9,0.7-12.7,2.5
	c-10.3,4.8-12.8,17.9-6.1,27.6c13.3,19.2,26.5,38.5,39.9,57.7c7.5,10.8,15.2,21.5,22.9,32.1c5.7,7.9,15,9,22.2,5.9
	c11.3-5,14.3-17.7,7.2-27.9c-9.8-14.1-19.5-28.3-29.3-42.4c-5.7-8.2-11.5-16.4-17.3-24.5c-1.5-2.2-1.9-3.7,0.9-5.4
	c7.9-4.9,14.7-11.4,19.8-19.1C292.1,283.2,294,280.3,296.4,276.8z"/>
<path class="st1" d="M296.4,276.8c-2.4,3.5-4.3,6.3-6.2,9.2c-5.2,7.7-11.9,14.2-19.8,19.1c-2.9,1.8-2.5,3.3-0.9,5.4
	c5.8,8.2,11.6,16.3,17.3,24.5c9.8,14.1,19.5,28.2,29.3,42.4c7.1,10.2,4.2,22.9-7.2,27.9c-7.2,3.2-16.5,2-22.2-5.9
	c-7.7-10.6-15.4-21.3-22.9-32.1c-13.4-19.2-26.5-38.5-39.9-57.7c-6.8-9.7-4.2-22.8,6.1-27.6c3.8-1.8,8.4-2.2,12.7-2.5
	c9.4-0.7,15.7-6,20.3-13.5c4-6.5,6-14.1,5.6-21.8c-0.4-9.3-4.2-18.2-10.8-24.8c-7.1-7.4-15.5-10.5-25.6-10.4
	c-16.8,0.3-33.5,0.1-50.3,0.1c-4,0-4.2,0.3-4.2,4.2c0,58,0,116.1,0,174.1c0,6.3-1.3,11.9-6.5,16c-6.1,4.8-12.8,5.8-19.8,2.3
	c-6.3-3.2-9.5-8.8-9.7-15.9c-0.1-3.6,0-7.2,0-10.8c0-61.9,0-123.7,0-185.6c0-4.6,0.1-9.1,3-13.1c3.2-4.4,7.2-7.3,12.8-7.3
	c27.2,0,54.5-0.4,81.7,0.1c15.4,0.3,28.8,6.6,40.5,16.5c9.2,7.9,15.7,17.9,22,28.1c5.5,8.9,11.6,17.3,17.5,26
	c6,8.9,12.1,17.8,18.2,26.7c1.9,2.8,2.5,2.8,4.6,0c10.2-14,20.4-27.9,30.5-42c11.2-15.5,22.6-30.9,33.2-46.8
	c8.2-12.3,26-11.4,32.5,0.5c1.4,3,2.1,6.4,2,9.7c0.2,26.2,0.1,52.5,0.1,78.8c0,39.4-0.1,78.9,0.1,118.3c0,8.5-3.4,14.6-11.1,17.8
	c-9.7,4.1-21.7-0.6-24.1-11.7c-0.6-2.9-0.9-5.8-0.9-8.7c-0.1-44.2-0.1-88.4-0.1-132.7c-0.2-1.5-0.5-3-1-4.5c-1.2,1-2.2,2-3.2,3.2
	c-12.9,18.1-25.8,36.3-38.8,54.4c-3.2,4.4-6.3,9-10.5,12.3c-8.3,6.5-20.5,4-26.2-3.7c-8.4-11.4-16.5-23-24.7-34.5
	C298.6,280,297.8,278.8,296.4,276.8z"/>
<circle class="st2" cx="290.8" cy="290.8" r="270.8"/>
</svg>
