<?xml version="1.0" encoding="utf-8"?>
<!-- Generator: Adobe Illustrator 25.4.1, SVG Export Plug-In . SVG Version: 6.00 Build 0)  -->
<svg version="1.2" baseProfile="tiny" id="Calque_1"
	 xmlns="http://www.w3.org/2000/svg" xmlns:xlink="http://www.w3.org/1999/xlink" x="0px" y="0px" viewBox="0 0 1550.5 448"
	 overflow="visible" xml:space="preserve">
<g id="Calque_1_00000150820282542123882490000010707269467157841843_">
	<g>
		<path fill="#FFFFFF" d="M337.7,0.2h-27.2L113,197.7c-21.8,21.8-21.2,58,1.5,80.6c11,11,25.5,17.1,40.9,17.3
			c15.2,0.3,29.3-5.4,39.8-15.9l64.6-64.3c7.6-7.6,20-7.6,27.6,0.1c7.6,7.6,7.6,20-0.1,27.6l-64.5,64.2
			c-17.6,17.6-41.2,27.3-66.5,27.3c-0.4,0-0.9,0-1.3,0c-25.6-0.3-49.8-10.6-68-28.8s-28.4-42.3-28.8-68
			c-0.3-25.8,9.4-49.9,27.3-67.9L255.4,0H110C49.5,0,0,49.5,0,110v227.8c0,60.5,49.5,110,110,110h27.2l197.5-197.5
			c21.8-21.8,21.2-58-1.5-80.6c-11-11-25.5-17.1-40.9-17.3c-15.3-0.4-29.3,5.4-39.8,15.9l-62.2,61.9c-7.6,7.6-20,7.6-27.6-0.1
			c-7.6-7.6-7.6-20,0.1-27.6l62.2-61.9c17.6-17.6,41.2-27.3,66.5-27.3c0.4,0,0.9,0,1.3,0c25.6,0.3,49.8,10.6,68,28.8
			c18.2,18.2,28.4,42.3,28.8,68c0.3,25.8-9.4,49.9-27.3,67.9L192.4,448h145.3c60.5,0,110-49.5,110-110V110.2
			C447.8,49.7,398.3,0.2,337.7,0.2z"/>
		<g>
			<path fill="#FFFFFF" d="M750.2,290c0,46.9-37.6,74.4-94.1,74.4c-41.4,0-62.4-3.8-101-23.1L573,303c32.1,15.5,54.5,18.6,84.8,18.6
				c26.5,0,42.4-9.7,42.4-27.6c0-16.5-16.2-23.8-51.7-32.1c-50-11.4-90.3-25.5-90.3-73.4c0-42.7,34.1-73.1,89.6-73.1
				c36.9,0,69.3,9.3,93.1,19.6l-20,39.3c-21.4-9-51.4-16.2-74.1-16.2c-24.8,0-38.6,11-38.6,26.2c0,17.2,17.2,24.5,53.8,32.7
				C714.3,228.9,750.2,245.5,750.2,290z"/>
			<path fill="#FFFFFF" d="M970.8,361.3h-53.1l-47.9-76.5l-36.2,34.8v41.7h-47.9V101.4h47.9v153l80-80.3h56.2l-68.2,73.1
				L970.8,361.3z"/>
			<path fill="#FFFFFF" d="M1023.1,281.3c5.2,24.5,24.8,41.7,53.4,41.7c19.6,0,37.9-9,48.3-23.1l30.7,25.5
				c-17.2,23.4-47.9,38.6-84.4,38.6c-56.5,0-95.8-43.1-95.8-96.5c0-53.8,39.3-96.9,95.8-96.9c57.6,0,91,41.7,91,100
				c0,3.8-0.3,7.6-0.3,10.7H1023.1z M1023.5,250.7h92.7c-1.7-21.4-13.1-41.7-45.2-41.7C1045.9,209,1028,227.6,1023.5,250.7z"/>
			<path fill="#FFFFFF" d="M1235.1,281.3c5.2,24.5,24.8,41.7,53.4,41.7c19.6,0,37.9-9,48.3-23.1l30.7,25.5
				c-17.2,23.4-47.9,38.6-84.4,38.6c-56.5,0-95.8-43.1-95.8-96.5c0-53.8,39.3-96.9,95.8-96.9c57.6,0,91,41.7,91,100
				c0,3.8-0.3,7.6-0.3,10.7H1235.1z M1235.5,250.7h92.7c-1.7-21.4-13.1-41.7-45.2-41.7C1257.9,209,1239.9,227.6,1235.5,250.7z"/>
			<path fill="#FFFFFF" d="M1408.8,101.4h48.3v259.9h-48.3V101.4z"/>
			<path fill="#FFFFFF" d="M1502.2,101.4h48.3v259.9h-48.3V101.4z"/>
		</g>
	</g>
</g>
<g id="Calque_2_00000144335162115432040420000007949051229490129056_" display="none">
</g>
</svg>
