<?xml version="1.0" encoding="utf-8"?>
<!-- Generator: Adobe Illustrator 23.0.6, SVG Export Plug-In . SVG Version: 6.00 Build 0)  -->
<svg version="1.2" baseProfile="tiny" id="Calque_1"
	 xmlns="http://www.w3.org/2000/svg" xmlns:xlink="http://www.w3.org/1999/xlink" x="0px" y="0px" viewBox="0 0 1236 716.32"
	 xml:space="preserve">
<path d="M171.892,497.751c-1.912-2.019-2.867-4.544-2.867-7.572V383.728h-28.776c-3.029,0-5.554-1.028-7.572-3.083
	c-2.02-2.055-3.029-4.598-3.029-7.626c0-3.029,1.009-5.572,3.029-7.627c2.018-2.056,4.543-3.083,7.572-3.083h78.756
	c3.029,0,5.571,1.046,7.627,3.138c2.055,2.092,3.083,4.652,3.083,7.681c0,3.174-1.011,5.698-3.029,7.573
	c-2.164,2.02-4.725,3.029-7.681,3.029H190.12v106.451c0,3.028-1.046,5.554-3.137,7.572c-2.093,2.021-4.652,3.029-7.681,3.029
	C176.273,500.78,173.801,499.771,171.892,497.751z"/>
<path d="M315.233,497.968c-2.056-2.019-3.083-4.544-3.083-7.573v-41.109c0-8.654-2.02-15.686-6.058-21.095
	c-4.111-5.264-9.809-7.897-17.093-7.897c-3.462,0-6.726,0.668-9.791,2.001c-3.066,1.335-5.717,3.229-7.951,5.68
	c-2.236,2.38-4.003,5.211-5.301,8.492c-1.298,3.283-2.02,6.834-2.164,10.656v42.948c0,3.029-1.028,5.571-3.083,7.627
	c-2.056,2.055-4.598,3.083-7.627,3.083s-5.59-1.044-7.681-3.138c-2.093-2.09-3.137-4.614-3.137-7.572V373.234
	c0-1.515,0.287-2.938,0.865-4.273c0.577-1.333,1.369-2.505,2.38-3.516c2.091-2.091,4.615-3.138,7.573-3.138
	c3.029,0,5.588,1.046,7.681,3.138c2.018,2.02,3.029,4.616,3.029,7.789v37.863c4.038-3.895,8.401-6.905,13.09-9.033
	c4.688-2.126,9.52-3.191,14.497-3.191c6.202,0,11.9,1.228,17.093,3.678c5.192,2.453,9.664,5.95,13.415,10.494
	c3.749,4.473,6.634,9.773,8.654,15.903c2.019,6.131,3.029,12.766,3.029,19.905v41.542c0,3.029-1.028,5.555-3.083,7.573
	c-2.055,2.02-4.598,3.028-7.626,3.028C319.831,500.996,317.289,499.987,315.233,497.968z"/>
<path d="M380.195,498.021c-6.274-2.632-11.829-6.328-16.66-11.088c-4.833-4.761-8.583-10.277-11.251-16.552
	c-2.669-6.274-4.002-12.909-4.002-19.905c0-6.995,1.333-13.648,4.002-19.96c2.667-6.31,6.418-11.846,11.251-16.605
	c4.831-4.76,10.386-8.455,16.66-11.089c6.274-2.632,12.909-3.949,19.905-3.949c6.924,0,13.504,1.317,19.743,3.949
	c6.237,2.634,11.773,6.293,16.606,10.98c4.831,4.689,8.601,10.152,11.305,16.39c2.704,6.239,4.092,12.819,4.165,19.743
	c0,3.029-0.992,5.5-2.975,7.41c-1.985,1.912-4.527,2.867-7.627,2.867H372.19c0.865,3.029,2.18,5.842,3.949,8.438
	c1.766,2.596,3.875,4.832,6.329,6.707c2.451,1.947,5.192,3.426,8.222,4.436c3.029,1.011,6.166,1.515,9.412,1.515
	c8.293,0,14.748-2.56,19.365-7.681c2.307-1.803,4.687-2.705,7.14-2.705c1.226,0,2.416,0.216,3.57,0.649
	c2.091,0.722,3.822,2.236,5.192,4.544c1.226,1.876,1.839,3.895,1.839,6.058c0,3.175-1.371,5.88-4.111,8.114
	c-3.895,3.607-8.151,6.347-12.766,8.221c-5.771,2.309-12.514,3.463-20.23,3.463C393.104,501.971,386.47,500.655,380.195,498.021z
	 M429.742,442.254c-0.794-3.316-2.074-6.364-3.84-9.141c-1.768-2.775-3.913-5.174-6.437-7.194c-2.669-2.091-5.625-3.695-8.871-4.814
	c-3.246-1.117-6.636-1.677-10.169-1.677c-7.213,0-13.487,2.164-18.824,6.491c-2.525,2.093-4.652,4.527-6.383,7.302
	c-1.731,2.777-2.958,5.788-3.678,9.033H429.742z"/>
<path fill="#8CC63F" d="M619.809,497.643c-2.092-2.09-3.137-4.578-3.137-7.464V372.693c0-2.667,0.829-4.977,2.488-6.924
	c1.947-2.307,4.688-3.462,8.222-3.462h57.336c2.957,0,5.48,1.046,7.573,3.138c2.018,2.02,3.029,4.581,3.029,7.681
	c0,3.029-1.011,5.571-3.029,7.627c-2.02,2.055-4.544,3.083-7.573,3.083H638.2v36.998h31.914c3.029,0,5.571,1.028,7.627,3.083
	c2.055,2.055,3.083,4.598,3.083,7.626c0,3.029-1.028,5.5-3.083,7.411c-2.056,1.912-4.598,2.867-7.627,2.867H638.2v48.357
	c0,3.102-1.046,5.625-3.137,7.572c-2.164,2.021-4.725,3.029-7.681,3.029C624.423,500.78,621.9,499.736,619.809,497.643z"/>
<path fill="#FF0000" d="M734.753,496.615c-8.546-3.641-16.03-8.709-22.448-15.199c-6.491-6.491-11.521-14.01-15.091-22.556
	s-5.355-17.58-5.355-27.1c0-12.765,3.173-24.628,9.52-35.591c3.029-5.193,6.67-9.935,10.926-14.226
	c4.254-4.29,8.979-7.951,14.172-10.98c11.034-6.418,22.862-9.628,35.483-9.628c6.346,0,12.549,0.83,18.607,2.488
	c6.059,1.66,11.719,4.04,16.984,7.14c5.193,3.029,9.953,6.69,14.279,10.98c4.328,4.292,8.006,9.033,11.035,14.226
	c6.418,11.107,9.629,22.972,9.629,35.591c0,9.52-1.822,18.553-5.465,27.1s-8.707,16.065-15.199,22.556
	c-6.49,6.49-14.027,11.559-22.609,15.199c-8.584,3.643-17.67,5.463-27.262,5.463C752.368,502.078,743.3,500.258,734.753,496.615z
	 M781,476.818c5.986-2.488,11.215-5.967,15.688-10.44c4.471-4.471,7.951-9.682,10.439-15.632c2.488-5.95,3.732-12.278,3.732-18.986
	c0-6.562-1.244-12.819-3.732-18.77c-2.488-5.95-5.969-11.159-10.439-15.632c-4.473-4.471-9.701-7.968-15.688-10.494
	c-5.986-2.524-12.297-3.787-18.932-3.787s-12.927,1.263-18.877,3.787c-5.95,2.525-11.125,6.022-15.524,10.494
	c-4.473,4.473-7.951,9.682-10.439,15.632c-2.488,5.95-3.732,12.208-3.732,18.77c0,6.708,1.244,13.036,3.732,18.986
	c2.488,5.95,5.967,11.162,10.439,15.632c4.398,4.473,9.574,7.952,15.524,10.44s12.242,3.732,18.877,3.732
	S775.014,479.307,781,476.818z"/>
<path fill="#FF0000" d="M884.691,496.615c-8.547-3.641-16.029-8.709-22.448-15.199c-6.49-6.491-11.521-14.01-15.091-22.556
	s-5.355-17.58-5.355-27.1c0-12.765,3.173-24.628,9.521-35.591c3.029-5.193,6.67-9.935,10.926-14.226
	c4.255-4.29,8.979-7.951,14.172-10.98c11.035-6.418,22.862-9.628,35.484-9.628c6.345,0,12.549,0.83,18.606,2.488
	c6.059,1.66,11.72,4.04,16.984,7.14c5.193,3.029,9.953,6.69,14.28,10.98c4.327,4.292,8.006,9.033,11.035,14.226
	c6.418,11.107,9.628,22.972,9.628,35.591c0,9.52-1.822,18.553-5.464,27.1c-3.643,8.546-8.708,16.065-15.199,22.556
	c-6.491,6.49-14.028,11.559-22.609,15.199c-8.584,3.643-17.671,5.463-27.262,5.463C902.307,502.078,893.237,500.258,884.691,496.615
	z M930.938,476.818c5.986-2.488,11.214-5.967,15.687-10.44c4.472-4.471,7.951-9.682,10.439-15.632
	c2.488-5.95,3.732-12.278,3.732-18.986c0-6.562-1.244-12.819-3.732-18.77c-2.488-5.95-5.968-11.159-10.439-15.632
	c-4.473-4.471-9.7-7.968-15.687-10.494c-5.986-2.524-12.297-3.787-18.932-3.787c-6.636,0-12.928,1.263-18.877,3.787
	c-5.95,2.525-11.126,6.022-15.524,10.494c-4.473,4.473-7.951,9.682-10.439,15.632c-2.488,5.95-3.732,12.208-3.732,18.77
	c0,6.708,1.244,13.036,3.732,18.986c2.488,5.95,5.967,11.162,10.439,15.632c4.398,4.473,9.574,7.952,15.524,10.44
	c5.949,2.488,12.241,3.732,18.877,3.732C918.642,480.551,924.952,479.307,930.938,476.818z"/>
<path fill="#FFFF00" d="M1004.23,497.751c-2.055-2.019-3.083-4.544-3.083-7.572V372.91c0-3.029,1.028-5.553,3.083-7.573
	c2.056-2.018,4.598-3.029,7.627-3.029h23.8c6.419,0,12.639,0.795,18.661,2.38c6.021,1.587,11.665,3.895,16.931,6.923
	c5.264,3.029,10.043,6.653,14.334,10.873c4.29,4.219,7.951,8.889,10.98,14.009c6.419,10.891,9.628,22.647,9.628,35.267
	c0,12.549-3.209,24.27-9.628,35.159c-5.987,10.098-14.425,18.283-25.314,24.557c-5.266,3.029-10.909,5.338-16.931,6.924
	c-6.022,1.587-12.242,2.38-18.661,2.38h-23.8C1008.828,500.78,1006.286,499.771,1004.23,497.751z M1035.766,479.145
	c6.707,0,13.036-1.19,18.986-3.57c5.949-2.381,11.159-5.697,15.632-9.953c4.471-4.327,7.951-9.375,10.439-15.145
	c2.488-5.77,3.732-12.008,3.732-18.716c0-6.562-1.244-12.728-3.732-18.499c-2.488-5.769-5.933-10.854-10.331-15.253
	c-4.4-4.327-9.539-7.716-15.416-10.169c-5.879-2.451-12.135-3.714-18.77-3.787h-13.631v95.092L1035.766,479.145L1035.766,479.145z"
	/>
<path d="M132.71,692.79c-2.043-2.02-3.064-4.544-3.064-7.573V567.95c0-3.029,1.021-5.553,3.064-7.573
	c2.042-2.019,4.569-3.029,7.58-3.029c1.361,0,2.669,0.254,3.924,0.757c1.253,0.506,2.382,1.19,3.387,2.057
	c1.935,1.73,3.081,4.039,3.44,6.923c4.371-3.101,9.085-5.499,14.138-7.194c5.053-1.693,10.302-2.542,15.75-2.542
	c6.951,0,13.546,1.335,19.782,4.003c6.235,2.669,11.719,6.383,16.449,11.143c4.73,4.833,8.403,10.369,11.02,16.605
	c2.615,6.24,3.924,12.857,3.924,19.852c0,6.996-1.308,13.614-3.924,19.852c-2.617,6.239-6.29,11.775-11.02,16.605
	c-4.73,4.76-10.214,8.476-16.449,11.143c-6.235,2.67-12.83,4.004-19.782,4.004c-5.52,0-10.805-0.83-15.858-2.488
	s-9.73-4.074-14.03-7.248v34.4c0,3.029-1.04,5.554-3.118,7.573c-2.08,2.019-4.623,3.029-7.633,3.029
	C137.279,695.82,134.753,694.809,132.71,692.79z M192.54,636.535c3.655-1.585,6.843-3.748,9.568-6.49
	c2.723-2.74,4.838-5.932,6.343-9.574c1.505-3.641,2.258-7.481,2.258-11.521c0-4.111-0.753-7.986-2.258-11.629
	c-1.505-3.641-3.62-6.832-6.343-9.574c-2.725-2.74-5.913-4.868-9.568-6.383s-7.526-2.271-11.611-2.271
	c-4.015,0-7.831,0.757-11.45,2.271c-3.62,1.515-6.792,3.643-9.515,6.383c-2.795,2.812-4.964,6.041-6.504,9.682
	c-1.542,3.643-2.311,7.483-2.311,11.521c0,4.04,0.788,7.881,2.365,11.521c1.576,3.643,3.726,6.834,6.45,9.574
	c2.723,2.742,5.895,4.905,9.515,6.49c3.618,1.588,7.435,2.381,11.45,2.381C185.014,638.916,188.884,638.123,192.54,636.535z"/>
<path d="M250.592,656.225c-2.08-2.018-3.118-4.543-3.118-7.572v-117.27c0-3.029,1.038-5.553,3.118-7.572
	c2.078-2.018,4.623-3.029,7.633-3.029s5.537,1.012,7.58,3.029c2.042,2.02,3.064,4.543,3.064,7.572v117.27
	c0,3.029-1.021,5.555-3.064,7.572c-2.043,2.02-4.569,3.029-7.58,3.029C255.215,659.254,252.67,658.244,250.592,656.225z"/>
<path d="M315.85,656.549c-6.235-2.667-11.719-6.383-16.449-11.143c-4.803-4.83-8.512-10.366-11.127-16.605
	c-2.617-6.237-3.924-12.855-3.924-19.852c0-6.994,1.307-13.611,3.924-19.852c2.615-6.236,6.324-11.772,11.127-16.605
	c4.73-4.76,10.214-8.474,16.449-11.143c6.235-2.668,12.829-4.003,19.782-4.003c6.951,0,13.509,1.298,19.674,3.895
	c6.163,2.597,11.611,6.274,16.341,11.034c4.731,4.761,8.421,10.261,11.073,16.498c2.651,6.239,4.013,12.82,4.086,19.743v39.702
	c0,2.959-1.04,5.555-3.118,7.789c-0.932,1.012-2.096,1.805-3.494,2.381c-1.398,0.578-2.849,0.865-4.354,0.865
	c-2.796,0-5.161-0.937-7.096-2.812s-3.047-4.219-3.333-7.032c-9.103,7.429-19.029,11.144-29.78,11.144
	C328.679,660.553,322.085,659.219,315.85,656.549z M347.243,636.535c3.655-1.585,6.843-3.748,9.569-6.49
	c2.723-2.74,4.838-5.932,6.343-9.574c1.505-3.641,2.258-7.481,2.258-11.521c0-4.111-0.753-7.986-2.258-11.629
	c-1.505-3.641-3.62-6.832-6.343-9.574c-2.725-2.74-5.913-4.868-9.569-6.383c-3.655-1.515-7.526-2.271-11.611-2.271
	c-4.015,0-7.831,0.757-11.45,2.271c-3.62,1.515-6.792,3.643-9.514,6.383c-2.796,2.812-4.964,6.041-6.504,9.682
	c-1.542,3.643-2.312,7.483-2.312,11.521c0,4.04,0.788,7.881,2.365,11.521c1.576,3.643,3.726,6.834,6.451,9.574
	c2.723,2.742,5.894,4.905,9.514,6.49c3.618,1.588,7.435,2.381,11.45,2.381C339.717,638.916,343.587,638.123,347.243,636.535z"/>
<path d="M433.892,656.549c-6.308-2.596-11.826-6.236-16.556-10.926c-4.803-4.615-8.547-10.061-11.235-16.336
	c-2.688-6.273-4.031-12.908-4.031-19.904v-0.109c0-0.07,0.035-0.107,0.107-0.107v-0.108c-0.072,0-0.107-0.036-0.107-0.108
	c0-7.066,1.344-13.738,4.031-20.014c2.688-6.274,6.432-11.827,11.235-16.66c4.73-4.76,10.248-8.473,16.556-11.143
	c6.306-2.667,12.972-4.002,19.997-4.002c6.809,0,13.259,1.189,19.352,3.57c6.091,2.379,11.288,5.806,15.589,10.276
	c2.508,2.525,3.833,5.374,3.978,8.546c0,3.176-1.147,5.807-3.44,7.898c-2.365,2.092-4.767,3.137-7.203,3.137
	c-1.649,0-3.262-0.433-4.838-1.299c-1.578-0.865-3.225-1.982-4.946-3.354c-3.01-2.45-6.128-4.219-9.353-5.301
	c-3.225-1.082-6.703-1.622-10.428-1.622c-3.943,0-7.687,0.849-11.234,2.542c-3.548,1.695-6.649,3.986-9.3,6.869
	c-2.58,2.812-4.569,5.988-5.967,9.521c-1.398,3.534-2.097,7.14-2.097,10.817l-0.107,0.217l0.107,0.108
	c0,3.679,0.699,7.267,2.097,10.765c1.398,3.498,3.349,6.617,5.859,9.357c2.581,2.885,5.572,5.156,8.977,6.814
	c3.404,1.66,7.077,2.525,11.02,2.598c3.87,0.145,7.472-0.307,10.805-1.354c3.333-1.044,6.54-2.902,9.622-5.57
	c1.72-1.369,3.35-2.47,4.892-3.3c1.541-0.828,3.099-1.244,4.677-1.244c2.58,0,5.053,1.046,7.418,3.138
	c2.293,2.092,3.44,4.688,3.44,7.789c-0.145,3.174-1.47,6.021-3.978,8.546c-4.3,4.473-9.498,7.897-15.589,10.277
	c-6.093,2.38-12.543,3.569-19.352,3.569C446.864,660.444,440.198,659.146,433.892,656.549z"/>
<path d="M533.768,656.495c-6.235-2.632-11.756-6.329-16.557-11.089c-4.802-4.76-8.53-10.277-11.181-16.551
	c-2.652-6.275-3.978-12.91-3.978-19.906c0-6.994,1.325-13.647,3.978-19.959c2.651-6.311,6.379-11.846,11.181-16.605
	c4.801-4.761,10.321-8.455,16.557-11.09c6.235-2.631,12.829-3.948,19.782-3.948c6.881,0,13.421,1.317,19.621,3.948
	c6.199,2.635,11.7,6.294,16.503,10.98c4.801,4.689,8.547,10.152,11.235,16.391c2.687,6.238,4.067,12.818,4.139,19.742
	c0,3.029-0.986,5.5-2.956,7.41c-1.973,1.912-4.499,2.867-7.58,2.867h-68.699c0.86,3.029,2.167,5.842,3.924,8.438
	c1.755,2.597,3.851,4.833,6.289,6.707c2.435,1.947,5.16,3.427,8.171,4.436c3.01,1.011,6.128,1.515,9.353,1.515
	c8.241,0,14.656-2.559,19.244-7.682c2.293-1.801,4.658-2.703,7.095-2.703c1.218,0,2.401,0.216,3.548,0.648
	c2.078,0.722,3.798,2.236,5.16,4.543c1.218,1.877,1.828,3.895,1.828,6.059c0,3.175-1.363,5.879-4.085,8.113
	c-3.87,3.607-8.1,6.348-12.686,8.223c-5.735,2.307-12.436,3.461-20.104,3.461C546.597,660.444,540.004,659.129,533.768,656.495z
	 M583.007,600.728c-0.789-3.316-2.061-6.364-3.816-9.142c-1.757-2.775-3.889-5.174-6.397-7.193
	c-2.653-2.092-5.591-3.695-8.816-4.814c-3.225-1.117-6.595-1.677-10.106-1.677c-7.168,0-13.404,2.163-18.707,6.491
	c-2.51,2.092-4.623,4.526-6.343,7.302c-1.72,2.777-2.94,5.788-3.655,9.033H583.007z"/>
<path d="M681.267,656.225c-2.08-2.018-3.118-4.543-3.118-7.572v-69.561h-7.741c-3.01,0-5.52-1.082-7.526-3.246
	c-2.15-2.307-3.225-4.868-3.225-7.681c0-3.029,1.038-5.553,3.118-7.573c2.078-2.018,4.623-3.028,7.633-3.028h7.741v-26.181
	c0-3.029,1.038-5.553,3.118-7.572c2.078-2.018,4.623-3.029,7.633-3.029s5.537,1.012,7.579,3.029c2.043,2.02,3.064,4.543,3.064,7.572
	v26.181h9.245c3.081,0,5.644,1.011,7.687,3.028c2.042,2.021,3.064,4.544,3.064,7.573c0,3.102-1.021,5.698-3.064,7.789
	c-2.043,2.093-4.606,3.138-7.687,3.138h-9.245v69.561c0,3.029-1.021,5.555-3.064,7.572c-2.042,2.02-4.569,3.029-7.579,3.029
	C685.89,659.254,683.345,658.244,681.267,656.225z"/>
<path d="M756.738,656.549c-6.235-2.667-11.718-6.383-16.448-11.143c-4.803-4.83-8.512-10.366-11.127-16.605
	c-2.617-6.237-3.924-12.855-3.924-19.852c0-6.994,1.307-13.611,3.924-19.852c2.615-6.236,6.324-11.772,11.127-16.605
	c4.731-4.76,10.213-8.474,16.448-11.143c6.235-2.668,12.829-4.003,19.783-4.003c6.951,0,13.546,1.335,19.782,4.003
	c6.235,2.669,11.718,6.383,16.449,11.143c4.73,4.833,8.403,10.369,11.019,16.605c2.615,6.24,3.925,12.857,3.925,19.852
	c0,6.996-1.309,13.614-3.925,19.852c-2.616,6.239-6.289,11.775-11.019,16.605c-4.731,4.76-10.214,8.476-16.449,11.143
	c-6.235,2.67-12.831,4.004-19.782,4.004C769.567,660.553,762.973,659.219,756.738,656.549z M788.131,636.535
	c3.655-1.585,6.843-3.748,9.568-6.49c2.723-2.74,4.838-5.932,6.343-9.574c1.505-3.641,2.257-7.481,2.257-11.521
	c0-4.111-0.752-7.986-2.257-11.629c-1.505-3.641-3.62-6.832-6.343-9.574c-2.725-2.74-5.913-4.868-9.568-6.383
	c-3.656-1.515-7.526-2.271-11.611-2.271c-4.015,0-7.832,0.757-11.45,2.271c-3.62,1.515-6.792,3.643-9.515,6.383
	c-2.795,2.812-4.964,6.041-6.504,9.682c-1.542,3.643-2.312,7.483-2.312,11.521c0,4.04,0.788,7.881,2.365,11.521
	c1.576,3.643,3.726,6.834,6.451,9.574c2.723,2.742,5.895,4.905,9.515,6.49c3.618,1.588,7.435,2.381,11.45,2.381
	C780.605,638.916,784.476,638.123,788.131,636.535z"/>
<path d="M927.082,657.903c-5.125-1.694-9.875-4.129-14.245-7.303c-0.431,2.525-1.631,4.598-3.602,6.221
	c-1.973,1.622-4.284,2.434-6.935,2.434c-3.01,0-5.537-1.01-7.579-3.029c-2.043-2.018-3.065-4.543-3.065-7.572v-117.27
	c0-3.029,1.022-5.553,3.065-7.572c2.042-2.018,4.569-3.029,7.579-3.029s5.554,1.012,7.634,3.029c2.078,2.02,3.117,4.543,3.117,7.572
	v35.7c4.371-3.101,9.085-5.499,14.137-7.194c5.053-1.693,10.303-2.542,15.75-2.542c6.952,0,13.546,1.317,19.783,3.948
	c6.235,2.635,11.718,6.329,16.449,11.09c4.73,4.76,8.403,10.295,11.019,16.605c2.615,6.312,3.925,12.965,3.925,19.959
	c0,6.996-1.309,13.614-3.925,19.852c-2.616,6.239-6.289,11.738-11.019,16.498c-4.731,4.76-10.214,8.475-16.449,11.143
	c-6.236,2.669-12.831,4.002-19.783,4.002C937.492,660.444,932.206,659.596,927.082,657.903z M954.55,636.482
	c3.656-1.55,6.844-3.694,9.569-6.437c2.722-2.74,4.838-5.932,6.343-9.574c1.504-3.641,2.257-7.481,2.257-11.521
	c0-4.111-0.753-7.986-2.257-11.629c-1.505-3.641-3.621-6.832-6.343-9.574c-2.725-2.74-5.913-4.868-9.569-6.383
	c-3.655-1.515-7.525-2.271-11.611-2.271c-4.014,0-7.847,0.757-11.503,2.271c-3.655,1.515-6.845,3.643-9.568,6.383
	c-2.795,2.812-4.964,6.041-6.504,9.682c-1.542,3.643-2.312,7.483-2.312,11.521c0,4.04,0.788,7.881,2.365,11.521
	c1.576,3.643,3.726,6.834,6.451,9.574c2.723,2.742,5.895,4.887,9.515,6.437c3.618,1.552,7.472,2.326,11.557,2.326
	S950.895,638.034,954.55,636.482z"/>
<path d="M1035.074,656.495c-6.235-2.632-11.756-6.329-16.557-11.089c-4.803-4.76-8.53-10.277-11.181-16.551
	c-2.652-6.275-3.978-12.91-3.978-19.906c0-6.994,1.326-13.647,3.978-19.959c2.651-6.311,6.378-11.846,11.181-16.605
	c4.801-4.761,10.321-8.455,16.557-11.09c6.235-2.631,12.829-3.948,19.782-3.948c6.881,0,13.42,1.317,19.62,3.948
	c6.199,2.635,11.7,6.294,16.502,10.98c4.801,4.689,8.547,10.152,11.235,16.391c2.687,6.238,4.066,12.818,4.139,19.742
	c0,3.029-0.986,5.5-2.957,7.41c-1.972,1.912-4.498,2.867-7.58,2.867h-68.698c0.861,3.029,2.167,5.842,3.925,8.438
	c1.756,2.597,3.852,4.833,6.289,6.707c2.436,1.947,5.161,3.427,8.171,4.436c3.01,1.011,6.129,1.515,9.354,1.515
	c8.241,0,14.656-2.559,19.244-7.682c2.293-1.801,4.658-2.703,7.096-2.703c1.218,0,2.4,0.216,3.547,0.648
	c2.078,0.722,3.799,2.236,5.161,4.543c1.218,1.877,1.828,3.895,1.828,6.059c0,3.175-1.363,5.879-4.086,8.113
	c-3.87,3.607-8.1,6.348-12.685,8.223c-5.736,2.307-12.436,3.461-20.105,3.461C1047.903,660.444,1041.31,659.129,1035.074,656.495z
	 M1084.313,600.728c-0.789-3.316-2.061-6.364-3.816-9.142c-1.758-2.775-3.889-5.174-6.398-7.193
	c-2.652-2.092-5.59-3.695-8.815-4.814c-3.226-1.117-6.596-1.677-10.107-1.677c-7.167,0-13.403,2.163-18.706,6.491
	c-2.51,2.092-4.622,4.526-6.343,7.302c-1.72,2.777-2.94,5.788-3.655,9.033H1084.313z"/>
<g>
	<path fill="#303C42" d="M1210.249,256h-52.803c-12.451-108.708-212.35-197.228-468.753-211.193
		c4.164-3.928,6.557-8.249,6.557-12.807c0-17.646-34.651-32-77.25-32s-77.25,14.354-77.25,32c0,4.559,2.392,8.879,6.557,12.807
		C290.904,58.772,91.005,147.292,78.554,256H25.751C11.517,256,0,260.771,0,266.667v10.688c0,16.052,11.365,31.604,32.892,44.979
		c19.136,11.896,51.173,19,85.699,19h998.818c34.502,0,66.563-7.104,85.723-19.01c21.502-13.376,32.867-28.917,32.867-44.969
		v-10.688C1236,260.771,1224.483,256,1210.249,256z M618,42.667c-14.207,0-25.751-4.781-25.751-10.667S603.791,21.333,618,21.333
		c14.207,0,25.751,4.781,25.751,10.667S632.207,42.667,618,42.667z"/>
	<path fill="#AEBCC4" d="M618,64c261.081,0,474.426,85.22,487.945,192h-975.89C143.574,149.22,356.919,64,618,64z"/>
	<path fill="#AEBCC4" d="M1184.501,277.355c0,11.823-8.374,23.292-24.242,33.146c-9.581,5.948-25.599,9.5-42.85,9.5H118.591
		c-17.251,0-33.295-3.552-42.874-9.51c-15.843-9.854-24.215-21.313-24.215-33.135v-0.021h1132.999V277.355z"/>
</g>
<rect x="129.85" y="715.32" width="976" height="1"/>
</svg>
