<?xml version="1.0" encoding="utf-8"?>
<!-- Generator: Adobe Illustrator 23.0.6, SVG Export Plug-In . SVG Version: 6.00 Build 0)  -->
<svg version="1.2" baseProfile="tiny" id="Calque_1"
	 xmlns="http://www.w3.org/2000/svg" xmlns:xlink="http://www.w3.org/1999/xlink" x="0px" y="0px" viewBox="0 0 243.81 173.466"
	 xml:space="preserve">
<polygon fill="#D00623" points="0,95.349 0,173.466 83.946,173.466 121.905,173.466 159.863,173.466 243.81,173.466 243.81,95.349 
	"/>
<rect x="0" y="76.996" fill="#062E7F" width="83.341" height="12.32"/>
<rect x="83.341" y="76.996" fill="#FFFFFF" width="160.469" height="12.32"/>
<rect x="163.061" y="76.996" fill="#E20025" width="80.749" height="12.32"/>
<g>
	<path d="M0.111,1.625h35.162c18.537,0,25.036,13.568,25.036,23.314c0,16.53-11.084,24.271-26.755,24.271H21.129v20.64H0.111V1.625z
		 M21.129,32.966h8.125c5.446,0,11.178-0.383,11.178-7.262c0-6.211-4.777-6.593-9.935-6.593h-9.368V32.966z"/>
	<polygon points="67.277,1.625 97.183,1.625 106.93,41.756 107.123,41.756 116.866,1.625 146.776,1.625 146.776,69.851 
		126.9,69.851 126.9,26.087 126.709,26.087 114.861,69.851 99.191,69.851 87.341,26.087 87.152,26.087 87.152,69.851 67.277,69.851 
			"/>
	<path d="M174.283,46.917c0,1.72,0.287,3.249,0.765,4.491c1.53,4.109,6.114,4.969,10.034,4.969c3.438,0,8.694-1.148,8.694-6.211
		c0-3.535-2.965-4.491-14.716-7.836c-10.798-3.058-23.122-6.019-23.122-19.78C155.938,6.785,169.411,0,183.456,0
		c14.811,0,27.901,5.638,28.475,22.264h-19.875c0.382-2.579-0.763-4.299-2.485-5.446c-1.719-1.242-4.106-1.72-6.21-1.72
		c-2.867,0-7.55,0.764-7.55,4.587c0.382,4.873,10.13,5.924,19.781,8.6c9.65,2.675,19.207,7.166,19.207,19.683
		c0,17.773-16.34,23.506-31.532,23.506c-7.743,0-29.813-2.771-30.005-24.557H174.283z"/>
	<path fill="#FFFFFF" d="M133.93,117.674c1.833,0,3.398,0.242,4.695,0.726c1.296,0.483,2.35,1.167,3.163,2.049
		c0.81,0.881,1.399,1.927,1.762,3.137c0.363,1.209,0.544,2.523,0.544,3.94c0,2.49-0.502,4.496-1.502,6.015
		c-1.004,1.523-2.612,2.456-4.824,2.802v0.103c2.316,0.207,3.907,1.02,4.771,2.438c0.865,1.418,1.298,3.37,1.298,5.859v3.164v1.503
		c0,0.52,0.015,1.012,0.05,1.478c0.035,0.467,0.085,0.891,0.157,1.271c0.069,0.382,0.154,0.674,0.257,0.882
		c0.139,0.207,0.277,0.407,0.417,0.596c0.136,0.191,0.362,0.372,0.672,0.545v0.518h-10.267c-0.241-0.483-0.423-1.054-0.543-1.711
		c-0.122-0.656-0.208-1.314-0.261-1.97c-0.051-0.656-0.087-1.289-0.103-1.894c-0.018-0.604-0.026-1.097-0.026-1.478v-2.489
		c0-1.036-0.053-1.9-0.156-2.593c-0.104-0.69-0.285-1.236-0.543-1.634c-0.261-0.396-0.59-0.673-0.985-0.829
		c-0.399-0.156-0.892-0.232-1.479-0.232h-2.541v14.83h-9.646v-37.026H133.93z M130.404,133.335c1.383,0,2.403-0.405,3.06-1.218
		c0.656-0.813,0.985-1.874,0.985-3.189c0-1.556-0.32-2.661-0.958-3.319c-0.641-0.656-1.686-0.985-3.138-0.985h-1.867v8.711H130.404z
		"/>
	<polygon fill="#FFFFFF" points="145.392,125.868 145.392,117.675 169.454,117.675 169.454,125.868 162.194,125.868 
		162.194,154.701 152.549,154.701 152.549,125.868 	"/>
	<rect x="171.269" y="117.675" fill="#FFFFFF" width="9.646" height="37.026"/>
	<path fill="#FFFFFF" d="M199.532,127.475c0-1.105-0.225-2.049-0.674-2.827c-0.449-0.778-1.139-1.167-2.074-1.167
		c-1.036,0-1.798,0.338-2.282,1.013c-0.484,0.674-0.725,1.425-0.725,2.256c0,1.209,0.389,2.169,1.167,2.878
		c0.778,0.709,1.754,1.321,2.929,1.839c1.176,0.52,2.437,1.048,3.786,1.582c1.35,0.538,2.611,1.238,3.785,2.101
		c1.177,0.864,2.152,1.996,2.931,3.396c0.778,1.4,1.167,3.225,1.167,5.472c0,3.942-1.123,6.801-3.37,8.583
		c-2.249,1.78-5.498,2.67-9.75,2.67c-2.005,0-3.778-0.165-5.316-0.492c-1.54-0.329-2.836-0.9-3.89-1.713
		c-1.054-0.811-1.858-1.874-2.411-3.189c-0.552-1.312-0.829-2.937-0.829-4.873v-1.297h9.333v0.88c0,1.591,0.295,2.707,0.882,3.346
		c0.587,0.639,1.349,0.959,2.281,0.959c1.004,0,1.773-0.345,2.31-1.036c0.534-0.693,0.803-1.538,0.803-2.542
		c0-1.21-0.372-2.168-1.115-2.877c-0.745-0.709-1.677-1.315-2.8-1.816c-1.124-0.5-2.342-1.011-3.657-1.529
		c-1.314-0.52-2.532-1.193-3.656-2.024c-1.123-0.828-2.057-1.918-2.799-3.266c-0.746-1.349-1.116-3.111-1.116-5.29
		c0-3.767,1.003-6.638,3.008-8.608c2.004-1.971,5.047-2.956,9.126-2.956c4.218,0,7.268,0.907,9.153,2.723
		c1.884,1.814,2.827,4.71,2.827,8.686h-9.024V127.475z"/>
	<polygon fill="#FFFFFF" points="234.9,117.675 234.9,125.558 222.609,125.558 222.609,131.884 234.122,131.884 234.122,139.454 
		222.609,139.454 222.609,146.818 235.366,146.818 235.366,154.701 212.963,154.701 212.963,117.675 	"/>
	
		<rect x="80.909" y="117.256" transform="matrix(0.7071 -0.7071 0.7071 0.7071 -67.4273 111.3829)" fill="#FFFFFF" width="39.65" height="39.65"/>
	
		<rect x="83.721" y="120.068" transform="matrix(0.7071 -0.7071 0.7071 0.7071 -67.4273 111.3836)" fill="#D00623" width="34.027" height="34.027"/>
	<path fill="#FFFFFF" d="M101.292,120.287c-3.208-0.031-5.409,2.255-5.409,2.255s2.776-1.715,5.646-0.434
		c2.194,0.975,2.951,3.097,2.951,3.097l1.459-3.245C105.938,121.96,104.505,120.316,101.292,120.287"/>
	<path fill="#FFFFFF" d="M98.244,130.913c-4.308-1.061-3.728-6.822-0.201-7.614c-4.55,0.356-5.476,5.841-2.898,8.943
		C95.954,131.751,97.278,131.104,98.244,130.913"/>
	<path fill="#FFFFFF" d="M96.541,132.727c-2.781,1.329-4.001,3.621-4.001,3.621s1.969-2.167,4.826-2.558
		c3.014-0.414,4.592,1.075,4.592,1.075l-0.914-3.087C101.044,131.778,99.318,131.398,96.541,132.727"/>
	<path fill="#FFFFFF" d="M92.792,147.886c3.14,4.521,9.738,5.453,14.458,1.466c3.871-3.269,3.774-7.953,3.774-7.953h-6.523
		c0,0-0.47,5.848-5.804,5.848c-5.334,0-8.542-6.745-4.109-11.138C90.654,138.364,89.65,143.37,92.792,147.886"/>
	<polygon fill="#FFFFFF" points="45.771,117.675 48.831,128.408 48.934,128.408 51.994,117.675 62.781,117.675 54.743,135.929 
		63.403,154.701 52.617,154.701 48.934,143.551 48.831,143.551 45.149,154.701 34.518,154.701 43.128,135.929 34.985,117.675 	"/>
	<path fill="#FFFFFF" d="M63.7,155.701v-39.026h15.469c1.965,0,3.705,0.325,5.172,0.965c1.478,0.644,2.723,1.544,3.7,2.674
		c0.971,1.123,1.693,2.459,2.146,3.971c0.441,1.468,0.664,3.083,0.664,4.798c0,4.106-1.145,7.257-3.402,9.366
		c-2.239,2.088-5.513,3.146-9.732,3.146h-2.371v14.106H63.7z M76.162,132.647c0.917,0,1.579-0.246,2.024-0.751
		c0.471-0.536,0.71-1.465,0.71-2.761c0-3.094-1.382-3.512-2.734-3.512h-0.816v7.024H76.162z"/>
	<path fill="#D00623" d="M79.169,117.675c1.832,0,3.423,0.292,4.772,0.882c1.347,0.586,2.462,1.39,3.343,2.41
		c0.882,1.02,1.531,2.221,1.945,3.605c0.415,1.382,0.622,2.887,0.622,4.51c0,3.838-1.029,6.716-3.085,8.635
		c-2.056,1.918-5.074,2.878-9.049,2.878h-3.371v14.106H64.7v-37.026H79.169 M74.346,133.647h1.816c1.209,0,2.134-0.363,2.774-1.09
		c0.639-0.726,0.96-1.866,0.96-3.422c0-3.009-1.245-4.512-3.734-4.512h-1.816V133.647 M79.169,115.675H64.7h-2v2v37.026v2h2h9.646h2
		v-2v-12.106h1.371c4.48,0,7.984-1.149,10.413-3.415c2.469-2.306,3.721-5.703,3.721-10.098c0-1.812-0.237-3.523-0.706-5.085
		c-0.493-1.647-1.283-3.107-2.348-4.338c-1.075-1.243-2.44-2.231-4.057-2.936C83.148,116.028,81.273,115.675,79.169,115.675
		 M76.346,131.643v-5.019c0.762,0.013,1.55,0.187,1.55,2.511c0,1.422-0.322,1.943-0.461,2.1
		C77.343,131.34,77.109,131.606,76.346,131.643"/>
	<polygon fill="#FFFFFF" points="30.688,117.675 30.688,125.558 18.396,125.558 18.396,131.884 29.909,131.884 29.909,139.454 
		18.396,139.454 18.396,146.818 31.152,146.818 31.152,154.701 8.75,154.701 8.75,117.675 	"/>
	<path d="M232.552,71.167c-3.484,0-5.949-1.992-5.949-6.519c0-4.266,2.275-6.21,5.285-6.21c5.783,0,5.547,8.059,9.362,9.979v-9.979
		h2.181v13.036c-7.703-0.474-6.755-10.523-11.566-10.523c-2.395,0-3.272,1.635-3.272,3.555c0,2.963,1.636,4.219,3.959,4.29V71.167z"
		/>
	<path d="M230.868,44.48c-1.516,0.261-2.275,1.683-2.275,3.295c0,2.726,1.114,4.717,6.02,5.001v-0.047
		c-1.089-0.64-2.179-2.442-2.179-4.835c0-2.869,1.326-6.353,5.64-6.353c2.49,0,5.736,1.802,5.736,6.566
		c0,5.025-3.081,7.039-8.272,7.039c-8.628,0-8.935-5.215-8.935-7.49c0-1.99,0.829-5.096,4.265-5.546V44.48z M234.424,48.202
		c0,2.891,1.684,4.171,3.697,4.171c2.015,0,3.699-1.28,3.699-4.171c0-2.869-1.684-4.148-3.699-4.148
		C236.108,44.054,234.424,45.333,234.424,48.202"/>
	<path d="M226.603,32.68c0-5.215,3.886-6.851,8.603-6.851c4.717,0,8.604,1.636,8.604,6.851c0,5.214-3.887,6.85-8.604,6.85
		C230.489,39.53,226.603,37.894,226.603,32.68 M228.593,32.68c0,4.053,4.646,4.337,6.613,4.337c1.968,0,6.614-0.284,6.614-4.337
		c0-4.053-4.646-4.338-6.614-4.338C233.239,28.342,228.593,28.627,228.593,32.68"/>
	<path d="M226.603,16.85c0-5.215,3.886-6.851,8.603-6.851c4.717,0,8.604,1.636,8.604,6.851c0,5.214-3.887,6.85-8.604,6.85
		C230.489,23.7,226.603,22.064,226.603,16.85 M228.593,16.85c0,4.052,4.646,4.337,6.613,4.337c1.968,0,6.614-0.285,6.614-4.337
		c0-4.053-4.646-4.338-6.614-4.338C233.239,12.512,228.593,12.797,228.593,16.85"/>
	<polygon points="226.949,5.193 226.949,8.922 225.679,8.922 225.679,0 226.949,0 226.949,3.728 235.54,3.728 235.54,5.193 	"/>
</g>
</svg>
